<?xml version="1.0" encoding="UTF-8"?>
<svg xmlns="http://www.w3.org/2000/svg" xmlns:xlink="http://www.w3.org/1999/xlink" width="489.86pt" height="155.372pt" viewBox="0 0 489.86 155.372">
<defs>
<g>
<g id="glyph-0-0">
<path d="M 3.921875 -5.4375 C 3.984375 -5.640625 4 -5.734375 4.140625 -5.75 C 4.21875 -5.78125 4.5 -5.78125 4.6875 -5.78125 C 5.71875 -5.78125 6.03125 -5.71875 6.03125 -5.015625 C 6.03125 -4.890625 6.03125 -4.765625 5.9375 -4.234375 L 5.9375 -4.171875 C 5.9375 -4.109375 5.96875 -4.046875 6.0625 -4.046875 C 6.171875 -4.046875 6.1875 -4.125 6.203125 -4.25 L 6.4375 -5.796875 C 6.4375 -5.84375 6.453125 -5.90625 6.453125 -5.921875 C 6.453125 -6.046875 6.359375 -6.046875 6.1875 -6.046875 L 1.109375 -6.046875 C 0.890625 -6.046875 0.890625 -6.046875 0.828125 -5.875 L 0.265625 -4.296875 C 0.234375 -4.1875 0.234375 -4.171875 0.234375 -4.15625 C 0.234375 -4.109375 0.265625 -4.046875 0.34375 -4.046875 C 0.453125 -4.046875 0.46875 -4.09375 0.515625 -4.25 C 1.015625 -5.65625 1.28125 -5.78125 2.578125 -5.78125 L 2.9375 -5.78125 C 3.1875 -5.78125 3.1875 -5.75 3.1875 -5.671875 C 3.1875 -5.625 3.15625 -5.5625 3.140625 -5.484375 L 1.953125 -0.703125 C 1.875 -0.390625 1.84375 -0.28125 0.890625 -0.28125 C 0.609375 -0.28125 0.53125 -0.28125 0.53125 -0.109375 C 0.53125 0 0.640625 0 0.671875 0 C 0.90625 0 1.171875 -0.015625 1.40625 -0.015625 C 1.65625 -0.015625 1.921875 -0.03125 2.171875 -0.03125 C 2.5625 -0.03125 2.578125 -0.03125 2.90625 -0.015625 C 3.03125 -0.015625 3.625 0 3.6875 0 C 3.765625 0 3.875 0 3.875 -0.15625 C 3.875 -0.28125 3.796875 -0.28125 3.578125 -0.28125 C 3.359375 -0.28125 3.25 -0.28125 3 -0.296875 C 2.796875 -0.328125 2.6875 -0.328125 2.6875 -0.484375 C 2.6875 -0.53125 2.703125 -0.59375 2.71875 -0.65625 Z M 3.921875 -5.4375 "/>
</g>
<g id="glyph-0-1">
<path d="M 8.46875 -5.421875 C 8.546875 -5.75 8.578125 -5.828125 9.265625 -5.828125 C 9.40625 -5.828125 9.515625 -5.828125 9.515625 -5.984375 C 9.515625 -6.109375 9.421875 -6.109375 9.25 -6.109375 L 8.078125 -6.109375 C 7.859375 -6.109375 7.828125 -6.109375 7.71875 -5.9375 L 4.421875 -0.84375 L 3.671875 -5.875 C 3.640625 -6.109375 3.625 -6.109375 3.375 -6.109375 L 2.15625 -6.109375 C 2 -6.109375 1.890625 -6.109375 1.890625 -5.9375 C 1.890625 -5.828125 1.96875 -5.828125 2.15625 -5.828125 C 2.1875 -5.828125 2.34375 -5.828125 2.5 -5.8125 C 2.65625 -5.796875 2.703125 -5.765625 2.703125 -5.671875 C 2.703125 -5.625 2.703125 -5.59375 2.671875 -5.5 L 1.53125 -0.953125 C 1.421875 -0.484375 1.171875 -0.296875 0.578125 -0.28125 C 0.546875 -0.28125 0.421875 -0.265625 0.421875 -0.109375 C 0.421875 -0.09375 0.421875 0 0.546875 0 C 0.65625 0 0.890625 -0.015625 1 -0.015625 C 1.140625 -0.03125 1.15625 -0.03125 1.453125 -0.03125 C 1.671875 -0.03125 1.6875 -0.03125 1.90625 -0.015625 C 2.046875 -0.015625 2.234375 0 2.375 0 C 2.40625 0 2.53125 0 2.53125 -0.15625 C 2.53125 -0.265625 2.4375 -0.28125 2.34375 -0.28125 C 1.9375 -0.28125 1.765625 -0.421875 1.765625 -0.65625 C 1.765625 -0.71875 1.78125 -0.734375 1.8125 -0.859375 L 3.015625 -5.71875 L 3.828125 -0.234375 C 3.859375 -0.09375 3.875 0 3.984375 0 C 4.09375 0 4.140625 -0.09375 4.203125 -0.171875 L 7.84375 -5.78125 L 6.5625 -0.671875 C 6.484375 -0.359375 6.46875 -0.28125 5.796875 -0.28125 C 5.640625 -0.28125 5.53125 -0.28125 5.53125 -0.109375 C 5.53125 -0.03125 5.59375 0 5.671875 0 C 5.78125 0 6.125 -0.015625 6.234375 -0.015625 C 6.359375 -0.03125 6.59375 -0.03125 6.765625 -0.03125 C 6.796875 -0.03125 7.15625 -0.015625 7.34375 -0.015625 C 7.515625 -0.015625 7.71875 0 7.890625 0 C 7.9375 0 8.046875 0 8.046875 -0.15625 C 8.046875 -0.28125 7.96875 -0.28125 7.78125 -0.28125 C 7.734375 -0.28125 7.578125 -0.28125 7.4375 -0.296875 C 7.234375 -0.328125 7.234375 -0.359375 7.234375 -0.4375 C 7.234375 -0.515625 7.25 -0.59375 7.265625 -0.65625 Z M 8.46875 -5.421875 "/>
</g>
<g id="glyph-0-2">
<path d="M 5.84375 -6.0625 C 5.875 -6.15625 5.875 -6.171875 5.875 -6.203125 C 5.875 -6.21875 5.859375 -6.296875 5.765625 -6.296875 C 5.71875 -6.296875 5.71875 -6.296875 5.609375 -6.171875 C 5.484375 -6.03125 5.59375 -6.15625 5.171875 -5.671875 C 4.84375 -6.171875 4.328125 -6.296875 3.859375 -6.296875 C 2.703125 -6.296875 1.609375 -5.265625 1.609375 -4.203125 C 1.609375 -3.828125 1.71875 -3.53125 1.953125 -3.28125 C 2.21875 -3.015625 2.4375 -2.953125 3.078125 -2.78125 L 3.828125 -2.59375 C 4.125 -2.5 4.421875 -2.21875 4.421875 -1.71875 C 4.421875 -0.921875 3.65625 -0.078125 2.765625 -0.078125 C 2.234375 -0.078125 1.171875 -0.234375 1.171875 -1.390625 C 1.171875 -1.46875 1.171875 -1.59375 1.21875 -1.875 C 1.25 -1.90625 1.25 -1.921875 1.25 -1.9375 C 1.25 -1.96875 1.21875 -2.03125 1.125 -2.03125 C 1.015625 -2.03125 1 -1.984375 0.96875 -1.828125 L 0.484375 0.09375 C 0.484375 0.15625 0.53125 0.203125 0.59375 0.203125 C 0.640625 0.203125 0.65625 0.1875 0.765625 0.0625 C 0.828125 0 1.078125 -0.328125 1.1875 -0.4375 C 1.65625 0.15625 2.46875 0.203125 2.75 0.203125 C 3.984375 0.203125 5.046875 -0.953125 5.046875 -2.078125 C 5.046875 -3.1875 4.171875 -3.421875 3.890625 -3.484375 L 3.078125 -3.6875 C 2.78125 -3.765625 2.25 -3.90625 2.25 -4.578125 C 2.25 -5.265625 2.953125 -6.046875 3.859375 -6.046875 C 4.203125 -6.046875 4.5625 -5.953125 4.8125 -5.703125 C 5.140625 -5.375 5.15625 -4.890625 5.15625 -4.65625 C 5.15625 -4.359375 5.125 -4.265625 5.125 -4.1875 C 5.125 -4.125 5.15625 -4.078125 5.25 -4.078125 C 5.34375 -4.078125 5.34375 -4.09375 5.390625 -4.265625 Z M 5.84375 -6.0625 "/>
</g>
<g id="glyph-0-3">
<path d="M 2.78125 -2.90625 L 3.65625 -2.90625 C 4.296875 -2.90625 4.421875 -2.796875 4.421875 -2.515625 C 4.421875 -2.484375 4.40625 -2.328125 4.359375 -2.109375 C 4.3125 -2 4.3125 -2 4.3125 -1.96875 C 4.3125 -1.9375 4.34375 -1.859375 4.4375 -1.859375 C 4.546875 -1.859375 4.546875 -1.90625 4.578125 -2.046875 L 5.078125 -3.984375 C 5.078125 -4.015625 5.109375 -4.0625 5.109375 -4.109375 C 5.109375 -4.171875 5.0625 -4.234375 4.984375 -4.234375 C 4.875 -4.234375 4.859375 -4.171875 4.828125 -4.015625 C 4.640625 -3.3125 4.390625 -3.1875 3.671875 -3.1875 L 2.84375 -3.1875 C 2.96875 -3.671875 3.421875 -5.5 3.453125 -5.625 C 3.515625 -5.796875 3.625 -5.796875 3.890625 -5.796875 L 5.125 -5.796875 C 6.25 -5.796875 6.4375 -5.5 6.4375 -4.8125 C 6.4375 -4.515625 6.40625 -4.265625 6.40625 -4.203125 C 6.40625 -4.125 6.4375 -4.0625 6.53125 -4.0625 C 6.625 -4.0625 6.640625 -4.125 6.65625 -4.296875 L 6.84375 -5.953125 C 6.84375 -6.078125 6.75 -6.078125 6.59375 -6.078125 L 2.109375 -6.078125 C 1.9375 -6.078125 1.84375 -6.078125 1.84375 -5.921875 C 1.84375 -5.796875 1.9375 -5.796875 2.125 -5.796875 C 2.15625 -5.796875 2.3125 -5.796875 2.453125 -5.78125 C 2.65625 -5.75 2.65625 -5.71875 2.65625 -5.640625 C 2.65625 -5.609375 2.65625 -5.59375 2.625 -5.4375 L 1.4375 -0.671875 C 1.34375 -0.359375 1.328125 -0.28125 0.65625 -0.28125 C 0.484375 -0.28125 0.390625 -0.28125 0.390625 -0.109375 C 0.390625 -0.0625 0.421875 0 0.53125 0 C 0.625 0 1.046875 -0.015625 1.140625 -0.015625 C 1.203125 -0.03125 1.515625 -0.03125 1.71875 -0.03125 C 1.890625 -0.03125 2.140625 -0.015625 2.34375 -0.015625 C 2.5625 -0.015625 2.8125 0 3.03125 0 C 3.09375 0 3.21875 0 3.21875 -0.15625 C 3.21875 -0.28125 3.125 -0.28125 2.9375 -0.28125 C 2.921875 -0.28125 2.6875 -0.28125 2.46875 -0.296875 C 2.203125 -0.328125 2.1875 -0.359375 2.1875 -0.46875 C 2.1875 -0.484375 2.1875 -0.53125 2.21875 -0.671875 Z M 2.78125 -2.90625 "/>
</g>
<g id="glyph-0-4">
<path d="M 4 -5.96875 C 4 -6 4.015625 -6.0625 4.015625 -6.09375 C 4.015625 -6.1875 3.953125 -6.203125 3.890625 -6.203125 C 3.796875 -6.203125 3.796875 -6.171875 3.75 -6.015625 L 3.234375 -3.953125 C 1.6875 -3.890625 0.453125 -2.671875 0.453125 -1.53125 C 0.453125 -0.703125 1.0625 0.03125 2.21875 0.109375 C 2.140625 0.390625 2.078125 0.671875 2.015625 0.953125 C 1.890625 1.4375 1.8125 1.703125 1.8125 1.734375 C 1.8125 1.765625 1.828125 1.828125 1.9375 1.828125 C 2.03125 1.828125 2.046875 1.8125 2.09375 1.59375 L 2.46875 0.109375 C 4.015625 0.046875 5.265625 -1.1875 5.265625 -2.328125 C 5.265625 -3.046875 4.75 -3.875 3.5 -3.953125 Z M 2.265625 -0.109375 C 1.625 -0.15625 1.046875 -0.53125 1.046875 -1.34375 C 1.046875 -2.34375 1.78125 -3.609375 3.1875 -3.734375 Z M 3.4375 -3.734375 C 4.078125 -3.6875 4.640625 -3.34375 4.640625 -2.5 C 4.640625 -1.359375 3.796875 -0.21875 2.53125 -0.109375 Z M 3.4375 -3.734375 "/>
</g>
<g id="glyph-0-5">
<path d="M 4.125 -3.640625 C 4.15625 -3.765625 4.15625 -3.796875 4.15625 -3.828125 C 4.15625 -3.9375 4.0625 -3.953125 4.046875 -3.953125 C 3.953125 -3.953125 3.625 -3.640625 3.4375 -3.328125 C 3.296875 -3.65625 3.015625 -3.953125 2.5625 -3.953125 C 1.53125 -3.953125 0.375 -2.71875 0.375 -1.34375 C 0.375 -0.359375 1 0.09375 1.59375 0.09375 C 1.984375 0.09375 2.328125 -0.09375 2.65625 -0.40625 L 2.328125 0.96875 C 2.203125 1.421875 2.203125 1.453125 1.640625 1.453125 C 1.53125 1.453125 1.421875 1.453125 1.421875 1.625 C 1.421875 1.640625 1.421875 1.734375 1.546875 1.734375 C 1.75 1.734375 2.25 1.703125 2.453125 1.703125 C 2.75 1.703125 2.765625 1.703125 2.90625 1.71875 C 3.015625 1.71875 3.265625 1.734375 3.375 1.734375 C 3.4375 1.734375 3.546875 1.734375 3.546875 1.578125 C 3.546875 1.453125 3.453125 1.453125 3.3125 1.453125 C 2.890625 1.453125 2.890625 1.390625 2.890625 1.3125 C 2.890625 1.3125 2.890625 1.25 2.921875 1.125 Z M 2.828125 -1.09375 C 2.78125 -0.921875 2.78125 -0.90625 2.640625 -0.734375 C 2.328125 -0.359375 1.953125 -0.125 1.625 -0.125 C 1.1875 -0.125 1.03125 -0.578125 1.03125 -0.96875 C 1.03125 -1.40625 1.296875 -2.4375 1.515625 -2.859375 C 1.796875 -3.390625 2.203125 -3.734375 2.5625 -3.734375 C 3.15625 -3.734375 3.296875 -3.015625 3.296875 -2.953125 C 3.296875 -2.90625 3.28125 -2.84375 3.265625 -2.8125 Z M 2.828125 -1.09375 "/>
</g>
<g id="glyph-0-6">
<path d="M 1.625 -0.140625 C 1.625 0.15625 1.625 0.890625 0.96875 1.515625 C 0.90625 1.578125 0.90625 1.578125 0.90625 1.625 C 0.90625 1.6875 0.96875 1.71875 1.03125 1.71875 C 1.125 1.71875 1.84375 1.03125 1.84375 -0.015625 C 1.84375 -0.578125 1.65625 -0.96875 1.265625 -0.96875 C 0.96875 -0.96875 0.78125 -0.734375 0.78125 -0.484375 C 0.78125 -0.234375 0.96875 0 1.265625 0 C 1.40625 0 1.53125 -0.046875 1.625 -0.140625 Z M 1.625 -0.140625 "/>
</g>
<g id="glyph-0-7">
<path d="M 3.40625 -5.390625 C 3.484375 -5.734375 3.515625 -5.828125 4.34375 -5.828125 C 4.59375 -5.828125 4.671875 -5.828125 4.671875 -5.984375 C 4.671875 -6.109375 4.5625 -6.109375 4.53125 -6.109375 C 4.328125 -6.109375 4.09375 -6.09375 3.875 -6.09375 C 3.671875 -6.09375 3.453125 -6.078125 3.234375 -6.078125 C 3.03125 -6.078125 2.8125 -6.078125 2.625 -6.09375 C 2.453125 -6.09375 2.1875 -6.109375 2.03125 -6.109375 C 1.96875 -6.109375 1.84375 -6.109375 1.84375 -5.9375 C 1.84375 -5.828125 1.9375 -5.828125 2.125 -5.828125 C 2.15625 -5.828125 2.3125 -5.828125 2.453125 -5.8125 C 2.609375 -5.796875 2.671875 -5.78125 2.671875 -5.671875 C 2.671875 -5.625 2.65625 -5.59375 2.640625 -5.5 L 1.4375 -0.671875 C 1.34375 -0.359375 1.328125 -0.28125 0.65625 -0.28125 C 0.484375 -0.28125 0.390625 -0.28125 0.390625 -0.109375 C 0.390625 0 0.484375 0 0.640625 0 L 4.859375 0 C 5.078125 0 5.078125 -0.015625 5.15625 -0.203125 C 5.25 -0.421875 5.890625 -2.125 5.890625 -2.1875 C 5.890625 -2.265625 5.828125 -2.3125 5.765625 -2.3125 C 5.671875 -2.3125 5.671875 -2.265625 5.59375 -2.09375 C 5.296875 -1.296875 4.890625 -0.28125 3.328125 -0.28125 L 2.453125 -0.28125 C 2.328125 -0.28125 2.3125 -0.28125 2.265625 -0.28125 C 2.1875 -0.296875 2.15625 -0.296875 2.15625 -0.359375 C 2.15625 -0.390625 2.15625 -0.40625 2.203125 -0.578125 Z M 3.40625 -5.390625 "/>
</g>
<g id="glyph-1-0">
<path d="M 2.765625 -0.84375 C 2.921875 -0.734375 2.9375 -0.734375 2.96875 -0.734375 C 3.078125 -0.734375 3.171875 -0.828125 3.171875 -0.9375 C 3.171875 -1.0625 3.078125 -1.09375 3.03125 -1.125 C 2.734375 -1.25 2.421875 -1.375 2.125 -1.484375 C 2.71875 -1.734375 2.890625 -1.796875 3 -1.84375 C 3.09375 -1.875 3.171875 -1.90625 3.171875 -2.03125 C 3.171875 -2.15625 3.078125 -2.234375 2.96875 -2.234375 C 2.921875 -2.234375 2.890625 -2.21875 2.84375 -2.1875 L 2 -1.65625 C 2 -1.734375 2.03125 -1.9375 2.03125 -2.015625 C 2.046875 -2.125 2.09375 -2.484375 2.09375 -2.59375 C 2.09375 -2.6875 2 -2.765625 1.90625 -2.765625 C 1.796875 -2.765625 1.703125 -2.6875 1.703125 -2.59375 C 1.703125 -2.578125 1.75 -2.046875 1.765625 -2.015625 C 1.765625 -1.953125 1.796875 -1.71875 1.796875 -1.65625 L 0.953125 -2.1875 C 0.90625 -2.21875 0.875 -2.234375 0.828125 -2.234375 C 0.71875 -2.234375 0.625 -2.15625 0.625 -2.03125 C 0.625 -1.90625 0.71875 -1.875 0.765625 -1.84375 C 1.0625 -1.71875 1.375 -1.59375 1.671875 -1.484375 C 1.078125 -1.234375 0.90625 -1.171875 0.796875 -1.125 C 0.703125 -1.09375 0.625 -1.0625 0.625 -0.9375 C 0.625 -0.828125 0.71875 -0.734375 0.828125 -0.734375 C 0.875 -0.734375 0.96875 -0.796875 1.046875 -0.84375 C 1.125 -0.890625 1.328125 -1.03125 1.40625 -1.078125 C 1.59375 -1.203125 1.671875 -1.25 1.796875 -1.328125 C 1.796875 -1.234375 1.765625 -1.03125 1.765625 -0.953125 L 1.703125 -0.375 C 1.703125 -0.28125 1.796875 -0.203125 1.90625 -0.203125 C 2 -0.203125 2.09375 -0.28125 2.09375 -0.375 C 2.09375 -0.390625 2.046875 -0.921875 2.03125 -0.953125 C 2.03125 -1.015625 2 -1.25 2 -1.328125 Z M 2.765625 -0.84375 "/>
</g>
<g id="glyph-2-0">
<path d="M 3.296875 -3.140625 C 3.34375 -3.21875 3.359375 -3.234375 3.359375 -3.296875 C 3.359375 -3.421875 3.265625 -3.421875 3.140625 -3.421875 L 0.4375 -3.421875 L 0.34375 -2.09375 L 0.59375 -2.09375 C 0.640625 -2.921875 0.8125 -3.203125 1.703125 -3.203125 L 2.609375 -3.203125 L 0.3125 -0.296875 C 0.25 -0.21875 0.234375 -0.203125 0.234375 -0.140625 C 0.234375 0 0.328125 0 0.453125 0 L 3.25 0 L 3.390625 -1.53125 L 3.140625 -1.53125 C 3.0625 -0.609375 2.90625 -0.25 1.9375 -0.25 L 0.984375 -0.25 Z M 3.296875 -3.140625 "/>
</g>
<g id="glyph-2-1">
<path d="M 3.28125 -1.8125 C 3.453125 -1.8125 3.5 -1.8125 3.5 -2 C 3.5 -2.703125 3.109375 -3.546875 2 -3.546875 C 1.015625 -3.546875 0.234375 -2.71875 0.234375 -1.734375 C 0.234375 -0.71875 1.09375 0.078125 2.09375 0.078125 C 3.109375 0.078125 3.5 -0.765625 3.5 -0.953125 C 3.5 -0.984375 3.484375 -1.0625 3.375 -1.0625 C 3.28125 -1.0625 3.265625 -1.015625 3.25 -0.953125 C 2.96875 -0.1875 2.28125 -0.171875 2.140625 -0.171875 C 1.78125 -0.171875 1.421875 -0.328125 1.1875 -0.703125 C 0.9375 -1.0625 0.9375 -1.578125 0.9375 -1.8125 Z M 0.953125 -2.015625 C 1.03125 -3.125 1.703125 -3.3125 2 -3.3125 C 2.921875 -3.3125 2.953125 -2.203125 2.953125 -2.015625 Z M 0.953125 -2.015625 "/>
</g>
<g id="glyph-2-2">
<path d="M 1.453125 -1.8125 C 1.453125 -2.40625 1.703125 -3.265625 2.46875 -3.28125 C 2.421875 -3.25 2.34375 -3.1875 2.34375 -3 C 2.34375 -2.75 2.53125 -2.640625 2.6875 -2.640625 C 2.875 -2.640625 3.046875 -2.765625 3.046875 -3 C 3.046875 -3.28125 2.796875 -3.5 2.4375 -3.5 C 1.921875 -3.5 1.578125 -3.109375 1.40625 -2.671875 L 1.40625 -3.5 L 0.28125 -3.40625 L 0.28125 -3.15625 C 0.8125 -3.15625 0.875 -3.09375 0.875 -2.703125 L 0.875 -0.625 C 0.875 -0.265625 0.78125 -0.265625 0.28125 -0.265625 L 0.28125 0 C 0.59375 -0.03125 1.03125 -0.03125 1.21875 -0.03125 C 1.6875 -0.03125 1.703125 -0.03125 2.21875 0 L 2.21875 -0.265625 L 2.0625 -0.265625 C 1.46875 -0.265625 1.453125 -0.34375 1.453125 -0.640625 Z M 1.453125 -1.8125 "/>
</g>
<g id="glyph-2-3">
<path d="M 3.96875 -1.6875 C 3.96875 -2.6875 3.15625 -3.546875 2.109375 -3.546875 C 1.0625 -3.546875 0.234375 -2.6875 0.234375 -1.6875 C 0.234375 -0.703125 1.09375 0.078125 2.109375 0.078125 C 3.125 0.078125 3.96875 -0.703125 3.96875 -1.6875 Z M 2.109375 -0.171875 C 1.671875 -0.171875 1.34375 -0.375 1.171875 -0.65625 C 0.96875 -0.96875 0.9375 -1.359375 0.9375 -1.765625 C 0.9375 -2.0625 0.9375 -2.546875 1.1875 -2.875 C 1.390625 -3.15625 1.734375 -3.3125 2.109375 -3.3125 C 2.515625 -3.3125 2.859375 -3.125 3.046875 -2.84375 C 3.25 -2.515625 3.265625 -2.078125 3.265625 -1.765625 C 3.265625 -1.390625 3.25 -0.953125 3.03125 -0.625 C 2.8125 -0.3125 2.453125 -0.171875 2.109375 -0.171875 Z M 2.109375 -0.171875 "/>
</g>
<g id="glyph-2-4">
<path d="M 2.828125 -3.328125 C 2.828125 -3.453125 2.828125 -3.546875 2.71875 -3.546875 C 2.6875 -3.546875 2.65625 -3.546875 2.53125 -3.40625 C 2.515625 -3.40625 2.4375 -3.328125 2.421875 -3.328125 C 2.40625 -3.328125 2.390625 -3.328125 2.34375 -3.359375 C 2.21875 -3.453125 2 -3.546875 1.640625 -3.546875 C 0.53125 -3.546875 0.28125 -2.9375 0.28125 -2.5625 C 0.28125 -2.15625 0.578125 -1.921875 0.59375 -1.90625 C 0.90625 -1.671875 1.09375 -1.640625 1.625 -1.546875 C 2 -1.46875 2.609375 -1.359375 2.609375 -0.8125 C 2.609375 -0.515625 2.40625 -0.140625 1.671875 -0.140625 C 0.875 -0.140625 0.640625 -0.765625 0.546875 -1.1875 C 0.515625 -1.28125 0.5 -1.328125 0.40625 -1.328125 C 0.28125 -1.328125 0.28125 -1.265625 0.28125 -1.109375 L 0.28125 -0.125 C 0.28125 0 0.28125 0.078125 0.375 0.078125 C 0.421875 0.078125 0.4375 0.078125 0.578125 -0.078125 C 0.625 -0.125 0.703125 -0.21875 0.75 -0.265625 C 1.109375 0.0625 1.46875 0.078125 1.6875 0.078125 C 2.6875 0.078125 3.046875 -0.5 3.046875 -1.03125 C 3.046875 -1.40625 2.8125 -1.953125 1.859375 -2.140625 C 1.796875 -2.15625 1.359375 -2.234375 1.328125 -2.234375 C 1.078125 -2.28125 0.703125 -2.453125 0.703125 -2.765625 C 0.703125 -3.015625 0.875 -3.34375 1.640625 -3.34375 C 2.53125 -3.34375 2.5625 -2.6875 2.578125 -2.46875 C 2.59375 -2.40625 2.640625 -2.375 2.703125 -2.375 C 2.828125 -2.375 2.828125 -2.4375 2.828125 -2.59375 Z M 2.828125 -3.328125 "/>
</g>
<g id="glyph-2-5">
<path d="M 2.921875 -3.15625 C 2.703125 -3.078125 2.671875 -2.890625 2.671875 -2.796875 C 2.671875 -2.59375 2.8125 -2.421875 3.046875 -2.421875 C 3.25 -2.421875 3.40625 -2.578125 3.40625 -2.8125 C 3.40625 -3.296875 2.875 -3.546875 2.125 -3.546875 C 1.03125 -3.546875 0.28125 -2.65625 0.28125 -1.71875 C 0.28125 -0.703125 1.109375 0.078125 2.109375 0.078125 C 3.21875 0.078125 3.5 -0.859375 3.5 -0.953125 C 3.5 -1.046875 3.390625 -1.046875 3.375 -1.046875 C 3.3125 -1.046875 3.28125 -1.046875 3.25 -0.953125 C 3.203125 -0.796875 2.96875 -0.171875 2.1875 -0.171875 C 1.6875 -0.171875 0.984375 -0.546875 0.984375 -1.71875 C 0.984375 -2.859375 1.578125 -3.296875 2.15625 -3.296875 C 2.21875 -3.296875 2.640625 -3.296875 2.921875 -3.15625 Z M 2.921875 -3.15625 "/>
</g>
<g id="glyph-2-6">
<path d="M 1.46875 -3.15625 L 2.65625 -3.15625 L 2.65625 -3.421875 L 1.46875 -3.421875 L 1.46875 -4.875 L 1.234375 -4.875 C 1.21875 -4.15625 0.890625 -3.40625 0.15625 -3.375 L 0.15625 -3.15625 L 0.875 -3.15625 L 0.875 -0.984375 C 0.875 -0.0625 1.59375 0.078125 1.953125 0.078125 C 2.484375 0.078125 2.796875 -0.390625 2.796875 -0.984375 L 2.796875 -1.4375 L 2.5625 -1.4375 L 2.5625 -1.015625 C 2.5625 -0.453125 2.3125 -0.171875 2.015625 -0.171875 C 1.46875 -0.171875 1.46875 -0.84375 1.46875 -0.96875 Z M 1.46875 -3.15625 "/>
</g>
<g id="glyph-2-7">
<path d="M 1.546875 -4.890625 C 1.546875 -5.125 1.359375 -5.328125 1.109375 -5.328125 C 0.875 -5.328125 0.671875 -5.15625 0.671875 -4.890625 C 0.671875 -4.625 0.890625 -4.453125 1.109375 -4.453125 C 1.375 -4.453125 1.546875 -4.6875 1.546875 -4.890625 Z M 0.359375 -3.40625 L 0.359375 -3.15625 C 0.859375 -3.15625 0.9375 -3.109375 0.9375 -2.71875 L 0.9375 -0.625 C 0.9375 -0.265625 0.84375 -0.265625 0.328125 -0.265625 L 0.328125 0 C 0.640625 -0.03125 1.09375 -0.03125 1.203125 -0.03125 C 1.3125 -0.03125 1.78125 -0.03125 2.0625 0 L 2.0625 -0.265625 C 1.546875 -0.265625 1.515625 -0.296875 1.515625 -0.609375 L 1.515625 -3.5 Z M 0.359375 -3.40625 "/>
</g>
<g id="glyph-2-8">
<path d="M 3.859375 -2.40625 C 3.859375 -3.078125 3.5625 -3.5 2.71875 -3.5 C 1.9375 -3.5 1.578125 -2.921875 1.484375 -2.734375 L 1.46875 -2.734375 L 1.46875 -3.5 L 0.328125 -3.40625 L 0.328125 -3.15625 C 0.859375 -3.15625 0.921875 -3.09375 0.921875 -2.703125 L 0.921875 -0.625 C 0.921875 -0.265625 0.828125 -0.265625 0.328125 -0.265625 L 0.328125 0 C 0.671875 -0.03125 1.015625 -0.03125 1.234375 -0.03125 C 1.453125 -0.03125 1.796875 -0.03125 2.140625 0 L 2.140625 -0.265625 C 1.625 -0.265625 1.53125 -0.265625 1.53125 -0.625 L 1.53125 -2.0625 C 1.53125 -2.890625 2.171875 -3.28125 2.65625 -3.28125 C 3.140625 -3.28125 3.25 -2.9375 3.25 -2.4375 L 3.25 -0.625 C 3.25 -0.265625 3.15625 -0.265625 2.65625 -0.265625 L 2.65625 0 C 3 -0.03125 3.34375 -0.03125 3.5625 -0.03125 C 3.78125 -0.03125 4.125 -0.03125 4.453125 0 L 4.453125 -0.265625 C 3.953125 -0.265625 3.859375 -0.265625 3.859375 -0.625 Z M 3.859375 -2.40625 "/>
</g>
<g id="glyph-2-9">
<path d="M 5.796875 -2.640625 C 5.921875 -2.640625 6.078125 -2.640625 6.078125 -2.828125 C 6.078125 -3.015625 5.890625 -3.015625 5.765625 -3.015625 L 0.78125 -3.015625 C 0.65625 -3.015625 0.46875 -3.015625 0.46875 -2.828125 C 0.46875 -2.640625 0.625 -2.640625 0.75 -2.640625 Z M 5.765625 -0.953125 C 5.890625 -0.953125 6.078125 -0.953125 6.078125 -1.140625 C 6.078125 -1.328125 5.921875 -1.328125 5.796875 -1.328125 L 0.75 -1.328125 C 0.625 -1.328125 0.46875 -1.328125 0.46875 -1.140625 C 0.46875 -0.953125 0.65625 -0.953125 0.78125 -0.953125 Z M 5.765625 -0.953125 "/>
</g>
<g id="glyph-2-10">
<path d="M 2.640625 1.984375 C 2.703125 1.984375 2.796875 1.984375 2.796875 1.890625 C 2.796875 1.859375 2.796875 1.84375 2.6875 1.75 C 1.609375 0.71875 1.328125 -0.75 1.328125 -1.984375 C 1.328125 -4.265625 2.28125 -5.34375 2.6875 -5.703125 C 2.796875 -5.8125 2.796875 -5.8125 2.796875 -5.859375 C 2.796875 -5.890625 2.765625 -5.953125 2.6875 -5.953125 C 2.5625 -5.953125 2.171875 -5.546875 2.109375 -5.484375 C 1.046875 -4.359375 0.8125 -2.9375 0.8125 -1.984375 C 0.8125 -0.203125 1.5625 1.21875 2.640625 1.984375 Z M 2.640625 1.984375 "/>
</g>
<g id="glyph-2-11">
<path d="M 2.453125 -1.984375 C 2.453125 -2.734375 2.328125 -3.640625 1.828125 -4.578125 C 1.4375 -5.3125 0.71875 -5.953125 0.578125 -5.953125 C 0.5 -5.953125 0.46875 -5.890625 0.46875 -5.859375 C 0.46875 -5.828125 0.46875 -5.8125 0.578125 -5.71875 C 1.6875 -4.65625 1.9375 -3.203125 1.9375 -1.984375 C 1.9375 0.296875 0.984375 1.375 0.59375 1.734375 C 0.484375 1.84375 0.46875 1.84375 0.46875 1.890625 C 0.46875 1.921875 0.5 1.984375 0.578125 1.984375 C 0.703125 1.984375 1.109375 1.578125 1.171875 1.515625 C 2.234375 0.390625 2.453125 -1.03125 2.453125 -1.984375 Z M 2.453125 -1.984375 "/>
</g>
<g id="glyph-2-12">
<path d="M 1.609375 -2.96875 C 1.609375 -3.25 1.390625 -3.421875 1.171875 -3.421875 C 0.90625 -3.421875 0.734375 -3.203125 0.734375 -2.984375 C 0.734375 -2.71875 0.9375 -2.546875 1.171875 -2.546875 C 1.4375 -2.546875 1.609375 -2.75 1.609375 -2.96875 Z M 1.609375 -0.4375 C 1.609375 -0.703125 1.390625 -0.875 1.171875 -0.875 C 0.90625 -0.875 0.734375 -0.671875 0.734375 -0.4375 C 0.734375 -0.171875 0.9375 0 1.171875 0 C 1.4375 0 1.609375 -0.21875 1.609375 -0.4375 Z M 1.609375 -0.4375 "/>
</g>
<g id="glyph-2-13">
<path d="M 1.375 -0.546875 C 1.125 -0.578125 0.921875 -0.78125 0.921875 -1.078125 C 0.921875 -1.265625 0.96875 -1.328125 1.03125 -1.40625 C 1.359375 -1.203125 1.671875 -1.171875 1.859375 -1.171875 C 2.65625 -1.171875 3.234375 -1.71875 3.234375 -2.328125 C 3.234375 -2.640625 3.09375 -2.890625 2.90625 -3.09375 C 3.015625 -3.1875 3.28125 -3.359375 3.671875 -3.359375 C 3.640625 -3.34375 3.59375 -3.296875 3.59375 -3.171875 C 3.59375 -3.03125 3.703125 -2.921875 3.84375 -2.921875 C 3.953125 -2.921875 4.09375 -3 4.09375 -3.1875 C 4.09375 -3.3125 3.984375 -3.59375 3.640625 -3.59375 C 3.5 -3.59375 3.125 -3.5625 2.75 -3.21875 C 2.5625 -3.359375 2.25 -3.5 1.875 -3.5 C 1.09375 -3.5 0.515625 -2.953125 0.515625 -2.328125 C 0.515625 -1.953125 0.71875 -1.6875 0.875 -1.53125 C 0.703125 -1.328125 0.640625 -1.078125 0.640625 -0.875 C 0.640625 -0.5625 0.796875 -0.3125 0.96875 -0.171875 C 0.5625 -0.0625 0.234375 0.25 0.234375 0.609375 C 0.234375 1.1875 1.0625 1.625 2.109375 1.625 C 3.09375 1.625 3.96875 1.21875 3.96875 0.59375 C 3.96875 0.171875 3.71875 -0.171875 3.453125 -0.296875 C 2.984375 -0.546875 2.59375 -0.546875 1.8125 -0.546875 Z M 1.875 -1.390625 C 1.140625 -1.390625 1.140625 -2.15625 1.140625 -2.328125 C 1.140625 -2.625 1.171875 -2.828125 1.296875 -3 C 1.421875 -3.171875 1.65625 -3.265625 1.859375 -3.265625 C 2.609375 -3.265625 2.609375 -2.515625 2.609375 -2.328125 C 2.609375 -2.046875 2.5625 -1.828125 2.4375 -1.671875 C 2.265625 -1.453125 2.015625 -1.390625 1.875 -1.390625 Z M 2.25 -0.03125 C 2.453125 -0.03125 3.5 -0.03125 3.5 0.609375 C 3.5 1.03125 2.890625 1.390625 2.109375 1.390625 C 1.3125 1.390625 0.703125 1.03125 0.703125 0.609375 C 0.703125 0.4375 0.828125 -0.03125 1.484375 -0.03125 Z M 2.25 -0.03125 "/>
</g>
<g id="glyph-2-14">
<path d="M 3.328125 -2.359375 C 3.328125 -3.140625 2.578125 -3.546875 1.859375 -3.546875 C 1.203125 -3.546875 0.609375 -3.28125 0.609375 -2.765625 C 0.609375 -2.53125 0.78125 -2.375 0.984375 -2.375 C 1.203125 -2.375 1.359375 -2.546875 1.359375 -2.75 C 1.359375 -2.9375 1.234375 -3.078125 1.0625 -3.125 C 1.359375 -3.3125 1.78125 -3.3125 1.84375 -3.3125 C 2.28125 -3.3125 2.734375 -3.015625 2.734375 -2.359375 L 2.734375 -2.109375 C 2.265625 -2.09375 1.734375 -2.0625 1.1875 -1.828125 C 0.484375 -1.53125 0.34375 -1.078125 0.34375 -0.8125 C 0.34375 -0.125 1.15625 0.078125 1.703125 0.078125 C 2.28125 0.078125 2.640625 -0.25 2.8125 -0.5625 C 2.84375 -0.265625 3.0625 0.046875 3.40625 0.046875 C 3.484375 0.046875 4.15625 0.015625 4.15625 -0.71875 L 4.15625 -1.15625 L 3.90625 -1.15625 L 3.90625 -0.71875 C 3.90625 -0.390625 3.796875 -0.265625 3.625 -0.265625 C 3.328125 -0.265625 3.328125 -0.625 3.328125 -0.71875 Z M 2.734375 -1.125 C 2.734375 -0.34375 2.078125 -0.140625 1.765625 -0.140625 C 1.34375 -0.140625 1 -0.421875 1 -0.796875 C 1 -1.328125 1.5 -1.859375 2.734375 -1.90625 Z M 2.734375 -1.125 "/>
</g>
<g id="glyph-3-0">
<path d="M 3.078125 -4.796875 C 3.15625 -5.078125 3.171875 -5.15625 3.890625 -5.15625 C 4.125 -5.15625 4.203125 -5.15625 4.203125 -5.3125 C 4.203125 -5.328125 4.1875 -5.421875 4.0625 -5.421875 C 3.890625 -5.421875 3.65625 -5.40625 3.5 -5.390625 L 2.921875 -5.390625 C 2.09375 -5.390625 1.90625 -5.421875 1.84375 -5.421875 C 1.8125 -5.421875 1.6875 -5.421875 1.6875 -5.265625 C 1.6875 -5.15625 1.796875 -5.15625 1.921875 -5.15625 C 2.1875 -5.15625 2.40625 -5.15625 2.40625 -5.03125 C 2.40625 -5 2.40625 -5 2.375 -4.890625 L 1.3125 -0.625 C 1.25 -0.328125 1.234375 -0.265625 0.640625 -0.265625 C 0.484375 -0.265625 0.390625 -0.265625 0.390625 -0.109375 C 0.390625 0 0.5 0 0.640625 0 L 4.46875 0 C 4.671875 0 4.671875 -0.015625 4.734375 -0.15625 C 4.8125 -0.375 5.390625 -1.875 5.390625 -1.953125 C 5.390625 -2.03125 5.328125 -2.0625 5.28125 -2.0625 C 5.1875 -2.0625 5.171875 -2.015625 5.125 -1.890625 C 4.828125 -1.15625 4.5 -0.265625 3.078125 -0.265625 L 2.0625 -0.265625 C 2 -0.28125 1.96875 -0.28125 1.96875 -0.328125 C 1.96875 -0.390625 1.984375 -0.453125 2 -0.515625 Z M 3.078125 -4.796875 "/>
</g>
<g id="glyph-3-1">
<path d="M 3.78125 -3.265625 C 3.78125 -3.296875 3.796875 -3.34375 3.796875 -3.390625 C 3.796875 -3.4375 3.765625 -3.5 3.6875 -3.5 C 3.59375 -3.5 3.265625 -3.1875 3.140625 -2.96875 C 3.0625 -3.140625 2.8125 -3.5 2.328125 -3.5 C 1.375 -3.5 0.34375 -2.390625 0.34375 -1.21875 C 0.34375 -0.390625 0.875 0.078125 1.484375 0.078125 C 1.875 0.078125 2.203125 -0.15625 2.4375 -0.359375 C 2.4375 -0.328125 2.1875 0.671875 2.15625 0.796875 C 2.046875 1.265625 2.046875 1.265625 1.546875 1.28125 C 1.4375 1.28125 1.34375 1.28125 1.34375 1.421875 C 1.34375 1.46875 1.375 1.546875 1.453125 1.546875 C 1.5625 1.546875 1.75 1.53125 1.84375 1.515625 L 2.265625 1.515625 C 2.90625 1.515625 3.046875 1.546875 3.109375 1.546875 C 3.140625 1.546875 3.265625 1.546875 3.265625 1.390625 C 3.265625 1.28125 3.15625 1.28125 3.0625 1.28125 C 2.671875 1.28125 2.671875 1.234375 2.671875 1.15625 C 2.671875 1.15625 2.671875 1.109375 2.703125 0.984375 Z M 2.609375 -0.984375 C 2.578125 -0.859375 2.578125 -0.84375 2.4375 -0.6875 C 2.03125 -0.203125 1.671875 -0.140625 1.515625 -0.140625 C 1.140625 -0.140625 0.953125 -0.46875 0.953125 -0.890625 C 0.953125 -1.265625 1.171875 -2.109375 1.34375 -2.453125 C 1.578125 -2.9375 1.96875 -3.28125 2.328125 -3.28125 C 2.859375 -3.28125 3 -2.65625 3 -2.609375 C 3 -2.578125 2.984375 -2.515625 2.96875 -2.46875 Z M 2.609375 -0.984375 "/>
</g>
<g id="glyph-3-2">
<path d="M 1.484375 -0.125 C 1.484375 0.390625 1.375 0.84375 0.875 1.34375 C 0.84375 1.359375 0.828125 1.375 0.828125 1.421875 C 0.828125 1.484375 0.890625 1.53125 0.953125 1.53125 C 1.046875 1.53125 1.703125 0.90625 1.703125 -0.03125 C 1.703125 -0.53125 1.515625 -0.875 1.171875 -0.875 C 0.890625 -0.875 0.734375 -0.65625 0.734375 -0.4375 C 0.734375 -0.21875 0.875 0 1.171875 0 C 1.359375 0 1.484375 -0.109375 1.484375 -0.125 Z M 1.484375 -0.125 "/>
</g>
<g id="glyph-3-3">
<path d="M 4.265625 -5.265625 C 4.28125 -5.28125 4.296875 -5.390625 4.296875 -5.390625 C 4.296875 -5.4375 4.265625 -5.515625 4.171875 -5.515625 C 4.140625 -5.515625 3.890625 -5.484375 3.71875 -5.46875 L 3.265625 -5.4375 C 3.09375 -5.421875 3.015625 -5.40625 3.015625 -5.265625 C 3.015625 -5.15625 3.125 -5.15625 3.21875 -5.15625 C 3.609375 -5.15625 3.609375 -5.109375 3.609375 -5.046875 C 3.609375 -5 3.546875 -4.734375 3.5 -4.578125 L 3.109375 -3.03125 C 3.046875 -3.15625 2.8125 -3.5 2.328125 -3.5 C 1.375 -3.5 0.34375 -2.390625 0.34375 -1.21875 C 0.34375 -0.390625 0.875 0.078125 1.484375 0.078125 C 2 0.078125 2.421875 -0.328125 2.578125 -0.484375 C 2.71875 0.0625 3.25 0.078125 3.34375 0.078125 C 3.71875 0.078125 3.890625 -0.21875 3.953125 -0.359375 C 4.125 -0.640625 4.234375 -1.109375 4.234375 -1.140625 C 4.234375 -1.1875 4.203125 -1.234375 4.109375 -1.234375 C 4.015625 -1.234375 4 -1.1875 3.9375 -0.984375 C 3.828125 -0.5625 3.6875 -0.140625 3.375 -0.140625 C 3.1875 -0.140625 3.125 -0.296875 3.125 -0.515625 C 3.125 -0.671875 3.140625 -0.75 3.171875 -0.859375 Z M 2.578125 -0.859375 C 2.171875 -0.3125 1.765625 -0.140625 1.515625 -0.140625 C 1.140625 -0.140625 0.953125 -0.46875 0.953125 -0.890625 C 0.953125 -1.265625 1.171875 -2.109375 1.34375 -2.453125 C 1.578125 -2.9375 1.96875 -3.28125 2.328125 -3.28125 C 2.84375 -3.28125 3 -2.703125 3 -2.609375 C 3 -2.578125 2.796875 -1.796875 2.75 -1.59375 C 2.65625 -1.21875 2.65625 -1.203125 2.578125 -0.859375 Z M 2.578125 -0.859375 "/>
</g>
<g id="glyph-3-4">
<path d="M 5.328125 -5.375 C 5.328125 -5.40625 5.34375 -5.453125 5.34375 -5.5 C 5.34375 -5.546875 5.296875 -5.59375 5.25 -5.59375 C 5.1875 -5.59375 5.171875 -5.578125 5.09375 -5.484375 C 5 -5.375 4.796875 -5.125 4.703125 -5.03125 C 4.390625 -5.484375 3.890625 -5.59375 3.5 -5.59375 C 2.390625 -5.59375 1.4375 -4.65625 1.4375 -3.75 C 1.4375 -3.296875 1.6875 -3.03125 1.734375 -2.96875 C 2 -2.6875 2.21875 -2.625 2.796875 -2.5 C 3.078125 -2.421875 3.09375 -2.421875 3.3125 -2.359375 C 3.546875 -2.3125 4.0625 -2.1875 4.0625 -1.53125 C 4.0625 -0.828125 3.375 -0.09375 2.546875 -0.09375 C 2.03125 -0.09375 1.078125 -0.25 1.078125 -1.234375 C 1.078125 -1.265625 1.078125 -1.421875 1.125 -1.625 L 1.140625 -1.703125 C 1.140625 -1.796875 1.046875 -1.796875 1.015625 -1.796875 C 0.90625 -1.796875 0.90625 -1.765625 0.859375 -1.59375 L 0.546875 -0.296875 C 0.515625 -0.171875 0.453125 0.046875 0.453125 0.0625 C 0.453125 0.125 0.5 0.171875 0.5625 0.171875 C 0.609375 0.171875 0.625 0.15625 0.703125 0.0625 L 1.09375 -0.390625 C 1.265625 -0.15625 1.71875 0.171875 2.53125 0.171875 C 3.671875 0.171875 4.625 -0.875 4.625 -1.828125 C 4.625 -2.1875 4.5 -2.46875 4.28125 -2.703125 C 4.046875 -2.953125 3.78125 -3.03125 3.40625 -3.125 C 3.1875 -3.171875 2.875 -3.25 2.6875 -3.296875 C 2.453125 -3.34375 2.015625 -3.515625 2.015625 -4.0625 C 2.015625 -4.6875 2.671875 -5.34375 3.484375 -5.34375 C 4.203125 -5.34375 4.6875 -4.984375 4.6875 -4.125 C 4.6875 -3.921875 4.65625 -3.765625 4.65625 -3.734375 C 4.65625 -3.640625 4.734375 -3.625 4.78125 -3.625 C 4.875 -3.625 4.890625 -3.65625 4.921875 -3.78125 Z M 5.328125 -5.375 "/>
</g>
<g id="glyph-3-5">
<path d="M 7.703125 -4.78125 C 7.78125 -5.09375 7.796875 -5.15625 8.359375 -5.15625 C 8.546875 -5.15625 8.640625 -5.15625 8.640625 -5.3125 C 8.640625 -5.421875 8.53125 -5.421875 8.390625 -5.421875 L 7.359375 -5.421875 C 7.15625 -5.421875 7.125 -5.421875 7.03125 -5.265625 L 4.03125 -0.734375 L 3.328125 -5.203125 C 3.296875 -5.40625 3.28125 -5.421875 3.046875 -5.421875 L 1.96875 -5.421875 C 1.828125 -5.421875 1.734375 -5.421875 1.734375 -5.265625 C 1.734375 -5.15625 1.828125 -5.15625 1.953125 -5.15625 C 2.21875 -5.15625 2.453125 -5.15625 2.453125 -5.03125 C 2.453125 -5 2.4375 -5 2.421875 -4.890625 L 1.40625 -0.84375 C 1.3125 -0.453125 1.109375 -0.28125 0.578125 -0.265625 C 0.53125 -0.265625 0.4375 -0.25 0.4375 -0.109375 C 0.4375 -0.0625 0.46875 0 0.5625 0 C 0.59375 0 0.765625 -0.03125 1.34375 -0.03125 C 1.96875 -0.03125 2.09375 0 2.15625 0 C 2.1875 0 2.3125 0 2.3125 -0.15625 C 2.3125 -0.25 2.21875 -0.265625 2.171875 -0.265625 C 1.875 -0.265625 1.640625 -0.3125 1.640625 -0.59375 C 1.640625 -0.640625 1.671875 -0.75 1.671875 -0.75 L 2.75 -5.0625 L 3.53125 -0.21875 C 3.546875 -0.09375 3.5625 0 3.671875 0 C 3.78125 0 3.828125 -0.09375 3.875 -0.15625 L 7.140625 -5.125 L 7.15625 -5.125 L 6.03125 -0.625 C 5.96875 -0.328125 5.9375 -0.265625 5.359375 -0.265625 C 5.203125 -0.265625 5.109375 -0.265625 5.109375 -0.109375 C 5.109375 -0.078125 5.140625 0 5.234375 0 C 5.34375 0 5.578125 -0.015625 5.6875 -0.03125 L 6.203125 -0.03125 C 6.9375 -0.03125 7.125 0 7.1875 0 C 7.234375 0 7.34375 0 7.34375 -0.15625 C 7.34375 -0.265625 7.234375 -0.265625 7.109375 -0.265625 C 7.078125 -0.265625 6.9375 -0.265625 6.796875 -0.28125 C 6.640625 -0.296875 6.625 -0.3125 6.625 -0.390625 C 6.625 -0.421875 6.640625 -0.46875 6.640625 -0.515625 Z M 7.703125 -4.78125 "/>
</g>
<g id="glyph-4-0">
<path d="M 2.40625 -4.8125 C 2.40625 -5.015625 2.40625 -5.21875 2.6875 -5.46875 C 2.734375 -5.5 2.96875 -5.703125 3.453125 -5.734375 C 3.5625 -5.734375 3.625 -5.734375 3.625 -5.84375 C 3.625 -5.953125 3.546875 -5.953125 3.421875 -5.953125 C 2.578125 -5.953125 1.8125 -5.5625 1.8125 -4.953125 L 1.8125 -2.921875 C 1.796875 -2.515625 1.390625 -2.140625 0.75 -2.09375 C 0.65625 -2.09375 0.59375 -2.09375 0.59375 -1.984375 C 0.59375 -1.875 0.65625 -1.875 0.71875 -1.875 C 1.46875 -1.828125 1.734375 -1.421875 1.78125 -1.203125 C 1.8125 -1.109375 1.8125 -1.09375 1.8125 -0.796875 L 1.8125 0.828125 C 1.8125 1.078125 1.8125 1.421875 2.3125 1.71875 C 2.65625 1.921875 3.15625 1.984375 3.421875 1.984375 C 3.546875 1.984375 3.625 1.984375 3.625 1.875 C 3.625 1.765625 3.546875 1.765625 3.484375 1.765625 C 2.75 1.71875 2.484375 1.34375 2.421875 1.09375 C 2.40625 1.015625 2.40625 1 2.40625 0.71875 L 2.40625 -0.9375 C 2.40625 -1.15625 2.40625 -1.703125 1.484375 -1.984375 C 2.078125 -2.171875 2.296875 -2.453125 2.375 -2.75 C 2.40625 -2.84375 2.40625 -2.890625 2.40625 -3.140625 Z M 2.40625 -4.8125 "/>
</g>
<g id="glyph-4-1">
<path d="M 4.609375 -1.796875 C 4.734375 -1.796875 4.90625 -1.796875 4.90625 -1.984375 C 4.90625 -2.171875 4.734375 -2.171875 4.609375 -2.171875 L 1.078125 -2.171875 C 1.171875 -3.265625 2.09375 -4.109375 3.296875 -4.109375 L 4.609375 -4.109375 C 4.734375 -4.109375 4.90625 -4.109375 4.90625 -4.296875 C 4.90625 -4.484375 4.734375 -4.484375 4.609375 -4.484375 L 3.28125 -4.484375 C 1.84375 -4.484375 0.703125 -3.359375 0.703125 -1.984375 C 0.703125 -0.59375 1.859375 0.515625 3.28125 0.515625 L 4.609375 0.515625 C 4.734375 0.515625 4.90625 0.515625 4.90625 0.328125 C 4.90625 0.140625 4.734375 0.140625 4.609375 0.140625 L 3.296875 0.140625 C 2.09375 0.140625 1.171875 -0.703125 1.078125 -1.796875 Z M 4.609375 -1.796875 "/>
</g>
<g id="glyph-4-2">
<path d="M 2.40625 -4.796875 C 2.40625 -5.03125 2.40625 -5.359375 1.984375 -5.640625 C 1.65625 -5.859375 1.125 -5.953125 0.78125 -5.953125 C 0.671875 -5.953125 0.59375 -5.953125 0.59375 -5.84375 C 0.59375 -5.734375 0.65625 -5.734375 0.71875 -5.734375 C 1.453125 -5.6875 1.734375 -5.328125 1.796875 -5.046875 C 1.8125 -4.953125 1.8125 -4.90625 1.8125 -4.796875 L 1.8125 -3.125 C 1.8125 -2.78125 1.8125 -2.265625 2.734375 -1.984375 C 2.28125 -1.84375 1.9375 -1.625 1.828125 -1.21875 C 1.8125 -1.125 1.8125 -1.078125 1.8125 -0.828125 L 1.8125 0.609375 C 1.8125 1.140625 1.8125 1.203125 1.546875 1.46875 C 1.53125 1.5 1.296875 1.71875 0.75 1.765625 C 0.640625 1.765625 0.59375 1.765625 0.59375 1.875 C 0.59375 1.984375 0.671875 1.984375 0.78125 1.984375 C 1.640625 1.984375 2.390625 1.59375 2.40625 0.984375 L 2.40625 -0.609375 C 2.40625 -1.15625 2.40625 -1.328125 2.640625 -1.5625 C 2.90625 -1.78125 3.1875 -1.84375 3.453125 -1.875 C 3.5625 -1.875 3.625 -1.875 3.625 -1.984375 C 3.625 -2.09375 3.546875 -2.09375 3.484375 -2.09375 C 2.609375 -2.15625 2.40625 -2.6875 2.40625 -2.921875 Z M 2.40625 -4.796875 "/>
</g>
<g id="glyph-5-0">
<path d="M 3.25 -2.546875 C 3.25 -2.546875 3.234375 -2.625 3.15625 -2.625 C 3.078125 -2.625 2.828125 -2.40625 2.71875 -2.21875 C 2.640625 -2.359375 2.421875 -2.625 2.03125 -2.625 C 1.25 -2.625 0.4375 -1.828125 0.4375 -0.953125 C 0.4375 -0.296875 0.90625 0.0625 1.40625 0.0625 C 1.6875 0.0625 1.96875 -0.078125 2.1875 -0.265625 C 2.1875 -0.25 2 0.5 1.96875 0.59375 C 1.90625 0.90625 1.90625 0.90625 1.515625 0.921875 C 1.421875 0.921875 1.34375 0.921875 1.34375 1.0625 C 1.34375 1.125 1.375 1.15625 1.4375 1.15625 C 1.578125 1.15625 1.9375 1.125 2.078125 1.125 C 2.1875 1.125 2.296875 1.140625 2.40625 1.140625 C 2.515625 1.140625 2.640625 1.15625 2.75 1.15625 C 2.78125 1.15625 2.875 1.15625 2.875 1 C 2.875 0.921875 2.796875 0.921875 2.703125 0.921875 C 2.5625 0.921875 2.40625 0.921875 2.40625 0.84375 C 2.40625 0.828125 2.40625 0.828125 2.4375 0.71875 Z M 2.3125 -0.78125 C 2.28125 -0.671875 2.28125 -0.65625 2.1875 -0.546875 C 1.953125 -0.28125 1.65625 -0.140625 1.421875 -0.140625 C 1.125 -0.140625 0.953125 -0.359375 0.953125 -0.71875 C 0.953125 -0.984375 1.078125 -1.578125 1.265625 -1.890625 C 1.484375 -2.265625 1.796875 -2.421875 2.03125 -2.421875 C 2.484375 -2.421875 2.59375 -1.953125 2.59375 -1.90625 L 2.578125 -1.828125 Z M 2.3125 -0.78125 "/>
</g>
<g id="glyph-6-0">
<path d="M 1.75 -3.375 C 1.75 -3.640625 1.53125 -3.859375 1.265625 -3.859375 C 1 -3.859375 0.78125 -3.640625 0.78125 -3.375 C 0.78125 -3.109375 1 -2.890625 1.265625 -2.890625 C 1.53125 -2.890625 1.75 -3.109375 1.75 -3.375 Z M 1.75 -0.484375 C 1.75 -0.734375 1.53125 -0.96875 1.265625 -0.96875 C 1 -0.96875 0.78125 -0.734375 0.78125 -0.484375 C 0.78125 -0.21875 1 0 1.265625 0 C 1.53125 0 1.75 -0.21875 1.75 -0.484375 Z M 1.75 -0.484375 "/>
</g>
<g id="glyph-6-1">
<path d="M 2.6875 -3.578125 L 2.6875 -3.859375 L 1.625 -3.859375 L 1.625 -4.859375 C 1.625 -5.671875 2.0625 -6.078125 2.4375 -6.078125 C 2.53125 -6.078125 2.625 -6.0625 2.703125 -6.03125 C 2.625 -5.984375 2.46875 -5.875 2.46875 -5.65625 C 2.46875 -5.421875 2.640625 -5.265625 2.875 -5.265625 C 3.109375 -5.265625 3.265625 -5.4375 3.265625 -5.671875 C 3.265625 -6 2.9375 -6.296875 2.4375 -6.296875 C 1.75 -6.296875 1.015625 -5.78125 1.015625 -4.875 L 1.015625 -3.859375 L 0.296875 -3.859375 L 0.296875 -3.578125 L 1.015625 -3.578125 L 1.015625 -0.6875 C 1.015625 -0.28125 0.90625 -0.28125 0.328125 -0.28125 L 0.328125 0 C 0.796875 -0.015625 0.90625 -0.03125 1.375 -0.03125 C 1.71875 -0.03125 1.9375 -0.015625 2.5 0 L 2.5 -0.28125 L 2.328125 -0.28125 C 1.671875 -0.28125 1.640625 -0.375 1.640625 -0.703125 L 1.640625 -3.578125 Z M 2.6875 -3.578125 "/>
</g>
<g id="glyph-6-2">
<path d="M 4.328125 -1.90625 C 4.328125 -3.078125 3.390625 -4 2.296875 -4 C 1.15625 -4 0.265625 -3.046875 0.265625 -1.90625 C 0.265625 -0.78125 1.1875 0.09375 2.28125 0.09375 C 3.421875 0.09375 4.328125 -0.796875 4.328125 -1.90625 Z M 2.296875 -0.15625 C 1.84375 -0.15625 1.46875 -0.375 1.265625 -0.71875 C 1.03125 -1.09375 1.03125 -1.578125 1.03125 -1.984375 C 1.03125 -2.3125 1.03125 -2.828125 1.25 -3.1875 C 1.515625 -3.640625 1.96875 -3.78125 2.28125 -3.78125 C 2.796875 -3.78125 3.15625 -3.5 3.34375 -3.1875 C 3.546875 -2.8125 3.5625 -2.359375 3.5625 -1.984375 C 3.5625 -1.65625 3.5625 -1.140625 3.328125 -0.734375 C 3.078125 -0.328125 2.671875 -0.15625 2.296875 -0.15625 Z M 2.296875 -0.15625 "/>
</g>
<g id="glyph-6-3">
<path d="M 1.59375 -2.046875 C 1.59375 -2.40625 1.6875 -3.734375 2.703125 -3.734375 L 2.703125 -3.71875 C 2.6875 -3.703125 2.546875 -3.609375 2.546875 -3.390625 C 2.546875 -3.140625 2.734375 -3 2.9375 -3 C 3.125 -3 3.328125 -3.125 3.328125 -3.390625 C 3.328125 -3.6875 3.0625 -3.953125 2.65625 -3.953125 C 2.125 -3.953125 1.75 -3.578125 1.546875 -3.015625 L 1.53125 -3.015625 L 1.53125 -3.953125 L 0.265625 -3.859375 L 0.265625 -3.578125 C 0.875 -3.578125 0.953125 -3.515625 0.953125 -3.078125 L 0.953125 -0.6875 C 0.953125 -0.28125 0.859375 -0.28125 0.265625 -0.28125 L 0.265625 0 C 0.734375 -0.015625 0.859375 -0.03125 1.3125 -0.03125 C 1.671875 -0.03125 1.890625 -0.015625 2.453125 0 L 2.453125 -0.28125 L 2.265625 -0.28125 C 1.625 -0.28125 1.59375 -0.375 1.59375 -0.703125 Z M 1.59375 -2.046875 "/>
</g>
<g id="glyph-6-4">
<path d="M 3.046875 2.125 C 3.046875 2.078125 3.015625 2.0625 2.96875 2 C 1.8125 0.9375 1.46875 -0.671875 1.46875 -2.234375 C 1.46875 -3.625 1.734375 -5.296875 3 -6.5 C 3.03125 -6.53125 3.046875 -6.5625 3.046875 -6.609375 C 3.046875 -6.671875 3 -6.703125 2.9375 -6.703125 C 2.828125 -6.703125 2.03125 -6.0625 1.546875 -5.078125 C 1.125 -4.234375 0.90625 -3.3125 0.90625 -2.25 C 0.90625 -1.59375 0.984375 -0.578125 1.46875 0.46875 C 2 1.578125 2.828125 2.21875 2.9375 2.21875 C 3 2.21875 3.046875 2.1875 3.046875 2.125 Z M 3.046875 2.125 "/>
</g>
<g id="glyph-6-5">
<path d="M 2.65625 -2.25 C 2.65625 -2.96875 2.5625 -3.953125 2.09375 -4.953125 C 1.5625 -6.046875 0.734375 -6.703125 0.625 -6.703125 C 0.53125 -6.703125 0.515625 -6.625 0.515625 -6.609375 C 0.515625 -6.5625 0.53125 -6.53125 0.59375 -6.46875 C 1.125 -6 2.09375 -4.796875 2.09375 -2.25 C 2.09375 -0.96875 1.875 0.8125 0.578125 2.015625 C 0.546875 2.046875 0.515625 2.078125 0.515625 2.125 C 0.515625 2.15625 0.53125 2.21875 0.625 2.21875 C 0.734375 2.21875 1.53125 1.578125 2.015625 0.609375 C 2.453125 -0.25 2.65625 -1.171875 2.65625 -2.25 Z M 2.65625 -2.25 "/>
</g>
<g id="glyph-6-6">
<path d="M 6.328125 -2.953125 C 6.453125 -2.953125 6.625 -2.953125 6.625 -3.140625 C 6.625 -3.34375 6.421875 -3.34375 6.296875 -3.34375 L 0.84375 -3.34375 C 0.703125 -3.34375 0.515625 -3.34375 0.515625 -3.140625 C 0.515625 -2.953125 0.6875 -2.953125 0.796875 -2.953125 Z M 6.296875 -1.140625 C 6.421875 -1.140625 6.625 -1.140625 6.625 -1.328125 C 6.625 -1.515625 6.453125 -1.515625 6.328125 -1.515625 L 0.796875 -1.515625 C 0.6875 -1.515625 0.515625 -1.515625 0.515625 -1.328125 C 0.515625 -1.140625 0.703125 -1.140625 0.84375 -1.140625 Z M 6.296875 -1.140625 "/>
</g>
<g id="glyph-6-7">
<path d="M 5.40625 -5.515625 C 5.125 -5.796875 4.609375 -6.296875 3.703125 -6.296875 C 1.96875 -6.296875 0.515625 -4.859375 0.515625 -3.0625 C 0.515625 -1.21875 2 0.203125 3.703125 0.203125 C 5.1875 0.203125 6.109375 -1.03125 6.109375 -2.078125 C 6.109375 -2.15625 6.109375 -2.25 5.984375 -2.25 C 5.875 -2.25 5.875 -2.1875 5.859375 -2.09375 C 5.796875 -0.734375 4.71875 -0.078125 3.796875 -0.078125 C 3.03125 -0.078125 1.421875 -0.546875 1.421875 -3.0625 C 1.421875 -5.546875 3.046875 -6.03125 3.796875 -6.03125 C 4.671875 -6.03125 5.609375 -5.359375 5.828125 -3.90625 C 5.84375 -3.796875 5.859375 -3.75 5.96875 -3.75 C 6.109375 -3.75 6.109375 -3.796875 6.109375 -3.984375 L 6.109375 -6.0625 C 6.109375 -6.21875 6.109375 -6.296875 6 -6.296875 C 5.9375 -6.296875 5.921875 -6.28125 5.859375 -6.1875 Z M 5.40625 -5.515625 "/>
</g>
<g id="glyph-6-8">
<path d="M 1.640625 -3.953125 L 0.359375 -3.859375 L 0.359375 -3.578125 C 0.921875 -3.578125 1.015625 -3.515625 1.015625 -3.078125 L 1.015625 -0.6875 C 1.015625 -0.28125 0.90625 -0.28125 0.328125 -0.28125 L 0.328125 0 C 0.71875 -0.015625 0.90625 -0.03125 1.3125 -0.03125 C 1.453125 -0.03125 1.828125 -0.03125 2.265625 0 L 2.265625 -0.28125 C 1.6875 -0.28125 1.640625 -0.328125 1.640625 -0.671875 Z M 1.671875 -5.5 C 1.671875 -5.78125 1.453125 -5.984375 1.1875 -5.984375 C 0.90625 -5.984375 0.703125 -5.765625 0.703125 -5.5 C 0.703125 -5.25 0.90625 -5.015625 1.1875 -5.015625 C 1.453125 -5.015625 1.671875 -5.234375 1.671875 -5.5 Z M 1.671875 -5.5 "/>
</g>
<g id="glyph-6-9">
<path d="M 2.90625 -3.578125 L 2.90625 -3.859375 L 1.609375 -3.859375 L 1.609375 -5.5 L 1.359375 -5.5 C 1.34375 -4.75 1.03125 -3.828125 0.171875 -3.796875 L 0.171875 -3.578125 L 0.953125 -3.578125 L 0.953125 -1.109375 C 0.953125 -0.109375 1.671875 0.09375 2.140625 0.09375 C 2.75 0.09375 3.0625 -0.46875 3.0625 -1.109375 L 3.0625 -1.625 L 2.8125 -1.625 L 2.8125 -1.140625 C 2.8125 -0.46875 2.53125 -0.15625 2.203125 -0.15625 C 1.609375 -0.15625 1.609375 -0.9375 1.609375 -1.09375 L 1.609375 -3.578125 Z M 2.90625 -3.578125 "/>
</g>
<g id="glyph-6-10">
<path d="M 3.25 -3.515625 C 3.0625 -3.484375 2.890625 -3.359375 2.890625 -3.09375 C 2.890625 -2.859375 3.0625 -2.6875 3.296875 -2.6875 C 3.53125 -2.6875 3.71875 -2.828125 3.71875 -3.109375 C 3.71875 -3.671875 3.09375 -4 2.3125 -4 C 1.15625 -4 0.296875 -3.046875 0.296875 -1.9375 C 0.296875 -0.78125 1.234375 0.09375 2.28125 0.09375 C 3.53125 0.09375 3.8125 -0.984375 3.8125 -1.0625 C 3.8125 -1.171875 3.71875 -1.171875 3.6875 -1.171875 C 3.59375 -1.171875 3.59375 -1.15625 3.546875 -1 C 3.328125 -0.390625 2.828125 -0.15625 2.375 -0.15625 C 1.8125 -0.15625 1.078125 -0.609375 1.078125 -1.9375 C 1.078125 -3.328125 1.78125 -3.75 2.328125 -3.75 C 2.4375 -3.75 2.921875 -3.734375 3.25 -3.515625 Z M 3.25 -3.515625 "/>
</g>
<g id="glyph-6-11">
<path d="M 3.0625 -0.640625 C 3.09375 -0.265625 3.359375 0.046875 3.75 0.046875 C 3.96875 0.046875 4.53125 -0.078125 4.53125 -0.796875 L 4.53125 -1.296875 L 4.28125 -1.296875 L 4.28125 -0.796875 C 4.28125 -0.703125 4.28125 -0.265625 3.953125 -0.265625 C 3.640625 -0.265625 3.640625 -0.6875 3.640625 -0.828125 L 3.640625 -2.390625 C 3.640625 -2.90625 3.640625 -3.203125 3.234375 -3.578125 C 2.90625 -3.875 2.46875 -4 2.03125 -4 C 1.28125 -4 0.65625 -3.625 0.65625 -3.0625 C 0.65625 -2.78125 0.84375 -2.625 1.078125 -2.625 C 1.3125 -2.625 1.484375 -2.8125 1.484375 -3.03125 C 1.484375 -3.421875 1.09375 -3.46875 1.078125 -3.46875 C 1.328125 -3.703125 1.75 -3.78125 2.015625 -3.78125 C 2.46875 -3.78125 2.96875 -3.4375 2.96875 -2.65625 L 2.96875 -2.359375 C 2.5 -2.34375 1.828125 -2.296875 1.21875 -2.015625 C 0.578125 -1.703125 0.390625 -1.234375 0.390625 -0.875 C 0.390625 -0.140625 1.25 0.09375 1.84375 0.09375 C 2.59375 0.09375 2.9375 -0.390625 3.0625 -0.640625 Z M 2.96875 -1.265625 C 2.96875 -0.390625 2.3125 -0.125 1.90625 -0.125 C 1.5 -0.125 1.09375 -0.421875 1.09375 -0.875 C 1.09375 -1.46875 1.609375 -2.09375 2.96875 -2.140625 Z M 2.96875 -1.265625 "/>
</g>
<g id="glyph-6-12">
<path d="M 1.640625 -6.203125 L 0.328125 -6.109375 L 0.328125 -5.828125 C 0.921875 -5.828125 1.015625 -5.765625 1.015625 -5.328125 L 1.015625 -0.6875 C 1.015625 -0.28125 0.90625 -0.28125 0.328125 -0.28125 L 0.328125 0 C 0.734375 -0.015625 0.90625 -0.03125 1.328125 -0.03125 C 1.75 -0.03125 1.890625 -0.015625 2.328125 0 L 2.328125 -0.28125 C 1.75 -0.28125 1.640625 -0.28125 1.640625 -0.6875 Z M 1.640625 -6.203125 "/>
</g>
<g id="glyph-6-13">
<path d="M 1.625 -3 C 1.921875 -3.515625 2.40625 -3.703125 2.78125 -3.703125 C 3.484375 -3.703125 4.015625 -2.890625 4.015625 -1.9375 C 4.015625 -0.90625 3.421875 -0.125 2.6875 -0.125 C 2.28125 -0.125 1.953125 -0.359375 1.734375 -0.671875 C 1.625 -0.84375 1.625 -0.859375 1.625 -1.03125 Z M 1.625 -0.421875 C 1.84375 -0.203125 2.15625 0.09375 2.75 0.09375 C 3.8125 0.09375 4.796875 -0.765625 4.796875 -1.9375 C 4.796875 -3.0625 3.921875 -3.953125 2.859375 -3.953125 C 2.375 -3.953125 1.9375 -3.75 1.59375 -3.390625 L 1.59375 -3.953125 L 0.265625 -3.859375 L 0.265625 -3.578125 C 0.90625 -3.578125 0.953125 -3.515625 0.953125 -3.140625 L 0.953125 1.046875 C 0.953125 1.453125 0.859375 1.453125 0.265625 1.453125 L 0.265625 1.734375 C 0.6875 1.71875 0.859375 1.703125 1.28125 1.703125 C 1.71875 1.703125 1.828125 1.71875 2.3125 1.734375 L 2.3125 1.453125 C 1.71875 1.453125 1.625 1.453125 1.625 1.046875 Z M 1.625 -0.421875 "/>
</g>
<g id="glyph-6-14">
<path d="M 1.65625 -2.3125 C 1.65625 -3.265625 2.328125 -3.734375 2.890625 -3.734375 C 3.421875 -3.734375 3.546875 -3.28125 3.546875 -2.75 L 3.546875 -0.6875 C 3.546875 -0.28125 3.4375 -0.28125 2.84375 -0.28125 L 2.84375 0 C 3.265625 -0.015625 3.4375 -0.03125 3.875 -0.03125 C 4.296875 -0.03125 4.421875 -0.015625 4.890625 0 L 4.890625 -0.28125 C 4.4375 -0.28125 4.203125 -0.28125 4.203125 -0.546875 L 4.203125 -2.265625 C 4.203125 -3.015625 4.203125 -3.265625 3.953125 -3.578125 C 3.75 -3.828125 3.40625 -3.953125 2.953125 -3.953125 C 2.125 -3.953125 1.75 -3.328125 1.625 -3.078125 L 1.609375 -3.078125 L 1.609375 -3.953125 L 0.3125 -3.859375 L 0.3125 -3.578125 C 0.921875 -3.578125 1 -3.515625 1 -3.078125 L 1 -0.6875 C 1 -0.28125 0.90625 -0.28125 0.3125 -0.28125 L 0.3125 0 C 0.734375 -0.015625 0.90625 -0.03125 1.328125 -0.03125 C 1.765625 -0.03125 1.875 -0.015625 2.34375 0 L 2.34375 -0.28125 C 1.765625 -0.28125 1.65625 -0.28125 1.65625 -0.6875 Z M 1.65625 -2.3125 "/>
</g>
<g id="glyph-6-15">
<path d="M 3.078125 -3.765625 C 3.078125 -3.921875 3.078125 -4 2.96875 -4 C 2.921875 -4 2.90625 -4 2.78125 -3.890625 C 2.765625 -3.875 2.6875 -3.796875 2.640625 -3.75 C 2.359375 -3.953125 2.078125 -4 1.78125 -4 C 0.59375 -4 0.296875 -3.359375 0.296875 -2.890625 C 0.296875 -2.609375 0.421875 -2.375 0.640625 -2.1875 C 0.9375 -1.90625 1.28125 -1.84375 1.734375 -1.765625 C 2.1875 -1.671875 2.34375 -1.640625 2.53125 -1.5 C 2.625 -1.421875 2.84375 -1.25 2.84375 -0.90625 C 2.84375 -0.125 1.953125 -0.125 1.828125 -0.125 C 0.90625 -0.125 0.671875 -0.890625 0.578125 -1.375 C 0.546875 -1.453125 0.53125 -1.515625 0.421875 -1.515625 C 0.296875 -1.515625 0.296875 -1.4375 0.296875 -1.28125 L 0.296875 -0.140625 C 0.296875 0.015625 0.296875 0.09375 0.40625 0.09375 C 0.46875 0.09375 0.46875 0.09375 0.640625 -0.078125 C 0.671875 -0.140625 0.765625 -0.25 0.8125 -0.296875 C 1.1875 0.078125 1.59375 0.09375 1.828125 0.09375 C 2.921875 0.09375 3.3125 -0.546875 3.3125 -1.140625 C 3.3125 -1.546875 3.125 -1.78125 2.9375 -2 C 2.625 -2.28125 2.3125 -2.34375 1.640625 -2.46875 C 1.40625 -2.515625 0.765625 -2.640625 0.765625 -3.140625 C 0.765625 -3.4375 0.96875 -3.8125 1.78125 -3.8125 C 2.75 -3.8125 2.8125 -3.0625 2.828125 -2.84375 C 2.828125 -2.734375 2.828125 -2.6875 2.953125 -2.6875 C 3.078125 -2.6875 3.078125 -2.75 3.078125 -2.90625 Z M 3.078125 -3.765625 "/>
</g>
<g id="glyph-6-16">
<path d="M 3.578125 -2.046875 C 3.765625 -2.046875 3.8125 -2.046875 3.8125 -2.234375 C 3.8125 -3.15625 3.3125 -4 2.171875 -4 C 1.09375 -4 0.265625 -3.078125 0.265625 -1.96875 C 0.265625 -0.796875 1.203125 0.09375 2.28125 0.09375 C 3.375 0.09375 3.8125 -0.859375 3.8125 -1.0625 C 3.8125 -1.125 3.765625 -1.1875 3.6875 -1.1875 C 3.609375 -1.1875 3.578125 -1.125 3.5625 -1.078125 C 3.265625 -0.171875 2.46875 -0.15625 2.328125 -0.15625 C 1.90625 -0.15625 1.53125 -0.390625 1.328125 -0.703125 C 1.03125 -1.140625 1.03125 -1.671875 1.03125 -2.046875 Z M 1.03125 -2.265625 C 1.125 -3.640625 1.921875 -3.78125 2.171875 -3.78125 C 2.65625 -3.78125 3.203125 -3.40625 3.203125 -2.265625 Z M 1.03125 -2.265625 "/>
</g>
<g id="glyph-6-17">
<path d="M 3.578125 -3.5625 C 3.671875 -3.671875 3.671875 -3.6875 3.671875 -3.71875 C 3.671875 -3.859375 3.578125 -3.859375 3.421875 -3.859375 L 0.484375 -3.859375 L 0.390625 -2.390625 L 0.640625 -2.390625 C 0.6875 -3.296875 0.84375 -3.625 1.859375 -3.625 L 2.859375 -3.625 L 0.34375 -0.296875 C 0.265625 -0.203125 0.265625 -0.1875 0.265625 -0.140625 C 0.265625 0 0.34375 0 0.5 0 L 3.546875 0 L 3.6875 -1.703125 L 3.4375 -1.703125 C 3.359375 -0.703125 3.234375 -0.25 2.125 -0.25 L 1.078125 -0.25 Z M 3.578125 -3.5625 "/>
</g>
<g id="glyph-6-18">
<path d="M 2.96875 -3.875 C 2.828125 -3.875 2.828125 -3.859375 2.8125 -3.859375 C 2.796875 -3.859375 2.78125 -3.859375 2.65625 -3.859375 L 1.5625 -3.859375 L 1.5625 -4.828125 C 1.5625 -5.765625 2.40625 -6.078125 2.90625 -6.078125 C 3.125 -6.078125 3.453125 -6.03125 3.6875 -5.8125 C 3.328125 -5.78125 3.28125 -5.5 3.28125 -5.390625 C 3.28125 -5.125 3.5 -4.96875 3.703125 -4.96875 C 3.9375 -4.96875 4.125 -5.140625 4.125 -5.390625 C 4.125 -5.90625 3.640625 -6.296875 2.921875 -6.296875 C 2.03125 -6.296875 0.953125 -5.8125 0.953125 -4.859375 L 0.953125 -3.859375 L 0.25 -3.859375 L 0.25 -3.578125 L 0.953125 -3.578125 L 0.953125 -0.6875 C 0.953125 -0.28125 0.859375 -0.28125 0.265625 -0.28125 L 0.265625 0 C 0.6875 -0.015625 0.859375 -0.03125 1.265625 -0.03125 C 1.6875 -0.03125 1.84375 -0.015625 2.28125 0 L 2.28125 -0.28125 C 1.6875 -0.28125 1.59375 -0.28125 1.59375 -0.6875 L 1.59375 -3.578125 L 3.03125 -3.578125 C 3.453125 -3.578125 3.5 -3.453125 3.5 -3.09375 L 3.5 -0.6875 C 3.5 -0.28125 3.40625 -0.28125 2.8125 -0.28125 L 2.8125 0 C 3.234375 -0.015625 3.40625 -0.03125 3.8125 -0.03125 C 4.234375 -0.03125 4.390625 -0.015625 4.828125 0 L 4.828125 -0.28125 C 4.234375 -0.28125 4.140625 -0.28125 4.140625 -0.6875 L 4.140625 -3.953125 Z M 2.96875 -3.875 "/>
</g>
<g id="glyph-6-19">
<path d="M 2.71875 -2.015625 C 2.65625 -2.09375 2.65625 -2.09375 2.65625 -2.109375 C 2.65625 -2.125 3.359375 -2.96875 3.4375 -3.046875 C 3.703125 -3.359375 4.015625 -3.5625 4.5625 -3.578125 L 4.5625 -3.859375 C 4.296875 -3.828125 4.0625 -3.828125 3.796875 -3.828125 C 3.453125 -3.828125 3.296875 -3.828125 2.9375 -3.859375 L 2.9375 -3.578125 C 3.078125 -3.5625 3.1875 -3.484375 3.1875 -3.3125 C 3.1875 -3.15625 3.109375 -3.0625 3.0625 -3.015625 L 2.5 -2.3125 L 1.796875 -3.1875 C 1.734375 -3.265625 1.71875 -3.28125 1.71875 -3.359375 C 1.71875 -3.453125 1.8125 -3.5625 2.015625 -3.578125 L 2.015625 -3.859375 C 1.6875 -3.828125 1.453125 -3.828125 1.046875 -3.828125 C 1.03125 -3.828125 0.515625 -3.828125 0.171875 -3.859375 L 0.171875 -3.578125 C 0.78125 -3.578125 0.796875 -3.5625 1.21875 -3.03125 L 2.140625 -1.875 C 1.9375 -1.640625 1.46875 -1.046875 1.265625 -0.828125 C 0.828125 -0.296875 0.3125 -0.28125 0.125 -0.28125 L 0.125 0 C 0.390625 -0.03125 0.625 -0.03125 0.890625 -0.03125 C 1.171875 -0.03125 1.453125 -0.015625 1.75 0 L 1.75 -0.28125 C 1.515625 -0.296875 1.5 -0.453125 1.5 -0.546875 C 1.5 -0.578125 1.5 -0.703125 1.625 -0.859375 C 1.84375 -1.140625 2.078125 -1.40625 2.296875 -1.671875 L 3 -0.765625 C 3.171875 -0.578125 3.171875 -0.546875 3.171875 -0.5 C 3.171875 -0.40625 3.078125 -0.28125 2.875 -0.28125 L 2.875 0 C 3.25 -0.015625 3.453125 -0.03125 3.84375 -0.03125 C 3.859375 -0.03125 4.375 -0.03125 4.71875 0 L 4.71875 -0.28125 C 4.359375 -0.28125 4.09375 -0.28125 3.890625 -0.53125 Z M 2.71875 -2.015625 "/>
</g>
<g id="glyph-6-20">
<path d="M 3.484375 -1.078125 C 3.484375 -0.90625 3.484375 -0.890625 3.34375 -0.703125 C 3.0625 -0.296875 2.65625 -0.125 2.296875 -0.125 C 1.90625 -0.125 1.5625 -0.34375 1.328125 -0.71875 C 1.09375 -1.09375 1.078125 -1.625 1.078125 -1.90625 C 1.078125 -2.328125 1.125 -2.8125 1.359375 -3.15625 C 1.5625 -3.453125 1.921875 -3.734375 2.390625 -3.734375 C 2.765625 -3.734375 3.125 -3.546875 3.375 -3.203125 C 3.484375 -3.0625 3.484375 -3.046875 3.484375 -2.875 Z M 3.5 -3.421875 C 3.453125 -3.484375 3.0625 -3.953125 2.359375 -3.953125 C 1.265625 -3.953125 0.296875 -3.078125 0.296875 -1.921875 C 0.296875 -0.796875 1.203125 0.09375 2.265625 0.09375 C 2.90625 0.09375 3.3125 -0.28125 3.484375 -0.46875 L 3.484375 0.09375 L 4.828125 0 L 4.828125 -0.28125 C 4.21875 -0.28125 4.140625 -0.34375 4.140625 -0.78125 L 4.140625 -6.203125 L 2.8125 -6.109375 L 2.8125 -5.828125 C 3.421875 -5.828125 3.5 -5.765625 3.5 -5.328125 Z M 3.5 -3.421875 "/>
</g>
<g id="glyph-7-0">
<path d="M 7.609375 -2.046875 C 6.546875 -1.28125 6.328125 -0.109375 6.328125 -0.015625 C 6.328125 0.109375 6.4375 0.109375 6.515625 0.109375 C 6.625 0.109375 6.6875 0.109375 6.71875 -0.015625 C 6.953125 -1.0625 7.5625 -1.765625 8.546875 -2.125 C 8.59375 -2.140625 8.671875 -2.15625 8.671875 -2.234375 C 8.671875 -2.3125 8.609375 -2.34375 8.546875 -2.359375 C 7.421875 -2.78125 6.921875 -3.578125 6.71875 -4.453125 C 6.6875 -4.578125 6.65625 -4.578125 6.515625 -4.578125 C 6.4375 -4.578125 6.328125 -4.578125 6.328125 -4.453125 C 6.328125 -4.359375 6.546875 -3.1875 7.609375 -2.4375 L 0.84375 -2.4375 C 0.6875 -2.4375 0.515625 -2.4375 0.515625 -2.25 C 0.515625 -2.046875 0.671875 -2.046875 0.84375 -2.046875 Z M 7.609375 -2.046875 "/>
</g>
<g id="glyph-7-1">
<path d="M 5.65625 -4.0625 C 5.75 -4.15625 5.78125 -4.203125 5.78125 -4.265625 C 5.78125 -4.375 5.6875 -4.453125 5.59375 -4.453125 C 5.515625 -4.453125 5.515625 -4.4375 5.40625 -4.34375 L 3.5625 -2.515625 L 1.640625 -4.421875 C 1.59375 -4.453125 1.5625 -4.453125 1.546875 -4.453125 C 1.4375 -4.453125 1.34375 -4.375 1.34375 -4.265625 C 1.34375 -4.1875 1.390625 -4.15625 1.484375 -4.0625 L 3.296875 -2.25 L 1.484375 -0.421875 C 1.359375 -0.296875 1.34375 -0.265625 1.34375 -0.21875 C 1.34375 -0.109375 1.4375 -0.015625 1.546875 -0.015625 C 1.5625 -0.015625 1.59375 -0.015625 1.640625 -0.046875 L 3.5625 -1.96875 L 5.4375 -0.109375 C 5.484375 -0.046875 5.515625 -0.015625 5.59375 -0.015625 C 5.6875 -0.015625 5.78125 -0.09375 5.78125 -0.21875 C 5.78125 -0.25 5.765625 -0.296875 5.734375 -0.328125 C 5.71875 -0.359375 4.140625 -1.9375 3.828125 -2.234375 Z M 5.65625 -4.0625 "/>
</g>
<g id="glyph-7-2">
<path d="M 6.03125 -2.046875 C 6.1875 -2.046875 6.359375 -2.046875 6.359375 -2.25 C 6.359375 -2.4375 6.1875 -2.4375 6.03125 -2.4375 L 1.09375 -2.4375 C 0.953125 -2.4375 0.765625 -2.4375 0.765625 -2.25 C 0.765625 -2.046875 0.9375 -2.046875 1.09375 -2.046875 Z M 6.03125 -2.046875 "/>
</g>
<g id="glyph-7-3">
<path d="M 1.578125 -2.4375 C 2.640625 -3.1875 2.84375 -4.359375 2.84375 -4.453125 C 2.84375 -4.578125 2.734375 -4.578125 2.65625 -4.578125 C 2.5625 -4.578125 2.5 -4.578125 2.46875 -4.46875 C 2.21875 -3.421875 1.609375 -2.71875 0.640625 -2.359375 C 0.578125 -2.34375 0.515625 -2.3125 0.515625 -2.25 C 0.515625 -2.15625 0.578125 -2.140625 0.625 -2.125 C 1.75 -1.703125 2.265625 -0.90625 2.46875 -0.03125 C 2.5 0.09375 2.53125 0.109375 2.65625 0.109375 C 2.75 0.109375 2.84375 0.109375 2.84375 -0.015625 C 2.84375 -0.109375 2.640625 -1.296875 1.578125 -2.046875 L 7.609375 -2.046875 C 6.546875 -1.28125 6.328125 -0.109375 6.328125 -0.015625 C 6.328125 0.109375 6.4375 0.109375 6.515625 0.109375 C 6.625 0.109375 6.6875 0.109375 6.71875 -0.015625 C 6.953125 -1.0625 7.5625 -1.765625 8.546875 -2.125 C 8.59375 -2.140625 8.671875 -2.15625 8.671875 -2.234375 C 8.671875 -2.3125 8.609375 -2.34375 8.546875 -2.359375 C 7.421875 -2.78125 6.921875 -3.578125 6.71875 -4.453125 C 6.6875 -4.578125 6.65625 -4.578125 6.515625 -4.578125 C 6.4375 -4.578125 6.328125 -4.578125 6.328125 -4.453125 C 6.328125 -4.359375 6.546875 -3.1875 7.609375 -2.4375 Z M 1.578125 -2.4375 "/>
</g>
<g id="glyph-7-4">
<path d="M 5.609375 -3.390625 C 5.609375 -4.765625 4.21875 -5.359375 3.0625 -5.359375 C 1.890625 -5.359375 0.515625 -4.765625 0.515625 -3.390625 L 0.515625 -0.140625 C 0.515625 0.015625 0.515625 0.203125 0.703125 0.203125 C 0.890625 0.203125 0.890625 0.03125 0.890625 -0.140625 L 0.890625 -3.375 C 0.890625 -4.671875 2.34375 -4.984375 3.0625 -4.984375 C 3.75 -4.984375 5.21875 -4.6875 5.21875 -3.375 L 5.21875 -0.140625 C 5.21875 0.015625 5.21875 0.203125 5.40625 0.203125 C 5.609375 0.203125 5.609375 0.03125 5.609375 -0.140625 Z M 5.609375 -3.390625 "/>
</g>
<g id="glyph-8-0">
<path d="M 2.390625 -2.8125 L 2.71875 -2.8125 L 4.0625 -0.734375 C 4.140625 -0.59375 4.359375 -0.234375 4.453125 -0.109375 C 4.515625 0 4.546875 0 4.75 0 L 5.984375 0 C 6.15625 0 6.28125 0 6.28125 -0.15625 C 6.28125 -0.234375 6.234375 -0.296875 6.15625 -0.3125 C 5.8125 -0.390625 5.375 -0.96875 5.171875 -1.265625 C 5.109375 -1.34375 4.65625 -1.9375 4.0625 -2.90625 C 4.859375 -3.046875 5.625 -3.390625 5.625 -4.453125 C 5.625 -5.6875 4.3125 -6.125 3.25 -6.125 L 0.453125 -6.125 C 0.28125 -6.125 0.140625 -6.125 0.140625 -5.96875 C 0.140625 -5.8125 0.3125 -5.8125 0.390625 -5.8125 C 0.890625 -5.8125 0.9375 -5.75 0.9375 -5.296875 L 0.9375 -0.828125 C 0.9375 -0.375 0.890625 -0.3125 0.390625 -0.3125 C 0.3125 -0.3125 0.140625 -0.3125 0.140625 -0.15625 C 0.140625 0 0.28125 0 0.453125 0 L 2.890625 0 C 3.0625 0 3.1875 0 3.1875 -0.15625 C 3.1875 -0.3125 3.03125 -0.3125 2.9375 -0.3125 C 2.4375 -0.3125 2.390625 -0.390625 2.390625 -0.828125 Z M 4.125 -3.25 C 4.375 -3.578125 4.390625 -4.046875 4.390625 -4.4375 C 4.390625 -4.875 4.34375 -5.34375 4.0625 -5.71875 C 4.421875 -5.625 5.3125 -5.359375 5.3125 -4.453125 C 5.3125 -3.875 5.046875 -3.421875 4.125 -3.25 Z M 2.390625 -5.328125 C 2.390625 -5.515625 2.390625 -5.8125 2.953125 -5.8125 C 3.703125 -5.8125 4.078125 -5.5 4.078125 -4.4375 C 4.078125 -3.28125 3.8125 -3.125 2.390625 -3.125 Z M 1.1875 -0.3125 C 1.25 -0.46875 1.25 -0.71875 1.25 -0.796875 L 1.25 -5.3125 C 1.25 -5.40625 1.25 -5.65625 1.1875 -5.8125 L 2.203125 -5.8125 C 2.078125 -5.671875 2.078125 -5.484375 2.078125 -5.359375 L 2.078125 -0.796875 C 2.078125 -0.71875 2.078125 -0.46875 2.15625 -0.3125 Z M 3.078125 -2.8125 C 3.140625 -2.8125 3.1875 -2.828125 3.25 -2.828125 C 3.390625 -2.828125 3.578125 -2.84375 3.71875 -2.859375 C 3.859375 -2.640625 4.8125 -1.046875 5.5625 -0.3125 L 4.6875 -0.3125 Z M 3.078125 -2.8125 "/>
</g>
<g id="glyph-9-0">
<path d="M 6.765625 -6.03125 L 0.578125 -6.03125 L 0.390625 -3.859375 L 0.84375 -3.859375 C 0.921875 -4.84375 1.015625 -5.59375 2.328125 -5.59375 L 3.03125 -5.59375 L 3.03125 -0.4375 L 1.65625 -0.4375 L 1.65625 0 C 2.0625 -0.03125 3.21875 -0.03125 3.6875 -0.03125 C 4.140625 -0.03125 5.296875 -0.03125 5.6875 0 L 5.6875 -0.4375 L 4.328125 -0.4375 L 4.328125 -5.59375 L 5.03125 -5.59375 C 6.34375 -5.59375 6.421875 -4.828125 6.5 -3.859375 L 6.96875 -3.859375 Z M 6.765625 -6.03125 "/>
</g>
<g id="glyph-9-1">
<path d="M 4.671875 -3.328125 C 4.734375 -3.46875 4.765625 -3.53125 5.328125 -3.53125 L 5.328125 -3.96875 C 5.078125 -3.9375 4.859375 -3.9375 4.609375 -3.9375 C 4.328125 -3.9375 4.0625 -3.953125 3.796875 -3.96875 L 3.796875 -3.53125 C 3.8125 -3.53125 4.1875 -3.53125 4.1875 -3.421875 C 4.1875 -3.421875 4.1875 -3.40625 4.140625 -3.3125 L 3.078125 -1.140625 L 1.921875 -3.53125 L 2.375 -3.53125 L 2.375 -3.96875 C 1.890625 -3.953125 1.5625 -3.9375 1.28125 -3.9375 C 0.953125 -3.9375 0.78125 -3.9375 0.25 -3.96875 L 0.25 -3.53125 L 0.8125 -3.53125 L 2.53125 0 C 2.21875 0.734375 1.875 1.4375 1.1875 1.4375 C 1.140625 1.4375 1.078125 1.4375 1.015625 1.40625 C 1.171875 1.328125 1.28125 1.15625 1.28125 0.9375 C 1.28125 0.59375 1.03125 0.40625 0.734375 0.40625 C 0.453125 0.40625 0.203125 0.59375 0.203125 0.9375 C 0.203125 1.421875 0.65625 1.78125 1.1875 1.78125 C 1.875 1.78125 2.4375 1.265625 2.703125 0.6875 Z M 4.671875 -3.328125 "/>
</g>
<g id="glyph-9-2">
<path d="M 2.625 1.296875 L 2.015625 1.296875 L 2.015625 -0.34375 C 2.546875 0.046875 3.03125 0.046875 3.203125 0.046875 C 4.609375 0.046875 5.515625 -0.796875 5.515625 -1.984375 C 5.515625 -3.15625 4.703125 -4.015625 3.359375 -4.015625 C 2.625 -4.015625 2.140625 -3.71875 1.96875 -3.59375 L 1.96875 -4.015625 L 0.359375 -3.953125 L 0.359375 -3.515625 C 0.546875 -3.515625 0.6875 -3.515625 0.796875 -3.484375 C 0.96875 -3.453125 0.96875 -3.359375 0.96875 -3.171875 L 0.96875 1.296875 L 0.359375 1.296875 L 0.359375 1.734375 C 1.03125 1.703125 1.140625 1.703125 1.5 1.703125 C 1.859375 1.703125 1.953125 1.703125 2.625 1.734375 Z M 2.015625 -3.078125 C 2.1875 -3.28125 2.59375 -3.640625 3.203125 -3.640625 C 3.828125 -3.640625 4.328125 -3.078125 4.328125 -2 C 4.328125 -0.75 3.6875 -0.296875 3.09375 -0.296875 C 2.640625 -0.296875 2.265625 -0.5625 2.015625 -0.921875 Z M 2.015625 -3.078125 "/>
</g>
<g id="glyph-9-3">
<path d="M 4.25 -1.921875 C 4.4375 -1.921875 4.546875 -1.921875 4.546875 -2.171875 C 4.546875 -2.375 4.53125 -3.15625 3.953125 -3.640625 C 3.546875 -3.96875 3.015625 -4.046875 2.578125 -4.046875 C 1.046875 -4.046875 0.296875 -3.078125 0.296875 -2.015625 C 0.296875 -0.84375 1.1875 0.046875 2.703125 0.046875 C 4.171875 0.046875 4.546875 -0.890625 4.546875 -1.03125 C 4.546875 -1.21875 4.375 -1.21875 4.3125 -1.21875 C 4.15625 -1.21875 4.140625 -1.15625 4.078125 -1.03125 C 3.875 -0.578125 3.328125 -0.328125 2.765625 -0.328125 C 1.5 -0.328125 1.484375 -1.484375 1.484375 -1.921875 Z M 1.484375 -2.25 C 1.5 -2.65625 1.546875 -3.6875 2.578125 -3.6875 C 3.625 -3.6875 3.65625 -2.59375 3.671875 -2.25 Z M 1.484375 -2.25 "/>
</g>
<g id="glyph-9-4">
<path d="M 2.921875 -1.53125 L 2.921875 -2.4375 L 0.109375 -2.4375 L 0.109375 -1.53125 Z M 2.921875 -1.53125 "/>
</g>
<g id="glyph-9-5">
<path d="M 3.25 -5.5625 C 3.25 -5.765625 3.25 -5.859375 3 -5.859375 C 2.890625 -5.859375 2.875 -5.859375 2.78125 -5.796875 C 2.09375 -5.296875 1.140625 -5.296875 0.96875 -5.296875 L 0.78125 -5.296875 L 0.78125 -4.859375 L 0.96875 -4.859375 C 1.1875 -4.859375 1.65625 -4.875 2.15625 -5.03125 L 2.15625 -0.4375 L 0.890625 -0.4375 L 0.890625 0 C 1.21875 -0.03125 2.3125 -0.03125 2.703125 -0.03125 C 3.125 -0.03125 4.1875 -0.03125 4.546875 0 L 4.546875 -0.4375 L 3.25 -0.4375 Z M 3.25 -5.5625 "/>
</g>
<g id="glyph-9-6">
<path d="M 1.9375 -0.765625 C 1.640625 -0.765625 1.515625 -0.765625 1.375 -0.875 C 1.234375 -0.984375 1.15625 -1.140625 1.15625 -1.328125 C 1.15625 -1.5 1.21875 -1.59375 1.234375 -1.59375 C 1.5625 -1.4375 1.953125 -1.375 2.34375 -1.375 C 3.71875 -1.375 4.1875 -2.109375 4.1875 -2.6875 C 4.1875 -3.0625 4.015625 -3.359375 3.828125 -3.546875 C 4.0625 -3.671875 4.25 -3.6875 4.359375 -3.703125 C 4.359375 -3.671875 4.328125 -3.609375 4.328125 -3.515625 C 4.328125 -3.28125 4.515625 -3.125 4.734375 -3.125 C 4.9375 -3.125 5.140625 -3.265625 5.140625 -3.53125 C 5.140625 -3.765625 4.953125 -4.078125 4.546875 -4.078125 C 4.109375 -4.078125 3.734375 -3.859375 3.5625 -3.734375 C 3.1875 -3.953125 2.78125 -4.015625 2.34375 -4.015625 C 0.984375 -4.015625 0.515625 -3.28125 0.515625 -2.703125 C 0.515625 -2.203125 0.828125 -1.890625 0.984375 -1.75 C 0.796875 -1.546875 0.6875 -1.25 0.6875 -0.96875 C 0.6875 -0.59375 0.875 -0.28125 1.0625 -0.109375 C 0.390625 0.078125 0.296875 0.453125 0.296875 0.65625 C 0.296875 1.1875 0.90625 1.796875 2.640625 1.796875 C 4.203125 1.796875 4.984375 1.3125 4.984375 0.625 C 4.984375 0.3125 4.875 -0.234375 4.25 -0.53125 C 3.734375 -0.765625 3.265625 -0.765625 2.375 -0.765625 Z M 2.34375 -1.71875 C 1.546875 -1.71875 1.546875 -2.296875 1.546875 -2.6875 C 1.546875 -3.09375 1.546875 -3.671875 2.34375 -3.671875 C 3.15625 -3.671875 3.15625 -3.09375 3.15625 -2.703125 C 3.15625 -2.296875 3.15625 -1.71875 2.34375 -1.71875 Z M 2.875 0.125 C 3.15625 0.125 4.1875 0.125 4.1875 0.65625 C 4.1875 0.953125 3.859375 1.4375 2.640625 1.4375 C 1.46875 1.4375 1.09375 0.984375 1.09375 0.640625 C 1.09375 0.125 1.65625 0.125 1.796875 0.125 Z M 2.875 0.125 "/>
</g>
<g id="glyph-9-7">
<path d="M 5.015625 -2.71875 C 5.015625 -3.796875 4.375 -4.015625 3.609375 -4.015625 C 2.5 -4.015625 2.0625 -3.21875 2 -3.078125 L 2 -4.015625 L 0.453125 -3.953125 L 0.453125 -3.515625 C 0.984375 -3.515625 1.046875 -3.515625 1.046875 -3.15625 L 1.046875 -0.4375 L 0.453125 -0.4375 L 0.453125 0 C 1.109375 -0.03125 1.21875 -0.03125 1.578125 -0.03125 C 1.9375 -0.03125 2.03125 -0.03125 2.703125 0 L 2.703125 -0.4375 L 2.09375 -0.4375 L 2.09375 -2.265625 C 2.09375 -3.265625 2.921875 -3.671875 3.453125 -3.671875 C 3.796875 -3.671875 3.984375 -3.484375 3.984375 -2.8125 L 3.984375 -0.4375 L 3.375 -0.4375 L 3.375 0 C 4.03125 -0.03125 4.140625 -0.03125 4.5 -0.03125 C 4.859375 -0.03125 4.953125 -0.03125 5.625 0 L 5.625 -0.4375 L 5.015625 -0.4375 Z M 5.015625 -2.71875 "/>
</g>
<g id="glyph-9-8">
<path d="M 1.96875 -1.953125 C 1.96875 -2.59375 2.203125 -3.640625 3.078125 -3.671875 C 2.96875 -3.5625 2.9375 -3.421875 2.9375 -3.265625 C 2.9375 -2.875 3.25 -2.703125 3.5 -2.703125 C 3.78125 -2.703125 4.0625 -2.890625 4.0625 -3.265625 C 4.0625 -3.734375 3.609375 -4.015625 3.078125 -4.015625 C 2.453125 -4.015625 2.0625 -3.5625 1.875 -3.046875 L 1.859375 -3.046875 L 1.859375 -4.015625 L 0.359375 -3.953125 L 0.359375 -3.515625 C 0.90625 -3.515625 0.96875 -3.515625 0.96875 -3.15625 L 0.96875 -0.4375 L 0.359375 -0.4375 L 0.359375 0 C 1.03125 -0.03125 1.078125 -0.03125 1.515625 -0.03125 C 1.734375 -0.03125 2.25 -0.03125 2.71875 0 L 2.71875 -0.4375 L 1.96875 -0.4375 Z M 1.96875 -1.953125 "/>
</g>
<g id="glyph-9-9">
<path d="M 4.328125 -2.65625 C 4.328125 -3.453125 3.6875 -4.046875 2.3125 -4.046875 C 1.796875 -4.046875 0.65625 -4.03125 0.65625 -3.203125 C 0.65625 -2.8125 0.953125 -2.625 1.234375 -2.625 C 1.53125 -2.625 1.8125 -2.828125 1.8125 -3.203125 C 1.8125 -3.453125 1.65625 -3.609375 1.640625 -3.640625 C 1.71875 -3.65625 1.9375 -3.6875 2.265625 -3.6875 C 2.90625 -3.6875 3.28125 -3.375 3.28125 -2.65625 L 3.28125 -2.375 C 1.796875 -2.375 0.296875 -2 0.296875 -1 C 0.296875 -0.109375 1.40625 0.046875 2.0625 0.046875 C 2.734375 0.046875 3.203125 -0.234375 3.4375 -0.65625 C 3.4375 -0.421875 3.4375 0 4.390625 0 L 4.828125 0 C 5 0 5.125 0 5.125 -0.21875 C 5.125 -0.4375 4.984375 -0.4375 4.890625 -0.4375 C 4.328125 -0.453125 4.328125 -0.53125 4.328125 -0.75 Z M 3.28125 -1.25 C 3.28125 -0.296875 2.25 -0.296875 2.203125 -0.296875 C 1.75 -0.296875 1.375 -0.59375 1.375 -1 C 1.375 -1.296875 1.53125 -2 3.28125 -2.078125 Z M 3.28125 -1.25 "/>
</g>
<g id="glyph-9-10">
<path d="M 2 -3.53125 L 3.34375 -3.53125 L 3.34375 -3.96875 L 2 -3.96875 L 2 -5.671875 L 1.53125 -5.671875 C 1.53125 -4.828125 1.109375 -3.921875 0.203125 -3.890625 L 0.203125 -3.53125 L 0.953125 -3.53125 L 0.953125 -1.09375 C 0.953125 -0.078125 1.828125 0.046875 2.390625 0.046875 C 3.078125 0.046875 3.515625 -0.453125 3.515625 -1.09375 L 3.515625 -1.578125 L 3.0625 -1.578125 L 3.0625 -1.125 C 3.0625 -0.484375 2.734375 -0.328125 2.515625 -0.328125 C 2 -0.328125 2 -0.859375 2 -1.078125 Z M 2 -3.53125 "/>
</g>
<g id="glyph-9-11">
<path d="M 2.140625 -5.5 C 2.140625 -5.96875 1.765625 -6.21875 1.453125 -6.21875 C 1.03125 -6.21875 0.734375 -5.859375 0.734375 -5.515625 C 0.734375 -5.140625 1.046875 -4.8125 1.453125 -4.8125 C 1.78125 -4.8125 2.140625 -5.078125 2.140625 -5.5 Z M 0.484375 -3.953125 L 0.484375 -3.515625 C 1.015625 -3.515625 1.078125 -3.515625 1.078125 -3.15625 L 1.078125 -0.4375 L 0.46875 -0.4375 L 0.46875 0 C 1.0625 -0.015625 1.1875 -0.03125 1.5625 -0.03125 C 2 -0.03125 2.109375 -0.015625 2.609375 0 L 2.609375 -0.4375 L 2.0625 -0.4375 L 2.0625 -4.015625 Z M 0.484375 -3.953125 "/>
</g>
<g id="glyph-9-12">
<path d="M 2.078125 -3.53125 L 3.140625 -3.53125 L 3.140625 -3.96875 L 2.015625 -3.96875 L 2.015625 -4.859375 C 2.015625 -5.828125 2.71875 -5.90625 2.9375 -5.90625 C 2.96875 -5.90625 3.0625 -5.90625 3.0625 -5.875 C 3.0625 -5.875 3.0625 -5.859375 3.03125 -5.84375 C 2.9375 -5.734375 2.890625 -5.609375 2.890625 -5.453125 C 2.890625 -5.078125 3.203125 -4.890625 3.453125 -4.890625 C 3.75 -4.890625 4.03125 -5.109375 4.03125 -5.453125 C 4.03125 -5.859375 3.6875 -6.25 2.984375 -6.25 C 2.046875 -6.25 1.078125 -5.859375 1.078125 -4.859375 L 1.078125 -3.96875 L 0.390625 -3.96875 L 0.390625 -3.53125 L 1.078125 -3.53125 L 1.078125 -0.4375 L 0.46875 -0.4375 L 0.46875 0 C 1.140625 -0.03125 1.1875 -0.03125 1.625 -0.03125 C 1.84375 -0.03125 2.359375 -0.03125 2.828125 0 L 2.828125 -0.4375 L 2.078125 -0.4375 Z M 2.078125 -3.53125 "/>
</g>
<g id="glyph-9-13">
<path d="M 3.375 -3.953125 L 3.375 -3.515625 C 3.90625 -3.515625 3.984375 -3.515625 3.984375 -3.15625 L 3.984375 -1.46875 C 3.984375 -0.75 3.515625 -0.296875 2.828125 -0.296875 C 2.140625 -0.296875 2.09375 -0.5 2.09375 -0.96875 L 2.09375 -4.015625 L 0.453125 -3.953125 L 0.453125 -3.515625 C 0.984375 -3.515625 1.046875 -3.515625 1.046875 -3.15625 L 1.046875 -1.09375 C 1.046875 -0.125 1.828125 0.046875 2.6875 0.046875 C 2.96875 0.046875 3.578125 0.046875 4.03125 -0.609375 L 4.03125 0.046875 L 5.625 0 L 5.625 -0.4375 C 5.09375 -0.4375 5.015625 -0.4375 5.015625 -0.78125 L 5.015625 -4.015625 Z M 3.375 -3.953125 "/>
</g>
<g id="glyph-9-14">
<path d="M 4.390625 -1.03125 C 4.390625 -1.1875 4.265625 -1.1875 4.171875 -1.1875 C 3.984375 -1.1875 3.984375 -1.171875 3.921875 -1.015625 C 3.734375 -0.578125 3.328125 -0.328125 2.8125 -0.328125 C 1.53125 -0.328125 1.53125 -1.625 1.53125 -2.015625 C 1.53125 -2.5625 1.546875 -3.671875 2.71875 -3.671875 C 2.78125 -3.671875 3.265625 -3.65625 3.265625 -3.609375 C 3.265625 -3.609375 3.25 -3.578125 3.234375 -3.5625 C 3.15625 -3.46875 3.125 -3.328125 3.125 -3.203125 C 3.125 -2.828125 3.390625 -2.625 3.703125 -2.625 C 3.984375 -2.625 4.28125 -2.8125 4.28125 -3.203125 C 4.28125 -4.046875 3.03125 -4.046875 2.6875 -4.046875 C 0.96875 -4.046875 0.34375 -2.953125 0.34375 -1.984375 C 0.34375 -0.859375 1.15625 0.046875 2.640625 0.046875 C 2.96875 0.046875 3.40625 0 3.78125 -0.234375 C 4.296875 -0.546875 4.390625 -1.015625 4.390625 -1.03125 Z M 4.390625 -1.03125 "/>
</g>
<g id="glyph-9-15">
<path d="M 4.984375 -1.953125 C 4.984375 -3.125 4.171875 -4.046875 2.640625 -4.046875 C 1.078125 -4.046875 0.296875 -3.078125 0.296875 -1.953125 C 0.296875 -0.84375 1.09375 0.046875 2.640625 0.046875 C 4.234375 0.046875 4.984375 -0.890625 4.984375 -1.953125 Z M 2.640625 -0.328125 C 1.484375 -0.328125 1.484375 -1.265625 1.484375 -2.046875 C 1.484375 -2.796875 1.484375 -3.6875 2.640625 -3.6875 C 3.796875 -3.6875 3.796875 -2.796875 3.796875 -2.046875 C 3.796875 -1.28125 3.796875 -0.328125 2.640625 -0.328125 Z M 2.640625 -0.328125 "/>
</g>
<g id="glyph-10-0">
<path d="M 2.140625 -3.78125 C 2.140625 -3.953125 2.109375 -3.953125 1.9375 -3.953125 C 1.546875 -3.578125 0.9375 -3.578125 0.71875 -3.578125 L 0.71875 -3.34375 C 0.875 -3.34375 1.265625 -3.34375 1.625 -3.515625 L 1.625 -0.5 C 1.625 -0.3125 1.625 -0.234375 1.015625 -0.234375 L 0.75 -0.234375 L 0.75 0 C 1.078125 -0.03125 1.546875 -0.03125 1.875 -0.03125 C 2.21875 -0.03125 2.671875 -0.03125 3 0 L 3 -0.234375 L 2.75 -0.234375 C 2.140625 -0.234375 2.140625 -0.3125 2.140625 -0.5 Z M 2.140625 -3.78125 "/>
</g>
<g id="glyph-10-1">
<path d="M 3.203125 -1.109375 L 2.984375 -1.109375 C 2.96875 -1.03125 2.90625 -0.640625 2.828125 -0.578125 C 2.78125 -0.53125 2.296875 -0.53125 2.21875 -0.53125 L 1.09375 -0.53125 L 1.859375 -1.15625 C 2.0625 -1.3125 2.59375 -1.703125 2.78125 -1.875 C 2.953125 -2.046875 3.203125 -2.359375 3.203125 -2.78125 C 3.203125 -3.53125 2.53125 -3.953125 1.734375 -3.953125 C 0.96875 -3.953125 0.421875 -3.453125 0.421875 -2.890625 C 0.421875 -2.59375 0.6875 -2.546875 0.75 -2.546875 C 0.90625 -2.546875 1.078125 -2.65625 1.078125 -2.875 C 1.078125 -3 1 -3.203125 0.734375 -3.203125 C 0.875 -3.5 1.234375 -3.734375 1.640625 -3.734375 C 2.265625 -3.734375 2.59375 -3.265625 2.59375 -2.78125 C 2.59375 -2.359375 2.328125 -1.921875 1.90625 -1.546875 L 0.5 -0.25 C 0.4375 -0.1875 0.421875 -0.1875 0.421875 0 L 3.015625 0 Z M 3.203125 -1.109375 "/>
</g>
<g id="glyph-11-0">
<path d="M 1.984375 -3.15625 C 1.984375 -3.3125 1.96875 -3.3125 1.796875 -3.3125 C 1.453125 -2.984375 0.890625 -2.984375 0.796875 -2.984375 L 0.703125 -2.984375 L 0.703125 -2.765625 L 0.796875 -2.765625 C 0.90625 -2.765625 1.234375 -2.78125 1.515625 -2.90625 L 1.515625 -0.421875 C 1.515625 -0.265625 1.515625 -0.21875 1 -0.21875 L 0.75 -0.21875 L 0.75 0 C 1.015625 -0.015625 1.453125 -0.015625 1.75 -0.015625 C 2.03125 -0.015625 2.484375 -0.015625 2.75 0 L 2.75 -0.21875 L 2.5 -0.21875 C 1.984375 -0.21875 1.984375 -0.265625 1.984375 -0.421875 Z M 1.984375 -3.15625 "/>
</g>
<g id="glyph-11-1">
<path d="M 2.921875 -0.953125 L 2.71875 -0.953125 C 2.703125 -0.859375 2.65625 -0.5625 2.578125 -0.5 C 2.53125 -0.484375 2.109375 -0.484375 2.046875 -0.484375 L 1.0625 -0.484375 C 1.390625 -0.71875 1.765625 -1 2.0625 -1.203125 C 2.515625 -1.5 2.921875 -1.796875 2.921875 -2.328125 C 2.921875 -2.953125 2.328125 -3.3125 1.609375 -3.3125 C 0.9375 -3.3125 0.453125 -2.921875 0.453125 -2.4375 C 0.453125 -2.171875 0.671875 -2.125 0.734375 -2.125 C 0.875 -2.125 1.03125 -2.21875 1.03125 -2.421875 C 1.03125 -2.609375 0.90625 -2.703125 0.75 -2.71875 C 0.890625 -2.9375 1.171875 -3.09375 1.515625 -3.09375 C 2 -3.09375 2.390625 -2.796875 2.390625 -2.3125 C 2.390625 -1.890625 2.109375 -1.578125 1.71875 -1.25 L 0.515625 -0.234375 C 0.46875 -0.1875 0.453125 -0.1875 0.453125 -0.15625 L 0.453125 0 L 2.765625 0 Z M 2.921875 -0.953125 "/>
</g>
</g>
</defs>
<path fill-rule="nonzero" fill="rgb(95.999146%, 95.999146%, 100%)" fill-opacity="1" d="M 4.882812 138.871094 L 4.882812 15.875 C 4.882812 9.300781 10.214844 3.96875 16.789062 3.96875 L 472.929688 3.96875 C 479.507812 3.96875 484.839844 9.300781 484.839844 15.875 L 484.839844 138.871094 C 484.839844 145.449219 479.507812 150.777344 472.929688 150.777344 L 16.789062 150.777344 C 10.214844 150.777344 4.882812 145.449219 4.882812 138.871094 Z M 4.882812 138.871094 "/>
<path fill-rule="nonzero" fill="rgb(95.999146%, 95.999146%, 95.999146%)" fill-opacity="1" stroke-width="0.79701" stroke-linecap="butt" stroke-linejoin="miter" stroke="rgb(25%, 25%, 25%)" stroke-opacity="1" stroke-miterlimit="10" d="M -155.905941 -28.346089 L -155.905941 28.346981 L -14.175228 28.346981 L -14.175228 -28.346089 Z M -155.905941 -28.346089 " transform="matrix(0.995974, 0, 0, -0.995974, 188.395507, 54.787554)"/>
<g fill="rgb(25%, 25%, 25%)" fill-opacity="1">
<use xlink:href="#glyph-0-0" x="152.606165" y="35.483578"/>
</g>
<g fill="rgb(25%, 25%, 25%)" fill-opacity="1">
<use xlink:href="#glyph-1-0" x="159.23537" y="31.689912"/>
</g>
<g fill="rgb(25%, 25%, 25%)" fill-opacity="1">
<use xlink:href="#glyph-0-1" x="163.534991" y="35.483578"/>
</g>
<path fill="none" stroke-width="1.19553" stroke-linecap="butt" stroke-linejoin="miter" stroke="rgb(69.999695%, 0%, 0%)" stroke-opacity="1" stroke-miterlimit="10" d="M -153.074229 -0.00151509 L -17.00694 -0.00151509 " transform="matrix(0.995974, 0, 0, -0.995974, 188.395507, 54.787554)"/>
<g fill="rgb(69.999695%, 0%, 0%)" fill-opacity="1">
<use xlink:href="#glyph-2-0" x="82.117076" y="65.919559"/>
<use xlink:href="#glyph-2-1" x="85.865406" y="65.919559"/>
<use xlink:href="#glyph-2-2" x="89.613737" y="65.919559"/>
<use xlink:href="#glyph-2-3" x="92.900869" y="65.919559"/>
</g>
<g fill="rgb(69.999695%, 0%, 0%)" fill-opacity="1">
<use xlink:href="#glyph-2-4" x="99.928394" y="65.919559"/>
<use xlink:href="#glyph-2-1" x="103.255216" y="65.919559"/>
<use xlink:href="#glyph-2-5" x="107.003547" y="65.919559"/>
<use xlink:href="#glyph-2-6" x="110.751878" y="65.919559"/>
<use xlink:href="#glyph-2-7" x="114.031866" y="65.919559"/>
<use xlink:href="#glyph-2-3" x="116.374374" y="65.919559"/>
<use xlink:href="#glyph-2-8" x="120.591842" y="65.919559"/>
</g>
<path fill="none" stroke-width="1.19553" stroke-linecap="butt" stroke-linejoin="miter" stroke="rgb(0%, 0%, 69.999695%)" stroke-opacity="1" stroke-miterlimit="10" d="M -153.074229 14.172733 C -119.058388 19.844001 -79.371278 -8.504495 -34.016822 11.337099 " transform="matrix(0.995974, 0, 0, -0.995974, 188.395507, 54.787554)"/>
<g fill="rgb(0%, 0%, 69.999695%)" fill-opacity="1">
<use xlink:href="#glyph-3-0" x="118.320744" y="36.926745"/>
</g>
<g fill="rgb(0%, 0%, 69.999695%)" fill-opacity="1">
<use xlink:href="#glyph-2-9" x="126.398468" y="36.926745"/>
</g>
<g fill="rgb(0%, 0%, 69.999695%)" fill-opacity="1">
<use xlink:href="#glyph-4-0" x="135.300158" y="36.926745"/>
</g>
<g fill="rgb(0%, 0%, 69.999695%)" fill-opacity="1">
<use xlink:href="#glyph-2-10" x="139.517626" y="36.926745"/>
</g>
<g fill="rgb(0%, 0%, 69.999695%)" fill-opacity="1">
<use xlink:href="#glyph-3-1" x="142.797614" y="36.926745"/>
</g>
<g fill="rgb(0%, 0%, 69.999695%)" fill-opacity="1">
<use xlink:href="#glyph-3-2" x="146.849176" y="36.926745"/>
</g>
<g fill="rgb(0%, 0%, 69.999695%)" fill-opacity="1">
<use xlink:href="#glyph-3-3" x="150.596713" y="36.926745"/>
<use xlink:href="#glyph-3-4" x="154.936426" y="36.926745"/>
</g>
<g fill="rgb(0%, 0%, 69.999695%)" fill-opacity="1">
<use xlink:href="#glyph-5-0" x="160.068005" y="37.919732"/>
</g>
<g fill="rgb(0%, 0%, 69.999695%)" fill-opacity="1">
<use xlink:href="#glyph-2-11" x="164.175403" y="36.926745"/>
</g>
<g fill="rgb(0%, 0%, 69.999695%)" fill-opacity="1">
<use xlink:href="#glyph-2-12" x="169.797105" y="36.926745"/>
</g>
<g fill="rgb(0%, 0%, 69.999695%)" fill-opacity="1">
<use xlink:href="#glyph-3-1" x="174.481328" y="36.926745"/>
</g>
<g fill="rgb(0%, 0%, 69.999695%)" fill-opacity="1">
<use xlink:href="#glyph-4-1" x="180.874606" y="36.926745"/>
</g>
<g fill="rgb(0%, 0%, 69.999695%)" fill-opacity="1">
<use xlink:href="#glyph-3-5" x="188.838816" y="36.926745"/>
</g>
<g fill="rgb(0%, 0%, 69.999695%)" fill-opacity="1">
<use xlink:href="#glyph-4-2" x="197.788135" y="36.926745"/>
</g>
<path fill="none" stroke-width="0.79701" stroke-linecap="butt" stroke-linejoin="miter" stroke="rgb(0%, 0%, 0%)" stroke-opacity="1" stroke-miterlimit="10" d="M -85.038624 -39.684703 L -85.038624 -52.239149 " transform="matrix(0.995974, 0, 0, -0.995974, 188.395507, 54.787554)"/>
<path fill-rule="nonzero" fill="rgb(0%, 0%, 0%)" fill-opacity="1" stroke-width="0.79701" stroke-linecap="butt" stroke-linejoin="miter" stroke="rgb(0%, 0%, 0%)" stroke-opacity="1" stroke-miterlimit="10" d="M 5.950274 0.00179632 L 1.28697 1.762792 L 2.832253 0.00179632 L 1.28697 -1.763121 Z M 5.950274 0.00179632 " transform="matrix(0, 0.995974, 0.995974, 0, 103.69743, 104.194774)"/>
<g fill="rgb(0%, 0%, 0%)" fill-opacity="1">
<use xlink:href="#glyph-3-4" x="107.402873" y="104.72272"/>
</g>
<g fill="rgb(0%, 0%, 0%)" fill-opacity="1">
<use xlink:href="#glyph-2-13" x="115.787004" y="104.72272"/>
<use xlink:href="#glyph-2-1" x="120.004472" y="104.72272"/>
<use xlink:href="#glyph-2-8" x="123.752803" y="104.72272"/>
<use xlink:href="#glyph-2-1" x="128.438613" y="104.72272"/>
<use xlink:href="#glyph-2-2" x="132.186944" y="104.72272"/>
<use xlink:href="#glyph-2-14" x="135.474076" y="104.72272"/>
<use xlink:href="#glyph-2-6" x="139.691543" y="104.72272"/>
<use xlink:href="#glyph-2-1" x="142.971531" y="104.72272"/>
<use xlink:href="#glyph-2-4" x="146.719862" y="104.72272"/>
</g>
<g fill="rgb(0%, 0%, 0%)" fill-opacity="1">
<use xlink:href="#glyph-3-0" x="152.856742" y="104.72272"/>
</g>
<g fill="rgb(0%, 0%, 0%)" fill-opacity="1">
<use xlink:href="#glyph-0-2" x="81.537418" y="125.62125"/>
</g>
<g fill="rgb(0%, 0%, 0%)" fill-opacity="1">
<use xlink:href="#glyph-6-0" x="90.198028" y="125.62125"/>
</g>
<g fill="rgb(0%, 0%, 0%)" fill-opacity="1">
<use xlink:href="#glyph-0-1" x="95.301697" y="125.62125"/>
</g>
<g fill="rgb(0%, 0%, 0%)" fill-opacity="1">
<use xlink:href="#glyph-7-0" x="107.678206" y="125.62125"/>
</g>
<g fill="rgb(0%, 0%, 0%)" fill-opacity="1">
<use xlink:href="#glyph-8-0" x="119.41084" y="125.62125"/>
</g>
<path fill-rule="nonzero" fill="rgb(95.999146%, 95.999146%, 100%)" fill-opacity="1" stroke-width="0.3985" stroke-linecap="butt" stroke-linejoin="miter" stroke="rgb(0%, 0%, 50%)" stroke-opacity="1" stroke-miterlimit="10" d="M 254.645228 36.496977 L -27.870987 36.496977 C -30.071251 36.496977 -31.855779 34.716372 -31.855779 32.512186 L -31.855779 24.181776 C -31.855779 21.97759 -30.071251 20.193062 -27.870987 20.193062 L 254.645228 20.193062 C 256.845492 20.193062 258.630019 21.97759 258.630019 24.181776 L 258.630019 32.512186 C 258.630019 34.716372 256.845492 36.496977 254.645228 36.496977 Z M 254.645228 36.496977 " transform="matrix(0.995974, 0, 0, -0.995974, 188.395507, 54.787554)"/>
<g fill="rgb(0%, 0%, 0%)" fill-opacity="1">
<use xlink:href="#glyph-9-0" x="160.636706" y="28.96891"/>
</g>
<g fill="rgb(0%, 0%, 0%)" fill-opacity="1">
<use xlink:href="#glyph-9-1" x="167.69254" y="28.96891"/>
<use xlink:href="#glyph-9-2" x="173.269515" y="28.96891"/>
</g>
<g fill="rgb(0%, 0%, 0%)" fill-opacity="1">
<use xlink:href="#glyph-9-3" x="179.434997" y="28.96891"/>
<use xlink:href="#glyph-9-4" x="184.284152" y="28.96891"/>
<use xlink:href="#glyph-9-5" x="187.806264" y="28.96891"/>
</g>
<g fill="rgb(0%, 0%, 0%)" fill-opacity="1">
<use xlink:href="#glyph-9-6" x="196.608866" y="28.96891"/>
<use xlink:href="#glyph-9-3" x="201.892927" y="28.96891"/>
<use xlink:href="#glyph-9-7" x="206.742082" y="28.96891"/>
<use xlink:href="#glyph-9-3" x="212.612864" y="28.96891"/>
<use xlink:href="#glyph-9-8" x="217.46202" y="28.96891"/>
<use xlink:href="#glyph-9-9" x="221.820901" y="28.96891"/>
<use xlink:href="#glyph-9-10" x="226.957612" y="28.96891"/>
<use xlink:href="#glyph-9-11" x="231.067339" y="28.96891"/>
<use xlink:href="#glyph-9-7" x="234.00273" y="28.96891"/>
<use xlink:href="#glyph-9-6" x="239.873512" y="28.96891"/>
</g>
<g fill="rgb(0%, 0%, 0%)" fill-opacity="1">
<use xlink:href="#glyph-9-12" x="248.685043" y="28.96891"/>
<use xlink:href="#glyph-9-13" x="251.914241" y="28.96891"/>
<use xlink:href="#glyph-9-7" x="257.785024" y="28.96891"/>
<use xlink:href="#glyph-9-14" x="263.655806" y="28.96891"/>
<use xlink:href="#glyph-9-10" x="268.352253" y="28.96891"/>
<use xlink:href="#glyph-9-11" x="272.461979" y="28.96891"/>
<use xlink:href="#glyph-9-15" x="275.39737" y="28.96891"/>
<use xlink:href="#glyph-9-7" x="280.681431" y="28.96891"/>
</g>
<g fill="rgb(0%, 0%, 0%)" fill-opacity="1">
<use xlink:href="#glyph-0-3" x="289.606378" y="28.96891"/>
</g>
<g fill="rgb(0%, 0%, 0%)" fill-opacity="1">
<use xlink:href="#glyph-6-0" x="299.297544" y="28.96891"/>
</g>
<g fill="rgb(0%, 0%, 0%)" fill-opacity="1">
<use xlink:href="#glyph-0-1" x="304.392283" y="28.96891"/>
</g>
<g fill="rgb(0%, 0%, 0%)" fill-opacity="1">
<use xlink:href="#glyph-7-1" x="316.259764" y="28.96891"/>
</g>
<g fill="rgb(0%, 0%, 0%)" fill-opacity="1">
<use xlink:href="#glyph-0-1" x="325.443689" y="28.96891"/>
</g>
<g fill="rgb(0%, 0%, 0%)" fill-opacity="1">
<use xlink:href="#glyph-7-0" x="337.820198" y="28.96891"/>
</g>
<g fill="rgb(0%, 0%, 0%)" fill-opacity="1">
<use xlink:href="#glyph-8-0" x="349.552832" y="28.96891"/>
</g>
<g fill="rgb(0%, 0%, 0%)" fill-opacity="1">
<use xlink:href="#glyph-6-1" x="359.056463" y="28.96891"/>
<use xlink:href="#glyph-6-2" x="361.860578" y="28.96891"/>
<use xlink:href="#glyph-6-3" x="366.449862" y="28.96891"/>
</g>
<g fill="rgb(0%, 0%, 0%)" fill-opacity="1">
<use xlink:href="#glyph-0-4" x="373.102938" y="28.96891"/>
</g>
<g fill="rgb(0%, 0%, 0%)" fill-opacity="1">
<use xlink:href="#glyph-6-0" x="381.119673" y="28.96891"/>
</g>
<g fill="rgb(0%, 0%, 0%)" fill-opacity="1">
<use xlink:href="#glyph-0-0" x="386.214412" y="28.96891"/>
</g>
<g fill="rgb(0%, 0%, 0%)" fill-opacity="1">
<use xlink:href="#glyph-1-0" x="392.843148" y="25.175244"/>
</g>
<g fill="rgb(0%, 0%, 0%)" fill-opacity="1">
<use xlink:href="#glyph-0-1" x="397.143765" y="28.96891"/>
</g>
<g fill="rgb(0%, 0%, 0%)" fill-opacity="1">
<use xlink:href="#glyph-7-0" x="409.520274" y="28.96891"/>
</g>
<g fill="rgb(0%, 0%, 0%)" fill-opacity="1">
<use xlink:href="#glyph-0-0" x="421.252908" y="28.96891"/>
</g>
<g fill="rgb(0%, 0%, 0%)" fill-opacity="1">
<use xlink:href="#glyph-1-0" x="427.881526" y="25.175244"/>
</g>
<g fill="rgb(0%, 0%, 0%)" fill-opacity="1">
<use xlink:href="#glyph-0-1" x="432.181147" y="28.96891"/>
</g>
<g fill="rgb(0%, 0%, 0%)" fill-opacity="1">
<use xlink:href="#glyph-0-4" x="234.249171" y="65.490294"/>
</g>
<g fill="rgb(0%, 0%, 0%)" fill-opacity="1">
<use xlink:href="#glyph-6-4" x="239.711838" y="65.490294"/>
</g>
<g fill="rgb(0%, 0%, 0%)" fill-opacity="1">
<use xlink:href="#glyph-0-5" x="243.281281" y="65.490294"/>
</g>
<g fill="rgb(0%, 0%, 0%)" fill-opacity="1">
<use xlink:href="#glyph-10-0" x="247.383085" y="66.482284"/>
</g>
<g fill="rgb(0%, 0%, 0%)" fill-opacity="1">
<use xlink:href="#glyph-0-6" x="251.517374" y="65.490294"/>
</g>
<g fill="rgb(0%, 0%, 0%)" fill-opacity="1">
<use xlink:href="#glyph-7-2" x="255.594058" y="65.490294"/>
</g>
<g fill="rgb(0%, 0%, 0%)" fill-opacity="1">
<use xlink:href="#glyph-0-3" x="262.732944" y="65.490294"/>
</g>
<g fill="rgb(0%, 0%, 0%)" fill-opacity="1">
<use xlink:href="#glyph-5-0" x="268.595347" y="66.482284"/>
</g>
<g fill="rgb(0%, 0%, 0%)" fill-opacity="1">
<use xlink:href="#glyph-11-0" x="271.992615" y="67.628651"/>
</g>
<g fill="rgb(0%, 0%, 0%)" fill-opacity="1">
<use xlink:href="#glyph-6-4" x="276.361955" y="65.490294"/>
</g>
<g fill="rgb(0%, 0%, 0%)" fill-opacity="1">
<use xlink:href="#glyph-0-5" x="279.931398" y="65.490294"/>
</g>
<g fill="rgb(0%, 0%, 0%)" fill-opacity="1">
<use xlink:href="#glyph-10-0" x="284.031953" y="66.482284"/>
</g>
<g fill="rgb(0%, 0%, 0%)" fill-opacity="1">
<use xlink:href="#glyph-0-6" x="288.166243" y="65.490294"/>
</g>
<g fill="rgb(0%, 0%, 0%)" fill-opacity="1">
<use xlink:href="#glyph-0-5" x="292.242927" y="65.490294"/>
</g>
<g fill="rgb(0%, 0%, 0%)" fill-opacity="1">
<use xlink:href="#glyph-10-1" x="296.34618" y="66.482284"/>
</g>
<g fill="rgb(0%, 0%, 0%)" fill-opacity="1">
<use xlink:href="#glyph-6-5" x="300.48047" y="65.490294"/>
<use xlink:href="#glyph-6-5" x="304.049913" y="65.490294"/>
</g>
<g fill="rgb(0%, 0%, 0%)" fill-opacity="1">
<use xlink:href="#glyph-6-6" x="310.173422" y="65.490294"/>
</g>
<g fill="rgb(0%, 0%, 0%)" fill-opacity="1">
<use xlink:href="#glyph-6-4" x="319.857445" y="65.490294"/>
</g>
<g fill="rgb(0%, 0%, 0%)" fill-opacity="1">
<use xlink:href="#glyph-0-5" x="323.426887" y="65.490294"/>
</g>
<g fill="rgb(0%, 0%, 0%)" fill-opacity="1">
<use xlink:href="#glyph-10-1" x="327.52715" y="66.482284"/>
</g>
<g fill="rgb(0%, 0%, 0%)" fill-opacity="1">
<use xlink:href="#glyph-0-6" x="331.661439" y="65.490294"/>
</g>
<g fill="rgb(0%, 0%, 0%)" fill-opacity="1">
<use xlink:href="#glyph-0-3" x="335.738123" y="65.490294"/>
</g>
<g fill="rgb(0%, 0%, 0%)" fill-opacity="1">
<use xlink:href="#glyph-5-0" x="341.601263" y="66.482284"/>
</g>
<g fill="rgb(0%, 0%, 0%)" fill-opacity="1">
<use xlink:href="#glyph-11-1" x="344.999528" y="67.628651"/>
</g>
<g fill="rgb(0%, 0%, 0%)" fill-opacity="1">
<use xlink:href="#glyph-6-4" x="349.367871" y="65.490294"/>
</g>
<g fill="rgb(0%, 0%, 0%)" fill-opacity="1">
<use xlink:href="#glyph-0-5" x="352.937314" y="65.490294"/>
</g>
<g fill="rgb(0%, 0%, 0%)" fill-opacity="1">
<use xlink:href="#glyph-10-0" x="357.03787" y="66.482284"/>
</g>
<g fill="rgb(0%, 0%, 0%)" fill-opacity="1">
<use xlink:href="#glyph-0-6" x="361.172159" y="65.490294"/>
</g>
<g fill="rgb(0%, 0%, 0%)" fill-opacity="1">
<use xlink:href="#glyph-0-5" x="365.248843" y="65.490294"/>
</g>
<g fill="rgb(0%, 0%, 0%)" fill-opacity="1">
<use xlink:href="#glyph-10-1" x="369.353093" y="66.482284"/>
</g>
<g fill="rgb(0%, 0%, 0%)" fill-opacity="1">
<use xlink:href="#glyph-6-5" x="373.487382" y="65.490294"/>
<use xlink:href="#glyph-6-5" x="377.056825" y="65.490294"/>
</g>
<g fill="rgb(0%, 0%, 0%)" fill-opacity="1">
<use xlink:href="#glyph-6-7" x="234.249171" y="113.485302"/>
<use xlink:href="#glyph-6-3" x="240.878136" y="113.485302"/>
<use xlink:href="#glyph-6-8" x="244.468118" y="113.485302"/>
<use xlink:href="#glyph-6-9" x="247.01772" y="113.485302"/>
<use xlink:href="#glyph-6-8" x="250.587163" y="113.485302"/>
<use xlink:href="#glyph-6-10" x="253.136765" y="113.485302"/>
<use xlink:href="#glyph-6-11" x="257.216128" y="113.485302"/>
<use xlink:href="#glyph-6-12" x="261.805412" y="113.485302"/>
</g>
<g fill="rgb(0%, 0%, 0%)" fill-opacity="1">
<use xlink:href="#glyph-6-13" x="267.418108" y="113.485302"/>
</g>
<g fill="rgb(0%, 0%, 0%)" fill-opacity="1">
<use xlink:href="#glyph-6-2" x="272.76736" y="113.485302"/>
<use xlink:href="#glyph-6-8" x="277.356644" y="113.485302"/>
<use xlink:href="#glyph-6-14" x="279.906246" y="113.485302"/>
</g>
<g fill="rgb(0%, 0%, 0%)" fill-opacity="1">
<use xlink:href="#glyph-6-9" x="284.746471" y="113.485302"/>
<use xlink:href="#glyph-6-15" x="288.315913" y="113.485302"/>
</g>
<g fill="rgb(0%, 0%, 0%)" fill-opacity="1">
<use xlink:href="#glyph-6-2" x="294.999353" y="113.485302"/>
<use xlink:href="#glyph-6-1" x="299.588637" y="113.485302"/>
</g>
<g fill="rgb(0%, 0%, 0%)" fill-opacity="1">
<use xlink:href="#glyph-0-2" x="305.455847" y="113.485302"/>
</g>
<g fill="rgb(0%, 0%, 0%)" fill-opacity="1">
<use xlink:href="#glyph-7-3" x="314.625484" y="113.485302"/>
</g>
<g fill="rgb(0%, 0%, 0%)" fill-opacity="1">
<use xlink:href="#glyph-6-8" x="326.867145" y="113.485302"/>
<use xlink:href="#glyph-6-14" x="329.416747" y="113.485302"/>
</g>
<g fill="rgb(0%, 0%, 0%)" fill-opacity="1">
<use xlink:href="#glyph-6-9" x="334.256972" y="113.485302"/>
<use xlink:href="#glyph-6-16" x="337.826415" y="113.485302"/>
<use xlink:href="#glyph-6-3" x="341.90935" y="113.485302"/>
<use xlink:href="#glyph-6-15" x="345.499332" y="113.485302"/>
<use xlink:href="#glyph-6-16" x="349.119678" y="113.485302"/>
<use xlink:href="#glyph-6-10" x="353.202613" y="113.485302"/>
<use xlink:href="#glyph-6-9" x="357.281976" y="113.485302"/>
<use xlink:href="#glyph-6-8" x="360.851419" y="113.485302"/>
<use xlink:href="#glyph-6-2" x="363.401021" y="113.485302"/>
<use xlink:href="#glyph-6-14" x="367.990304" y="113.485302"/>
<use xlink:href="#glyph-6-15" x="373.089508" y="113.485302"/>
</g>
<g fill="rgb(0%, 0%, 0%)" fill-opacity="1">
<use xlink:href="#glyph-0-7" x="379.772948" y="113.485302"/>
</g>
<g fill="rgb(0%, 0%, 0%)" fill-opacity="1">
<use xlink:href="#glyph-7-4" x="388.054912" y="113.485302"/>
</g>
<g fill="rgb(0%, 0%, 0%)" fill-opacity="1">
<use xlink:href="#glyph-6-4" x="396.210066" y="113.485302"/>
<use xlink:href="#glyph-6-17" x="399.779509" y="113.485302"/>
<use xlink:href="#glyph-6-16" x="403.858872" y="113.485302"/>
<use xlink:href="#glyph-6-3" x="407.941807" y="113.485302"/>
<use xlink:href="#glyph-6-2" x="411.53179" y="113.485302"/>
</g>
<g fill="rgb(0%, 0%, 0%)" fill-opacity="1">
<use xlink:href="#glyph-6-15" x="419.184168" y="113.485302"/>
<use xlink:href="#glyph-6-16" x="422.804513" y="113.485302"/>
<use xlink:href="#glyph-6-10" x="426.887448" y="113.485302"/>
<use xlink:href="#glyph-6-9" x="430.966811" y="113.485302"/>
<use xlink:href="#glyph-6-8" x="434.536254" y="113.485302"/>
<use xlink:href="#glyph-6-2" x="437.085856" y="113.485302"/>
<use xlink:href="#glyph-6-14" x="441.675139" y="113.485302"/>
<use xlink:href="#glyph-6-5" x="446.774343" y="113.485302"/>
</g>
<g fill="rgb(0%, 0%, 0%)" fill-opacity="1">
<use xlink:href="#glyph-6-7" x="234.249171" y="130.424834"/>
<use xlink:href="#glyph-6-3" x="240.878136" y="130.424834"/>
<use xlink:href="#glyph-6-8" x="244.468118" y="130.424834"/>
<use xlink:href="#glyph-6-9" x="247.01772" y="130.424834"/>
<use xlink:href="#glyph-6-8" x="250.587163" y="130.424834"/>
<use xlink:href="#glyph-6-10" x="253.136765" y="130.424834"/>
<use xlink:href="#glyph-6-11" x="257.216128" y="130.424834"/>
<use xlink:href="#glyph-6-12" x="261.805412" y="130.424834"/>
</g>
<g fill="rgb(0%, 0%, 0%)" fill-opacity="1">
<use xlink:href="#glyph-6-13" x="267.418108" y="130.424834"/>
</g>
<g fill="rgb(0%, 0%, 0%)" fill-opacity="1">
<use xlink:href="#glyph-6-2" x="272.76736" y="130.424834"/>
<use xlink:href="#glyph-6-8" x="277.356644" y="130.424834"/>
<use xlink:href="#glyph-6-14" x="279.906246" y="130.424834"/>
</g>
<g fill="rgb(0%, 0%, 0%)" fill-opacity="1">
<use xlink:href="#glyph-6-9" x="284.746471" y="130.424834"/>
<use xlink:href="#glyph-6-15" x="288.315913" y="130.424834"/>
</g>
<g fill="rgb(0%, 0%, 0%)" fill-opacity="1">
<use xlink:href="#glyph-6-2" x="294.999353" y="130.424834"/>
<use xlink:href="#glyph-6-1" x="299.588637" y="130.424834"/>
</g>
<g fill="rgb(0%, 0%, 0%)" fill-opacity="1">
<use xlink:href="#glyph-0-3" x="305.455847" y="130.424834"/>
</g>
<g fill="rgb(0%, 0%, 0%)" fill-opacity="1">
<use xlink:href="#glyph-7-3" x="315.64711" y="130.424834"/>
</g>
<g fill="rgb(0%, 0%, 0%)" fill-opacity="1">
<use xlink:href="#glyph-6-18" x="327.888772" y="130.424834"/>
<use xlink:href="#glyph-6-19" x="332.987976" y="130.424834"/>
<use xlink:href="#glyph-6-16" x="337.831773" y="130.424834"/>
<use xlink:href="#glyph-6-20" x="341.914708" y="130.424834"/>
</g>
<g fill="rgb(0%, 0%, 0%)" fill-opacity="1">
<use xlink:href="#glyph-6-13" x="350.068076" y="130.424834"/>
</g>
<g fill="rgb(0%, 0%, 0%)" fill-opacity="1">
<use xlink:href="#glyph-6-2" x="355.426259" y="130.424834"/>
<use xlink:href="#glyph-6-8" x="360.015542" y="130.424834"/>
<use xlink:href="#glyph-6-14" x="362.565144" y="130.424834"/>
</g>
<g fill="rgb(0%, 0%, 0%)" fill-opacity="1">
<use xlink:href="#glyph-6-9" x="367.405369" y="130.424834"/>
<use xlink:href="#glyph-6-15" x="370.974812" y="130.424834"/>
</g>
<g fill="rgb(0%, 0%, 0%)" fill-opacity="1">
<use xlink:href="#glyph-6-2" x="377.658252" y="130.424834"/>
<use xlink:href="#glyph-6-1" x="382.247535" y="130.424834"/>
</g>
<g fill="rgb(0%, 0%, 0%)" fill-opacity="1">
<use xlink:href="#glyph-0-4" x="388.105815" y="130.424834"/>
</g>
</svg>
