<svg xmlns="http://www.w3.org/2000/svg" viewBox="0 0 720 360" role="img" aria-labelledby="title desc">
  <title id="title">Hadamard States by Pseudo-Differential Calculus (Gérard-Wrochna)</title>
  <desc id="desc">A schematic placeholder diagram for the Gérard-Wrochna 2014 direct pseudo-differential construction of Hadamard states. A single globally hyperbolic spacetime (M, g) is drawn as a curved cylinder with a horizontal Cauchy slice Sigma marked across the middle. On Sigma the operator epsilon, a pseudo-differential parametrix of the square root of the spatial operator D_h = minus Laplacian plus mass squared plus potential, is constructed via Seeley calculus. The two-point function omega_2 is built from the pair (epsilon, sigma) of Cauchy-data covariance and symplectic form; its wave-front set is constrained on T*M minus zero to the future-pointing half of the bicharacteristic relation, the Radzikowski criterion. No deformation argument is used: the construction is intrinsic to (M, g).</desc>
  <rect width="720" height="360" fill="#f7f3ea"/>
  <text x="40" y="36" font-family="Inter, Arial, sans-serif" font-size="14" fill="#222">Gérard-Wrochna 2014: Hadamard state from a Ψ¹-pseudo-differential parametrix ε of √(D_h) on Σ.</text>
  <text x="40" y="56" font-family="Inter, Arial, sans-serif" font-size="13" fill="#444">Direct construction on a single (M, g); no deformation, no auxiliary ultrastatic reference.</text>
  <g fill="none" stroke="#1d4e5a" stroke-width="2">
    <path d="M180 100 Q360 80 540 100"/>
    <path d="M180 290 Q360 310 540 290"/>
    <line x1="180" y1="100" x2="180" y2="290"/>
    <line x1="540" y1="100" x2="540" y2="290"/>
  </g>
  <g fill="none" stroke="#1d4e5a" stroke-width="2" stroke-dasharray="6 4">
    <path d="M180 195 Q360 180 540 195"/>
  </g>
  <text x="555" y="200" font-family="Inter, Arial, sans-serif" font-size="14" fill="#1d4e5a">Σ (Cauchy slice, induced h)</text>
  <g fill="none" stroke="#1d4e5a" stroke-width="2">
    <path d="M220 290 Q230 195 250 100"/>
    <path d="M280 290 Q290 195 310 100"/>
    <path d="M360 290 Q360 195 360 100"/>
    <path d="M430 290 Q430 195 420 100"/>
    <path d="M490 290 Q480 195 470 100"/>
  </g>
  <text x="360" y="88" text-anchor="middle" font-family="Inter, Arial, sans-serif" font-size="14" fill="#1d4e5a">globally hyperbolic (M, g)</text>
  <g fill="none" stroke="#b8651e" stroke-width="2">
    <rect x="270" y="220" width="180" height="50" rx="6"/>
  </g>
  <text x="360" y="240" text-anchor="middle" font-family="Inter, Arial, sans-serif" font-size="13" fill="#b8651e">ε ∈ Ψ¹(Σ),  σ₁(ε) = √p_h</text>
  <text x="360" y="258" text-anchor="middle" font-family="Inter, Arial, sans-serif" font-size="13" fill="#b8651e">ε² − D_h ∈ Ψ⁻∞(Σ)  (Seeley 1967)</text>
  <g fill="none" stroke="#666" stroke-width="2">
    <path d="M270 230 L210 215" marker-end="url(#arrow2)"/>
  </g>
  <text x="170" y="218" text-anchor="middle" font-family="Inter, Arial, sans-serif" font-size="12" fill="#666">init data</text>
  <text x="40" y="330" font-family="Inter, Arial, sans-serif" font-size="13" fill="#666">η = ½ ∫_Σ (u₀ ε u₀ + u₁ ε⁻¹ u₁) dvol_h    ⇒  WF(ω₂) = future-pointing half of bichar. (Radzikowski)</text>
  <text x="40" y="348" font-family="Inter, Arial, sans-serif" font-size="12" fill="#888">Gérard-Wrochna 2014 Comm. Math. Phys. 325 713; Gérard-Wrochna 2017 Ann. Henri Poincaré 18 2715; Seeley 1967.</text>
  <defs>
    <marker id="arrow2" markerWidth="12" markerHeight="12" refX="8" refY="4" orient="auto">
      <path d="M0,0 L8,4 L0,8 z" fill="#666"/>
    </marker>
  </defs>
</svg>
