<?xml version="1.0" encoding="UTF-8"?>
<svg xmlns="http://www.w3.org/2000/svg" xmlns:xlink="http://www.w3.org/1999/xlink" width="404.82pt" height="246.08pt" viewBox="0 0 404.82 246.08">
<defs>
<g>
<g id="glyph-0-0">
<path d="M 6.96875 -5.421875 C 7.046875 -5.75 7.078125 -5.828125 7.78125 -5.828125 C 7.921875 -5.828125 8.015625 -5.828125 8.015625 -5.984375 C 8.015625 -6.0625 7.953125 -6.109375 7.890625 -6.109375 L 7.3125 -6.09375 C 7.046875 -6.078125 7.03125 -6.078125 6.75 -6.078125 C 6.46875 -6.078125 6.4375 -6.078125 6.171875 -6.09375 C 6 -6.09375 5.765625 -6.109375 5.59375 -6.109375 C 5.546875 -6.109375 5.421875 -6.109375 5.421875 -5.9375 C 5.421875 -5.828125 5.5 -5.828125 5.6875 -5.828125 C 5.71875 -5.828125 5.875 -5.828125 6.03125 -5.8125 C 6.1875 -5.796875 6.234375 -5.765625 6.234375 -5.671875 C 6.234375 -5.625 6.234375 -5.609375 6.203125 -5.5 L 5.65625 -3.3125 L 2.875 -3.3125 L 3.40625 -5.421875 C 3.484375 -5.75 3.515625 -5.828125 4.203125 -5.828125 C 4.359375 -5.828125 4.453125 -5.828125 4.453125 -5.984375 C 4.453125 -6.0625 4.390625 -6.109375 4.3125 -6.109375 L 3.75 -6.09375 C 3.484375 -6.078125 3.46875 -6.078125 3.1875 -6.078125 C 2.890625 -6.078125 2.875 -6.078125 2.609375 -6.09375 C 2.4375 -6.09375 2.203125 -6.109375 2.03125 -6.109375 C 1.96875 -6.109375 1.84375 -6.109375 1.84375 -5.9375 C 1.84375 -5.828125 1.9375 -5.828125 2.125 -5.828125 C 2.15625 -5.828125 2.3125 -5.828125 2.453125 -5.8125 C 2.625 -5.796875 2.671875 -5.765625 2.671875 -5.671875 C 2.671875 -5.625 2.65625 -5.59375 2.640625 -5.5 L 1.4375 -0.671875 C 1.34375 -0.359375 1.328125 -0.28125 0.65625 -0.28125 C 0.484375 -0.28125 0.390625 -0.28125 0.390625 -0.109375 C 0.390625 -0.03125 0.453125 0 0.53125 0 C 0.703125 0 0.921875 -0.015625 1.09375 -0.015625 C 1.359375 -0.03125 1.375 -0.03125 1.65625 -0.03125 C 1.953125 -0.03125 1.96875 -0.03125 2.234375 -0.015625 C 2.40625 -0.015625 2.640625 0 2.8125 0 C 2.890625 0 3 0 3 -0.15625 C 3 -0.28125 2.90625 -0.28125 2.71875 -0.28125 C 2.6875 -0.28125 2.515625 -0.28125 2.375 -0.296875 C 2.1875 -0.328125 2.171875 -0.359375 2.171875 -0.4375 C 2.171875 -0.46875 2.171875 -0.484375 2.21875 -0.640625 L 2.8125 -3.03125 L 5.59375 -3.03125 C 5.515625 -2.71875 4.984375 -0.59375 4.9375 -0.5 C 4.875 -0.34375 4.859375 -0.28125 4.171875 -0.28125 C 4.0625 -0.28125 3.953125 -0.28125 3.953125 -0.109375 C 3.953125 -0.03125 4.015625 0 4.09375 0 C 4.265625 0 4.484375 -0.015625 4.65625 -0.015625 C 4.921875 -0.03125 4.9375 -0.03125 5.234375 -0.03125 C 5.515625 -0.03125 5.53125 -0.03125 5.796875 -0.015625 C 5.984375 -0.015625 6.21875 0 6.375 0 C 6.453125 0 6.5625 0 6.5625 -0.15625 C 6.5625 -0.28125 6.46875 -0.28125 6.28125 -0.28125 C 6.25 -0.28125 6.09375 -0.28125 5.9375 -0.296875 C 5.75 -0.328125 5.734375 -0.359375 5.734375 -0.4375 C 5.734375 -0.515625 5.75 -0.59375 5.78125 -0.65625 Z M 6.96875 -5.421875 "/>
</g>
<g id="glyph-0-1">
<path d="M 4.546875 -3.421875 C 4.765625 -3.640625 5.28125 -4.203125 5.5 -4.4375 C 5.59375 -4.515625 5.8125 -4.75 5.90625 -4.859375 C 6.453125 -5.421875 6.8125 -5.78125 7.5625 -5.828125 C 7.671875 -5.84375 7.765625 -5.84375 7.765625 -5.984375 C 7.765625 -6.03125 7.734375 -6.109375 7.640625 -6.109375 C 7.59375 -6.109375 7.28125 -6.09375 7.234375 -6.09375 C 7.15625 -6.078125 6.9375 -6.078125 6.796875 -6.078125 C 6.640625 -6.078125 6.46875 -6.09375 6.3125 -6.09375 C 6.15625 -6.09375 5.96875 -6.109375 5.8125 -6.109375 C 5.765625 -6.109375 5.65625 -6.109375 5.65625 -5.9375 C 5.65625 -5.84375 5.75 -5.828125 5.78125 -5.828125 C 5.84375 -5.8125 6.109375 -5.796875 6.109375 -5.5625 C 6.109375 -5.421875 5.90625 -5.203125 5.90625 -5.1875 L 4.4375 -3.671875 L 3.640625 -5.453125 C 3.59375 -5.546875 3.59375 -5.5625 3.59375 -5.5625 C 3.59375 -5.609375 3.734375 -5.796875 4.125 -5.828125 C 4.171875 -5.828125 4.265625 -5.84375 4.265625 -5.984375 C 4.265625 -6.0625 4.203125 -6.109375 4.140625 -6.109375 C 3.953125 -6.109375 3.75 -6.09375 3.578125 -6.09375 C 3.390625 -6.09375 3.21875 -6.078125 3.03125 -6.078125 C 2.734375 -6.078125 2.71875 -6.078125 2.5 -6.09375 L 2.015625 -6.109375 C 1.96875 -6.109375 1.84375 -6.109375 1.84375 -5.9375 C 1.84375 -5.828125 1.953125 -5.828125 2.0625 -5.828125 C 2.578125 -5.828125 2.625 -5.734375 2.703125 -5.546875 L 3.765625 -3.15625 C 3.765625 -3.15625 3.828125 -3.0625 3.828125 -3.046875 C 3.828125 -3.015625 2.671875 -1.828125 2.53125 -1.6875 C 2.4375 -1.59375 2.203125 -1.328125 2.109375 -1.234375 C 1.5625 -0.6875 1.21875 -0.328125 0.46875 -0.28125 C 0.359375 -0.265625 0.265625 -0.265625 0.265625 -0.109375 C 0.265625 -0.0625 0.296875 0 0.390625 0 C 0.4375 0 0.734375 -0.015625 0.796875 -0.015625 C 0.875 -0.03125 1.078125 -0.03125 1.21875 -0.03125 C 1.390625 -0.03125 1.5625 -0.015625 1.71875 -0.015625 C 1.875 -0.015625 2.046875 0 2.203125 0 C 2.25 0 2.375 0 2.375 -0.15625 C 2.375 -0.265625 2.265625 -0.28125 2.25 -0.28125 C 2.1875 -0.28125 1.90625 -0.296875 1.90625 -0.53125 C 1.90625 -0.671875 2.015625 -0.796875 2.296875 -1.09375 L 2.984375 -1.796875 L 3.46875 -2.296875 C 3.625 -2.46875 3.859375 -2.703125 3.9375 -2.796875 L 4.890625 -0.65625 C 4.9375 -0.5625 4.9375 -0.546875 4.9375 -0.53125 C 4.9375 -0.484375 4.796875 -0.296875 4.421875 -0.28125 C 4.375 -0.28125 4.265625 -0.265625 4.265625 -0.109375 C 4.265625 -0.03125 4.328125 0 4.390625 0 C 4.578125 0 4.78125 -0.015625 4.953125 -0.015625 C 5.140625 -0.015625 5.3125 -0.03125 5.5 -0.03125 C 5.796875 -0.03125 5.8125 -0.03125 6.03125 -0.015625 L 6.53125 0 C 6.5625 0 6.6875 0 6.6875 -0.15625 C 6.6875 -0.28125 6.59375 -0.28125 6.484375 -0.28125 C 5.953125 -0.28125 5.90625 -0.375 5.828125 -0.546875 Z M 4.546875 -3.421875 "/>
</g>
<g id="glyph-0-2">
<path d="M 1.625 -0.140625 C 1.625 0.15625 1.625 0.890625 0.96875 1.515625 C 0.90625 1.578125 0.90625 1.578125 0.90625 1.625 C 0.90625 1.6875 0.96875 1.71875 1.03125 1.71875 C 1.125 1.71875 1.84375 1.03125 1.84375 -0.015625 C 1.84375 -0.578125 1.65625 -0.96875 1.265625 -0.96875 C 0.96875 -0.96875 0.78125 -0.734375 0.78125 -0.484375 C 0.78125 -0.234375 0.96875 0 1.265625 0 C 1.40625 0 1.53125 -0.046875 1.625 -0.140625 Z M 1.625 -0.140625 "/>
</g>
<g id="glyph-0-3">
<path d="M 3.40625 -5.390625 C 3.484375 -5.734375 3.515625 -5.828125 4.34375 -5.828125 C 4.59375 -5.828125 4.671875 -5.828125 4.671875 -5.984375 C 4.671875 -6.109375 4.5625 -6.109375 4.53125 -6.109375 C 4.328125 -6.109375 4.09375 -6.09375 3.875 -6.09375 C 3.671875 -6.09375 3.453125 -6.078125 3.234375 -6.078125 C 3.03125 -6.078125 2.8125 -6.078125 2.625 -6.09375 C 2.453125 -6.09375 2.1875 -6.109375 2.03125 -6.109375 C 1.96875 -6.109375 1.84375 -6.109375 1.84375 -5.9375 C 1.84375 -5.828125 1.9375 -5.828125 2.125 -5.828125 C 2.15625 -5.828125 2.3125 -5.828125 2.453125 -5.8125 C 2.609375 -5.796875 2.671875 -5.78125 2.671875 -5.671875 C 2.671875 -5.625 2.65625 -5.59375 2.640625 -5.5 L 1.4375 -0.671875 C 1.34375 -0.359375 1.328125 -0.28125 0.65625 -0.28125 C 0.484375 -0.28125 0.390625 -0.28125 0.390625 -0.109375 C 0.390625 0 0.484375 0 0.640625 0 L 4.859375 0 C 5.078125 0 5.078125 -0.015625 5.15625 -0.203125 C 5.25 -0.421875 5.890625 -2.125 5.890625 -2.1875 C 5.890625 -2.265625 5.828125 -2.3125 5.765625 -2.3125 C 5.671875 -2.3125 5.671875 -2.265625 5.59375 -2.09375 C 5.296875 -1.296875 4.890625 -0.28125 3.328125 -0.28125 L 2.453125 -0.28125 C 2.328125 -0.28125 2.3125 -0.28125 2.265625 -0.28125 C 2.1875 -0.296875 2.15625 -0.296875 2.15625 -0.359375 C 2.15625 -0.390625 2.15625 -0.40625 2.203125 -0.578125 Z M 3.40625 -5.390625 "/>
</g>
<g id="glyph-0-4">
<path d="M 4.609375 -3.734375 L 6.421875 -5.09375 L 6.53125 -5.15625 C 7.09375 -5.546875 7.421875 -5.78125 7.953125 -5.828125 C 8.015625 -5.84375 8.109375 -5.84375 8.109375 -5.984375 C 8.109375 -6.03125 8.09375 -6.109375 8.015625 -6.109375 C 7.9375 -6.109375 7.890625 -6.078125 7.34375 -6.078125 C 7.03125 -6.078125 6.6875 -6.109375 6.375 -6.109375 C 6.328125 -6.109375 6.21875 -6.109375 6.21875 -5.9375 C 6.21875 -5.84375 6.3125 -5.828125 6.34375 -5.828125 C 6.40625 -5.8125 6.59375 -5.8125 6.59375 -5.671875 C 6.59375 -5.59375 6.53125 -5.484375 6.40625 -5.375 C 6.375 -5.328125 6.359375 -5.328125 6.34375 -5.3125 C 6.3125 -5.265625 6.296875 -5.265625 6.25 -5.234375 L 2.6875 -2.5625 L 3.40625 -5.421875 C 3.484375 -5.75 3.515625 -5.828125 4.203125 -5.828125 C 4.359375 -5.828125 4.453125 -5.828125 4.453125 -5.984375 C 4.453125 -6.0625 4.390625 -6.109375 4.3125 -6.109375 C 4.140625 -6.109375 3.9375 -6.09375 3.75 -6.09375 C 3.5625 -6.078125 3.359375 -6.078125 3.1875 -6.078125 C 2.890625 -6.078125 2.875 -6.078125 2.609375 -6.09375 C 2.4375 -6.09375 2.203125 -6.109375 2.03125 -6.109375 C 1.96875 -6.109375 1.84375 -6.109375 1.84375 -5.9375 C 1.84375 -5.828125 1.9375 -5.828125 2.125 -5.828125 C 2.15625 -5.828125 2.3125 -5.828125 2.453125 -5.8125 C 2.609375 -5.796875 2.671875 -5.78125 2.671875 -5.671875 C 2.671875 -5.625 2.65625 -5.59375 2.640625 -5.5 L 1.4375 -0.671875 C 1.34375 -0.359375 1.328125 -0.28125 0.65625 -0.28125 C 0.484375 -0.28125 0.390625 -0.28125 0.390625 -0.109375 C 0.390625 -0.015625 0.46875 0 0.53125 0 C 0.703125 0 0.921875 -0.015625 1.09375 -0.015625 C 1.359375 -0.03125 1.375 -0.03125 1.65625 -0.03125 C 1.953125 -0.03125 1.96875 -0.03125 2.234375 -0.015625 C 2.40625 -0.015625 2.640625 0 2.8125 0 C 2.875 0 3 0 3 -0.15625 C 3 -0.28125 2.90625 -0.28125 2.71875 -0.28125 C 2.6875 -0.28125 2.515625 -0.28125 2.375 -0.296875 C 2.1875 -0.328125 2.171875 -0.359375 2.171875 -0.4375 C 2.171875 -0.515625 2.25 -0.8125 2.609375 -2.21875 L 3.984375 -3.25 L 5.125 -0.75 C 5.171875 -0.640625 5.1875 -0.609375 5.1875 -0.546875 C 5.1875 -0.28125 4.8125 -0.28125 4.734375 -0.28125 C 4.625 -0.28125 4.515625 -0.28125 4.515625 -0.109375 C 4.515625 -0.03125 4.609375 0 4.671875 0 C 4.828125 0 5.015625 -0.015625 5.1875 -0.015625 C 5.359375 -0.015625 5.546875 -0.03125 5.734375 -0.03125 C 5.875 -0.03125 6.125 -0.03125 6.1875 -0.015625 L 6.625 0 C 6.65625 0 6.78125 0 6.78125 -0.15625 C 6.78125 -0.28125 6.671875 -0.28125 6.625 -0.28125 C 6.3125 -0.28125 6.15625 -0.328125 6 -0.65625 Z M 4.609375 -3.734375 "/>
</g>
<g id="glyph-0-5">
<path d="M 8.671875 -3.203125 C 8.671875 -3.265625 8.609375 -3.328125 8.546875 -3.328125 C 8.515625 -3.328125 8.5 -3.3125 8.484375 -3.296875 C 8.46875 -3.28125 8.46875 -3.28125 8.34375 -3.15625 C 7.515625 -2.09375 6.109375 -1.59375 4.59375 -1.59375 C 4.078125 -1.59375 3.234375 -1.640625 2.3125 -2.046875 C 1.390625 -2.4375 0.953125 -3 0.75 -3.25 C 0.71875 -3.28125 0.703125 -3.328125 0.640625 -3.328125 C 0.578125 -3.328125 0.515625 -3.265625 0.515625 -3.203125 C 0.515625 -3.078125 1.84375 -1.171875 4.578125 -1.171875 C 7.34375 -1.171875 8.671875 -3.078125 8.671875 -3.203125 Z M 8.671875 -3.203125 "/>
</g>
<g id="glyph-0-6">
<path d="M 4.359375 -3.515625 C 4.359375 -3.65625 4.234375 -3.765625 4.078125 -3.765625 C 3.921875 -3.765625 3.734375 -3.671875 3.6875 -3.421875 C 3.5 -3.75 3.203125 -3.953125 2.84375 -3.953125 C 1.765625 -3.953125 0.65625 -2.6875 0.65625 -1.4375 C 0.65625 -0.59375 1.1875 0 1.90625 0 C 2.3125 0 2.65625 -0.21875 2.953125 -0.484375 C 2.84375 0 2.703125 0.59375 2.625 0.765625 C 2.578125 0.859375 2.265625 1.609375 1.359375 1.609375 C 1.1875 1.609375 0.890625 1.59375 0.671875 1.53125 C 0.84375 1.46875 0.984375 1.265625 0.984375 1.078125 C 0.984375 0.890625 0.84375 0.765625 0.65625 0.765625 C 0.453125 0.765625 0.15625 0.921875 0.15625 1.28125 C 0.15625 1.71875 0.65625 1.828125 1.375 1.828125 C 2.53125 1.828125 3.1875 1.171875 3.328125 0.59375 Z M 3.125 -1.15625 C 3.09375 -1 3.078125 -0.984375 2.9375 -0.8125 C 2.484375 -0.296875 2.109375 -0.21875 1.9375 -0.21875 C 1.5 -0.21875 1.328125 -0.65625 1.328125 -1.046875 C 1.328125 -1.40625 1.546875 -2.40625 1.8125 -2.921875 C 2.046875 -3.34375 2.4375 -3.734375 2.84375 -3.734375 C 3.421875 -3.734375 3.578125 -3.046875 3.578125 -2.96875 C 3.578125 -2.953125 3.5625 -2.875 3.546875 -2.828125 Z M 3.125 -1.15625 "/>
</g>
<g id="glyph-1-0">
<path d="M 2.140625 -3.78125 C 2.140625 -3.953125 2.109375 -3.953125 1.9375 -3.953125 C 1.546875 -3.578125 0.9375 -3.578125 0.71875 -3.578125 L 0.71875 -3.34375 C 0.875 -3.34375 1.265625 -3.34375 1.625 -3.515625 L 1.625 -0.5 C 1.625 -0.3125 1.625 -0.234375 1.015625 -0.234375 L 0.75 -0.234375 L 0.75 0 C 1.078125 -0.03125 1.546875 -0.03125 1.875 -0.03125 C 2.21875 -0.03125 2.671875 -0.03125 3 0 L 3 -0.234375 L 2.75 -0.234375 C 2.140625 -0.234375 2.140625 -0.3125 2.140625 -0.5 Z M 2.140625 -3.78125 "/>
</g>
<g id="glyph-1-1">
<path d="M 3.28125 -1.90625 C 3.28125 -2.328125 3.28125 -3.953125 1.8125 -3.953125 C 0.359375 -3.953125 0.359375 -2.328125 0.359375 -1.90625 C 0.359375 -1.46875 0.359375 0.125 1.8125 0.125 C 3.28125 0.125 3.28125 -1.46875 3.28125 -1.90625 Z M 1.8125 -0.0625 C 1.5625 -0.0625 1.15625 -0.1875 1.015625 -0.671875 C 0.921875 -1.03125 0.921875 -1.609375 0.921875 -1.96875 C 0.921875 -2.375 0.921875 -2.828125 1 -3.15625 C 1.15625 -3.6875 1.609375 -3.765625 1.8125 -3.765625 C 2.09375 -3.765625 2.484375 -3.640625 2.609375 -3.1875 C 2.703125 -2.875 2.703125 -2.4375 2.703125 -1.96875 C 2.703125 -1.59375 2.703125 -1 2.609375 -0.65625 C 2.4375 -0.140625 2.015625 -0.0625 1.8125 -0.0625 Z M 1.8125 -0.0625 "/>
</g>
<g id="glyph-1-2">
<path d="M 1.296875 -2.328125 L 2.28125 -2.328125 L 2.28125 -2.5625 L 1.296875 -2.5625 L 1.296875 -3.65625 L 1.078125 -3.65625 C 1.078125 -3.125 0.8125 -2.546875 0.21875 -2.53125 L 0.21875 -2.328125 L 0.796875 -2.328125 L 0.796875 -0.75 C 0.796875 -0.125 1.28125 0.0625 1.671875 0.0625 C 2.09375 0.0625 2.390625 -0.265625 2.390625 -0.75 L 2.390625 -1.078125 L 2.171875 -1.078125 L 2.171875 -0.765625 C 2.171875 -0.34375 1.953125 -0.15625 1.71875 -0.15625 C 1.296875 -0.15625 1.296875 -0.625 1.296875 -0.75 Z M 1.296875 -2.328125 "/>
</g>
<g id="glyph-1-3">
<path d="M 1.28125 -1.328125 C 1.28125 -1.890625 1.578125 -2.421875 2.09375 -2.4375 C 2.046875 -2.375 2.03125 -2.3125 2.03125 -2.234375 C 2.03125 -2.078125 2.140625 -1.953125 2.296875 -1.953125 C 2.46875 -1.953125 2.578125 -2.078125 2.578125 -2.234375 C 2.578125 -2.46875 2.359375 -2.625 2.09375 -2.625 C 1.734375 -2.625 1.4375 -2.40625 1.25 -2.015625 L 1.25 -2.625 L 0.34375 -2.5625 L 0.34375 -2.328125 C 0.765625 -2.328125 0.8125 -2.28125 0.8125 -2 L 0.8125 -0.484375 C 0.8125 -0.234375 0.75 -0.234375 0.34375 -0.234375 L 0.34375 0 C 0.5 -0.015625 0.9375 -0.03125 1.0625 -0.03125 C 1.375 -0.03125 1.78125 0 1.875 0 L 1.875 -0.234375 L 1.734375 -0.234375 C 1.296875 -0.234375 1.28125 -0.296875 1.28125 -0.5 Z M 1.28125 -1.328125 "/>
</g>
<g id="glyph-2-0">
<path d="M 3.046875 2.125 C 3.046875 2.078125 3.015625 2.0625 2.96875 2 C 1.8125 0.9375 1.46875 -0.671875 1.46875 -2.234375 C 1.46875 -3.625 1.734375 -5.296875 3 -6.5 C 3.03125 -6.53125 3.046875 -6.5625 3.046875 -6.609375 C 3.046875 -6.671875 3 -6.703125 2.9375 -6.703125 C 2.828125 -6.703125 2.03125 -6.0625 1.546875 -5.078125 C 1.125 -4.234375 0.90625 -3.3125 0.90625 -2.25 C 0.90625 -1.59375 0.984375 -0.578125 1.46875 0.46875 C 2 1.578125 2.828125 2.21875 2.9375 2.21875 C 3 2.21875 3.046875 2.1875 3.046875 2.125 Z M 3.046875 2.125 "/>
</g>
<g id="glyph-2-1">
<path d="M 2.65625 -2.25 C 2.65625 -2.96875 2.5625 -3.953125 2.09375 -4.953125 C 1.5625 -6.046875 0.734375 -6.703125 0.625 -6.703125 C 0.53125 -6.703125 0.515625 -6.625 0.515625 -6.609375 C 0.515625 -6.5625 0.53125 -6.53125 0.59375 -6.46875 C 1.125 -6 2.09375 -4.796875 2.09375 -2.25 C 2.09375 -0.96875 1.875 0.8125 0.578125 2.015625 C 0.546875 2.046875 0.515625 2.078125 0.515625 2.125 C 0.515625 2.15625 0.53125 2.21875 0.625 2.21875 C 0.734375 2.21875 1.53125 1.578125 2.015625 0.609375 C 2.453125 -0.25 2.65625 -1.171875 2.65625 -2.25 Z M 2.65625 -2.25 "/>
</g>
<g id="glyph-2-2">
<path d="M 6.328125 -2.953125 C 6.453125 -2.953125 6.625 -2.953125 6.625 -3.140625 C 6.625 -3.34375 6.421875 -3.34375 6.296875 -3.34375 L 0.84375 -3.34375 C 0.703125 -3.34375 0.515625 -3.34375 0.515625 -3.140625 C 0.515625 -2.953125 0.6875 -2.953125 0.796875 -2.953125 Z M 6.296875 -1.140625 C 6.421875 -1.140625 6.625 -1.140625 6.625 -1.328125 C 6.625 -1.515625 6.453125 -1.515625 6.328125 -1.515625 L 0.796875 -1.515625 C 0.6875 -1.515625 0.515625 -1.515625 0.515625 -1.328125 C 0.515625 -1.140625 0.703125 -1.140625 0.84375 -1.140625 Z M 6.296875 -1.140625 "/>
</g>
<g id="glyph-2-3">
<path d="M 6.3125 -2.046875 C 6.4375 -2.046875 6.625 -2.046875 6.625 -2.234375 C 6.625 -2.4375 6.453125 -2.4375 6.3125 -2.4375 L 3.765625 -2.4375 L 3.765625 -4.984375 C 3.765625 -5.125 3.765625 -5.296875 3.5625 -5.296875 C 3.375 -5.296875 3.375 -5.109375 3.375 -4.984375 L 3.375 -2.4375 L 0.828125 -2.4375 C 0.703125 -2.4375 0.515625 -2.4375 0.515625 -2.25 C 0.515625 -2.046875 0.671875 -2.046875 0.828125 -2.046875 L 3.375 -2.046875 L 3.375 0.515625 C 3.375 0.65625 3.375 0.828125 3.578125 0.828125 C 3.765625 0.828125 3.765625 0.640625 3.765625 0.515625 L 3.765625 -2.046875 Z M 6.3125 -2.046875 "/>
</g>
<g id="glyph-2-4">
<path d="M 3.078125 -3.765625 C 3.078125 -3.921875 3.078125 -4 2.96875 -4 C 2.921875 -4 2.90625 -4 2.78125 -3.890625 C 2.765625 -3.875 2.6875 -3.796875 2.640625 -3.75 C 2.359375 -3.953125 2.078125 -4 1.78125 -4 C 0.59375 -4 0.296875 -3.359375 0.296875 -2.890625 C 0.296875 -2.609375 0.421875 -2.375 0.640625 -2.1875 C 0.9375 -1.90625 1.28125 -1.84375 1.734375 -1.765625 C 2.1875 -1.671875 2.34375 -1.640625 2.53125 -1.5 C 2.625 -1.421875 2.84375 -1.25 2.84375 -0.90625 C 2.84375 -0.125 1.953125 -0.125 1.828125 -0.125 C 0.90625 -0.125 0.671875 -0.890625 0.578125 -1.375 C 0.546875 -1.453125 0.53125 -1.515625 0.421875 -1.515625 C 0.296875 -1.515625 0.296875 -1.4375 0.296875 -1.28125 L 0.296875 -0.140625 C 0.296875 0.015625 0.296875 0.09375 0.40625 0.09375 C 0.46875 0.09375 0.46875 0.09375 0.640625 -0.078125 C 0.671875 -0.140625 0.765625 -0.25 0.8125 -0.296875 C 1.1875 0.078125 1.59375 0.09375 1.828125 0.09375 C 2.921875 0.09375 3.3125 -0.546875 3.3125 -1.140625 C 3.3125 -1.546875 3.125 -1.78125 2.9375 -2 C 2.625 -2.28125 2.3125 -2.34375 1.640625 -2.46875 C 1.40625 -2.515625 0.765625 -2.640625 0.765625 -3.140625 C 0.765625 -3.4375 0.96875 -3.8125 1.78125 -3.8125 C 2.75 -3.8125 2.8125 -3.0625 2.828125 -2.84375 C 2.828125 -2.734375 2.828125 -2.6875 2.953125 -2.6875 C 3.078125 -2.6875 3.078125 -2.75 3.078125 -2.90625 Z M 3.078125 -3.765625 "/>
</g>
<g id="glyph-2-5">
<path d="M 1.640625 -6.203125 L 0.3125 -6.109375 L 0.3125 -5.828125 C 0.921875 -5.828125 1 -5.765625 1 -5.328125 L 1 -0.6875 C 1 -0.28125 0.90625 -0.28125 0.3125 -0.28125 L 0.3125 0 C 0.734375 -0.015625 0.90625 -0.03125 1.328125 -0.03125 C 1.765625 -0.03125 1.875 -0.015625 2.34375 0 L 2.34375 -0.28125 C 1.765625 -0.28125 1.65625 -0.28125 1.65625 -0.6875 L 1.65625 -2.3125 C 1.65625 -3.265625 2.328125 -3.734375 2.890625 -3.734375 C 3.421875 -3.734375 3.546875 -3.28125 3.546875 -2.75 L 3.546875 -0.6875 C 3.546875 -0.28125 3.4375 -0.28125 2.84375 -0.28125 L 2.84375 0 C 3.265625 -0.015625 3.4375 -0.03125 3.875 -0.03125 C 4.296875 -0.03125 4.421875 -0.015625 4.890625 0 L 4.890625 -0.28125 C 4.4375 -0.28125 4.203125 -0.28125 4.203125 -0.546875 L 4.203125 -2.265625 C 4.203125 -3.015625 4.203125 -3.265625 3.953125 -3.578125 C 3.75 -3.828125 3.40625 -3.953125 2.953125 -3.953125 C 2.359375 -3.953125 1.921875 -3.640625 1.640625 -3.140625 Z M 1.640625 -6.203125 "/>
</g>
<g id="glyph-2-6">
<path d="M 3.578125 -2.046875 C 3.765625 -2.046875 3.8125 -2.046875 3.8125 -2.234375 C 3.8125 -3.15625 3.3125 -4 2.171875 -4 C 1.09375 -4 0.265625 -3.078125 0.265625 -1.96875 C 0.265625 -0.796875 1.203125 0.09375 2.28125 0.09375 C 3.375 0.09375 3.8125 -0.859375 3.8125 -1.0625 C 3.8125 -1.125 3.765625 -1.1875 3.6875 -1.1875 C 3.609375 -1.1875 3.578125 -1.125 3.5625 -1.078125 C 3.265625 -0.171875 2.46875 -0.15625 2.328125 -0.15625 C 1.90625 -0.15625 1.53125 -0.390625 1.328125 -0.703125 C 1.03125 -1.140625 1.03125 -1.671875 1.03125 -2.046875 Z M 1.03125 -2.265625 C 1.125 -3.640625 1.921875 -3.78125 2.171875 -3.78125 C 2.65625 -3.78125 3.203125 -3.40625 3.203125 -2.265625 Z M 1.03125 -2.265625 "/>
</g>
<g id="glyph-2-7">
<path d="M 3.0625 -0.640625 C 3.09375 -0.265625 3.359375 0.046875 3.75 0.046875 C 3.96875 0.046875 4.53125 -0.078125 4.53125 -0.796875 L 4.53125 -1.296875 L 4.28125 -1.296875 L 4.28125 -0.796875 C 4.28125 -0.703125 4.28125 -0.265625 3.953125 -0.265625 C 3.640625 -0.265625 3.640625 -0.6875 3.640625 -0.828125 L 3.640625 -2.390625 C 3.640625 -2.90625 3.640625 -3.203125 3.234375 -3.578125 C 2.90625 -3.875 2.46875 -4 2.03125 -4 C 1.28125 -4 0.65625 -3.625 0.65625 -3.0625 C 0.65625 -2.78125 0.84375 -2.625 1.078125 -2.625 C 1.3125 -2.625 1.484375 -2.8125 1.484375 -3.03125 C 1.484375 -3.421875 1.09375 -3.46875 1.078125 -3.46875 C 1.328125 -3.703125 1.75 -3.78125 2.015625 -3.78125 C 2.46875 -3.78125 2.96875 -3.4375 2.96875 -2.65625 L 2.96875 -2.359375 C 2.5 -2.34375 1.828125 -2.296875 1.21875 -2.015625 C 0.578125 -1.703125 0.390625 -1.234375 0.390625 -0.875 C 0.390625 -0.140625 1.25 0.09375 1.84375 0.09375 C 2.59375 0.09375 2.9375 -0.390625 3.0625 -0.640625 Z M 2.96875 -1.265625 C 2.96875 -0.390625 2.3125 -0.125 1.90625 -0.125 C 1.5 -0.125 1.09375 -0.421875 1.09375 -0.875 C 1.09375 -1.46875 1.609375 -2.09375 2.96875 -2.140625 Z M 2.96875 -1.265625 "/>
</g>
<g id="glyph-2-8">
<path d="M 2.6875 -3.578125 L 2.6875 -3.859375 L 1.625 -3.859375 L 1.625 -4.859375 C 1.625 -5.671875 2.0625 -6.078125 2.4375 -6.078125 C 2.53125 -6.078125 2.625 -6.0625 2.703125 -6.03125 C 2.625 -5.984375 2.46875 -5.875 2.46875 -5.65625 C 2.46875 -5.421875 2.640625 -5.265625 2.875 -5.265625 C 3.109375 -5.265625 3.265625 -5.4375 3.265625 -5.671875 C 3.265625 -6 2.9375 -6.296875 2.4375 -6.296875 C 1.75 -6.296875 1.015625 -5.78125 1.015625 -4.875 L 1.015625 -3.859375 L 0.296875 -3.859375 L 0.296875 -3.578125 L 1.015625 -3.578125 L 1.015625 -0.6875 C 1.015625 -0.28125 0.90625 -0.28125 0.328125 -0.28125 L 0.328125 0 C 0.796875 -0.015625 0.90625 -0.03125 1.375 -0.03125 C 1.71875 -0.03125 1.9375 -0.015625 2.5 0 L 2.5 -0.28125 L 2.328125 -0.28125 C 1.671875 -0.28125 1.640625 -0.375 1.640625 -0.703125 L 1.640625 -3.578125 Z M 2.6875 -3.578125 "/>
</g>
<g id="glyph-2-9">
<path d="M 2.546875 -1.65625 L 2.546875 -2.203125 L 0.09375 -2.203125 L 0.09375 -1.65625 Z M 2.546875 -1.65625 "/>
</g>
<g id="glyph-2-10">
<path d="M 1.65625 -2.3125 C 1.65625 -3.28125 2.359375 -3.734375 2.890625 -3.734375 C 3.390625 -3.734375 3.546875 -3.375 3.546875 -2.75 L 3.546875 -0.6875 C 3.546875 -0.28125 3.453125 -0.28125 2.859375 -0.28125 L 2.859375 0 C 3.28125 -0.015625 3.453125 -0.03125 3.875 -0.03125 C 4.3125 -0.03125 4.421875 -0.015625 4.890625 0 L 4.890625 -0.28125 C 4.3125 -0.28125 4.203125 -0.28125 4.203125 -0.6875 L 4.203125 -2.3125 C 4.203125 -3.28125 4.90625 -3.734375 5.4375 -3.734375 C 5.9375 -3.734375 6.09375 -3.375 6.09375 -2.75 L 6.09375 -0.6875 C 6.09375 -0.28125 6 -0.28125 5.40625 -0.28125 L 5.40625 0 C 5.828125 -0.015625 6 -0.03125 6.421875 -0.03125 C 6.859375 -0.03125 6.96875 -0.015625 7.4375 0 L 7.4375 -0.28125 C 6.984375 -0.28125 6.765625 -0.28125 6.75 -0.546875 L 6.75 -2.265625 C 6.75 -3.046875 6.75 -3.296875 6.46875 -3.625 C 6.28125 -3.84375 5.921875 -3.953125 5.5 -3.953125 C 4.859375 -3.953125 4.421875 -3.578125 4.171875 -3.09375 C 4.0625 -3.625 3.703125 -3.953125 2.953125 -3.953125 C 2.25 -3.953125 1.8125 -3.484375 1.625 -3.078125 L 1.609375 -3.078125 L 1.609375 -3.953125 L 0.3125 -3.859375 L 0.3125 -3.578125 C 0.921875 -3.578125 1 -3.515625 1 -3.078125 L 1 -0.6875 C 1 -0.28125 0.90625 -0.28125 0.3125 -0.28125 L 0.3125 0 C 0.734375 -0.015625 0.90625 -0.03125 1.328125 -0.03125 C 1.765625 -0.03125 1.875 -0.015625 2.34375 0 L 2.34375 -0.28125 C 1.765625 -0.28125 1.65625 -0.28125 1.65625 -0.6875 Z M 1.65625 -2.3125 "/>
</g>
<g id="glyph-2-11">
<path d="M 3.546875 -1.5 C 3.546875 -0.703125 3.09375 -0.125 2.453125 -0.125 C 1.703125 -0.125 1.65625 -0.515625 1.65625 -0.984375 L 1.65625 -3.953125 L 0.3125 -3.859375 L 0.3125 -3.578125 C 1 -3.578125 1 -3.546875 1 -2.75 L 1 -1.40625 C 1 -0.828125 1 -0.453125 1.40625 -0.140625 C 1.671875 0.03125 2.03125 0.09375 2.390625 0.09375 C 2.859375 0.09375 3.296875 -0.109375 3.5625 -0.640625 L 3.5625 0.09375 L 4.890625 0 L 4.890625 -0.28125 C 4.28125 -0.28125 4.203125 -0.34375 4.203125 -0.78125 L 4.203125 -3.953125 L 2.84375 -3.859375 L 2.84375 -3.578125 C 3.453125 -3.578125 3.546875 -3.515625 3.546875 -3.078125 Z M 3.546875 -1.5 "/>
</g>
<g id="glyph-2-12">
<path d="M 1.640625 -6.203125 L 0.328125 -6.109375 L 0.328125 -5.828125 C 0.921875 -5.828125 1.015625 -5.765625 1.015625 -5.328125 L 1.015625 -0.6875 C 1.015625 -0.28125 0.90625 -0.28125 0.328125 -0.28125 L 0.328125 0 C 0.734375 -0.015625 0.90625 -0.03125 1.328125 -0.03125 C 1.75 -0.03125 1.890625 -0.015625 2.328125 0 L 2.328125 -0.28125 C 1.75 -0.28125 1.640625 -0.28125 1.640625 -0.6875 Z M 1.640625 -6.203125 "/>
</g>
<g id="glyph-2-13">
<path d="M 2.90625 -3.578125 L 2.90625 -3.859375 L 1.609375 -3.859375 L 1.609375 -5.5 L 1.359375 -5.5 C 1.34375 -4.75 1.03125 -3.828125 0.171875 -3.796875 L 0.171875 -3.578125 L 0.953125 -3.578125 L 0.953125 -1.109375 C 0.953125 -0.109375 1.671875 0.09375 2.140625 0.09375 C 2.75 0.09375 3.0625 -0.46875 3.0625 -1.109375 L 3.0625 -1.625 L 2.8125 -1.625 L 2.8125 -1.140625 C 2.8125 -0.46875 2.53125 -0.15625 2.203125 -0.15625 C 1.609375 -0.15625 1.609375 -0.9375 1.609375 -1.09375 L 1.609375 -3.578125 Z M 2.90625 -3.578125 "/>
</g>
<g id="glyph-2-14">
<path d="M 1.75 -0.484375 C 1.75 -0.734375 1.53125 -0.96875 1.265625 -0.96875 C 1 -0.96875 0.78125 -0.734375 0.78125 -0.484375 C 0.78125 -0.21875 1 0 1.265625 0 C 1.53125 0 1.75 -0.21875 1.75 -0.484375 Z M 1.75 -0.484375 "/>
</g>
<g id="glyph-2-15">
<path d="M 3.484375 -1.078125 C 3.484375 -0.90625 3.484375 -0.890625 3.34375 -0.703125 C 3.0625 -0.296875 2.65625 -0.125 2.296875 -0.125 C 1.90625 -0.125 1.5625 -0.34375 1.328125 -0.71875 C 1.09375 -1.09375 1.078125 -1.625 1.078125 -1.90625 C 1.078125 -2.328125 1.125 -2.8125 1.359375 -3.15625 C 1.5625 -3.453125 1.921875 -3.734375 2.390625 -3.734375 C 2.765625 -3.734375 3.125 -3.546875 3.375 -3.203125 C 3.484375 -3.0625 3.484375 -3.046875 3.484375 -2.875 Z M 3.5 -3.421875 C 3.453125 -3.484375 3.0625 -3.953125 2.359375 -3.953125 C 1.265625 -3.953125 0.296875 -3.078125 0.296875 -1.921875 C 0.296875 -0.796875 1.203125 0.09375 2.265625 0.09375 C 2.90625 0.09375 3.3125 -0.28125 3.484375 -0.46875 L 3.484375 0.09375 L 4.828125 0 L 4.828125 -0.28125 C 4.21875 -0.28125 4.140625 -0.34375 4.140625 -0.78125 L 4.140625 -6.203125 L 2.8125 -6.109375 L 2.8125 -5.828125 C 3.421875 -5.828125 3.5 -5.765625 3.5 -5.328125 Z M 3.5 -3.421875 "/>
</g>
<g id="glyph-2-16">
<path d="M 1.640625 -3.953125 L 0.359375 -3.859375 L 0.359375 -3.578125 C 0.921875 -3.578125 1.015625 -3.515625 1.015625 -3.078125 L 1.015625 -0.6875 C 1.015625 -0.28125 0.90625 -0.28125 0.328125 -0.28125 L 0.328125 0 C 0.71875 -0.015625 0.90625 -0.03125 1.3125 -0.03125 C 1.453125 -0.03125 1.828125 -0.03125 2.265625 0 L 2.265625 -0.28125 C 1.6875 -0.28125 1.640625 -0.328125 1.640625 -0.671875 Z M 1.671875 -5.5 C 1.671875 -5.78125 1.453125 -5.984375 1.1875 -5.984375 C 0.90625 -5.984375 0.703125 -5.765625 0.703125 -5.5 C 0.703125 -5.25 0.90625 -5.015625 1.1875 -5.015625 C 1.453125 -5.015625 1.671875 -5.234375 1.671875 -5.5 Z M 1.671875 -5.5 "/>
</g>
<g id="glyph-2-17">
<path d="M 1.125 -1.59375 C 1.34375 -1.453125 1.625 -1.328125 2.03125 -1.328125 C 2.875 -1.328125 3.515625 -1.9375 3.515625 -2.640625 C 3.515625 -3.078125 3.265625 -3.375 3.15625 -3.5 C 3.515625 -3.828125 3.9375 -3.828125 4.046875 -3.828125 C 4 -3.796875 3.921875 -3.75 3.921875 -3.59375 C 3.921875 -3.5 3.984375 -3.328125 4.1875 -3.328125 C 4.3125 -3.328125 4.453125 -3.421875 4.453125 -3.609375 C 4.453125 -3.765625 4.328125 -4.046875 3.984375 -4.046875 C 3.71875 -4.046875 3.3125 -3.953125 3 -3.625 C 2.765625 -3.828125 2.40625 -3.953125 2.03125 -3.953125 C 1.1875 -3.953125 0.546875 -3.34375 0.546875 -2.640625 C 0.546875 -2.1875 0.8125 -1.859375 0.953125 -1.71875 C 0.9375 -1.703125 0.6875 -1.390625 0.6875 -0.984375 C 0.6875 -0.671875 0.828125 -0.359375 1.078125 -0.203125 C 0.609375 -0.046875 0.265625 0.28125 0.265625 0.703125 C 0.265625 1.328125 1.140625 1.84375 2.28125 1.84375 C 3.390625 1.84375 4.328125 1.375 4.328125 0.671875 C 4.328125 0.3125 4.15625 -0.078125 3.828125 -0.296875 C 3.328125 -0.609375 2.8125 -0.609375 1.953125 -0.609375 C 1.78125 -0.609375 1.5 -0.609375 1.421875 -0.625 C 1.15625 -0.671875 0.984375 -0.921875 0.984375 -1.203125 C 0.984375 -1.34375 1.03125 -1.484375 1.125 -1.59375 Z M 2.03125 -1.5625 C 1.234375 -1.5625 1.234375 -2.4375 1.234375 -2.640625 C 1.234375 -2.875 1.25 -3.1875 1.40625 -3.390625 C 1.53125 -3.578125 1.78125 -3.703125 2.03125 -3.703125 C 2.828125 -3.703125 2.828125 -2.84375 2.828125 -2.640625 C 2.828125 -2.4375 2.828125 -1.5625 2.03125 -1.5625 Z M 2.4375 -0.046875 C 2.71875 -0.046875 3.828125 -0.03125 3.828125 0.6875 C 3.828125 1.203125 3.140625 1.59375 2.296875 1.59375 C 1.421875 1.59375 0.765625 1.1875 0.765625 0.6875 C 0.765625 0.546875 0.84375 -0.046875 1.625 -0.046875 Z M 2.4375 -0.046875 "/>
</g>
<g id="glyph-2-18">
<path d="M 2.71875 -5.71875 C 2.71875 -5.9375 2.703125 -5.953125 2.484375 -5.953125 C 1.9375 -5.375 1.109375 -5.375 0.828125 -5.375 L 0.828125 -5.109375 C 1 -5.109375 1.546875 -5.109375 2.03125 -5.328125 L 2.03125 -0.71875 C 2.03125 -0.390625 2 -0.28125 1.171875 -0.28125 L 0.890625 -0.28125 L 0.890625 0 C 1.203125 -0.03125 2 -0.03125 2.375 -0.03125 C 2.734375 -0.03125 3.546875 -0.03125 3.859375 0 L 3.859375 -0.28125 L 3.578125 -0.28125 C 2.75 -0.28125 2.71875 -0.390625 2.71875 -0.71875 Z M 2.71875 -5.71875 "/>
</g>
<g id="glyph-3-0">
<path d="M 3.546875 -2.1875 C 3.546875 -2.203125 3.53125 -2.25 3.53125 -2.265625 C 3.53125 -2.265625 3.53125 -2.28125 3.65625 -2.390625 L 4.625 -3.328125 C 4.765625 -3.453125 4.96875 -3.609375 5.03125 -3.640625 C 5.265625 -3.78125 5.46875 -3.8125 5.671875 -3.828125 C 5.765625 -3.828125 5.84375 -3.828125 5.84375 -3.984375 C 5.84375 -4.015625 5.796875 -4.0625 5.75 -4.0625 C 5.578125 -4.0625 5.34375 -4.046875 5.15625 -4.046875 L 4.8125 -4.046875 C 4.703125 -4.046875 4.5625 -4.0625 4.453125 -4.0625 C 4.40625 -4.0625 4.3125 -4.0625 4.3125 -3.921875 C 4.3125 -3.828125 4.40625 -3.828125 4.421875 -3.828125 C 4.5 -3.828125 4.609375 -3.796875 4.609375 -3.6875 C 4.609375 -3.609375 4.5625 -3.546875 4.375 -3.375 L 3.890625 -2.921875 C 3.859375 -2.875 3.484375 -2.53125 3.40625 -2.46875 L 2.78125 -3.625 C 2.78125 -3.625 2.75 -3.6875 2.75 -3.703125 C 2.75 -3.734375 2.875 -3.8125 3.046875 -3.828125 C 3.09375 -3.828125 3.1875 -3.828125 3.1875 -3.984375 C 3.1875 -4 3.171875 -4.0625 3.078125 -4.0625 C 2.953125 -4.0625 2.8125 -4.046875 2.6875 -4.046875 C 2.6875 -4.046875 2.28125 -4.046875 2.28125 -4.046875 C 2.15625 -4.046875 2.046875 -4.046875 1.921875 -4.046875 C 1.8125 -4.046875 1.671875 -4.0625 1.5625 -4.0625 C 1.5 -4.0625 1.4375 -4.03125 1.4375 -3.921875 C 1.4375 -3.828125 1.5 -3.828125 1.625 -3.828125 C 1.96875 -3.828125 2.015625 -3.765625 2.0625 -3.671875 L 2.953125 -2.03125 C 2.828125 -1.921875 2.53125 -1.640625 2.328125 -1.4375 C 1.34375 -0.484375 1.109375 -0.265625 0.546875 -0.234375 C 0.46875 -0.234375 0.390625 -0.234375 0.390625 -0.09375 C 0.390625 -0.046875 0.421875 0 0.46875 0 C 0.65625 0 0.875 -0.03125 1.0625 -0.03125 C 1.21875 -0.03125 1.609375 0 1.78125 0 C 1.8125 0 1.90625 0 1.90625 -0.15625 C 1.90625 -0.234375 1.828125 -0.234375 1.796875 -0.234375 C 1.71875 -0.25 1.609375 -0.28125 1.609375 -0.375 C 1.609375 -0.40625 1.609375 -0.4375 1.671875 -0.515625 C 1.6875 -0.53125 1.703125 -0.546875 1.703125 -0.5625 L 3.0625 -1.84375 L 3.828125 -0.453125 C 3.859375 -0.40625 3.859375 -0.375 3.859375 -0.375 C 3.859375 -0.328125 3.75 -0.25 3.546875 -0.234375 C 3.515625 -0.234375 3.421875 -0.234375 3.421875 -0.09375 C 3.421875 -0.078125 3.421875 0 3.53125 0 C 3.65625 0 3.796875 -0.015625 3.921875 -0.015625 C 3.921875 -0.015625 4.328125 -0.03125 4.328125 -0.03125 C 4.453125 -0.03125 4.5625 -0.015625 4.671875 -0.015625 C 4.796875 -0.015625 4.921875 0 5.046875 0 C 5.109375 0 5.171875 -0.03125 5.171875 -0.15625 C 5.171875 -0.234375 5.078125 -0.234375 5 -0.234375 C 4.625 -0.234375 4.609375 -0.296875 4.546875 -0.40625 Z M 3.546875 -2.1875 "/>
</g>
<g id="glyph-4-0">
<path d="M 6.625 -2.234375 C 6.625 -3.9375 5.25 -5.296875 3.5625 -5.296875 C 1.875 -5.296875 0.515625 -3.921875 0.515625 -2.25 C 0.515625 -0.53125 1.890625 0.828125 3.5625 0.828125 C 5.265625 0.828125 6.625 -0.5625 6.625 -2.234375 Z M 1.671875 -4.3125 C 2.015625 -4.640625 2.671875 -5.046875 3.5625 -5.046875 C 4.453125 -5.046875 5.109375 -4.640625 5.453125 -4.3125 L 3.5625 -2.421875 Z M 1.5 -0.34375 C 1.140625 -0.71875 0.765625 -1.390625 0.765625 -2.234375 C 0.765625 -3.140625 1.1875 -3.8125 1.5 -4.140625 L 3.390625 -2.25 Z M 5.640625 -4.140625 C 5.984375 -3.75 6.375 -3.09375 6.375 -2.25 C 6.375 -1.328125 5.9375 -0.671875 5.640625 -0.34375 L 3.734375 -2.234375 Z M 5.453125 -0.15625 C 5.109375 0.15625 4.453125 0.578125 3.5625 0.578125 C 2.6875 0.578125 2.03125 0.171875 1.671875 -0.15625 L 3.5625 -2.0625 Z M 5.453125 -0.15625 "/>
</g>
<g id="glyph-4-1">
<path d="M 6.625 -3.015625 C 6.625 -3.25 6.546875 -3.3125 6.484375 -3.3125 C 6.375 -3.3125 6.359375 -3.109375 6.359375 -2.984375 C 6.3125 -2.328125 5.8125 -1.6875 5.09375 -1.6875 C 4.578125 -1.6875 4.171875 -1.984375 3.625 -2.46875 C 3.09375 -2.953125 2.640625 -3.328125 2.03125 -3.328125 C 1.0625 -3.328125 0.515625 -2.328125 0.515625 -1.453125 C 0.515625 -1.21875 0.578125 -1.15625 0.640625 -1.15625 C 0.734375 -1.15625 0.78125 -1.328125 0.78125 -1.375 C 0.828125 -2.5 1.59375 -2.78125 2.03125 -2.78125 C 2.5625 -2.78125 2.96875 -2.484375 3.5 -2 C 4.03125 -1.515625 4.484375 -1.140625 5.09375 -1.140625 C 6.0625 -1.140625 6.625 -2.140625 6.625 -3.015625 Z M 6.625 -3.015625 "/>
</g>
<g id="glyph-4-2">
<path d="M 5.65625 -4.0625 C 5.75 -4.15625 5.78125 -4.203125 5.78125 -4.265625 C 5.78125 -4.375 5.6875 -4.453125 5.59375 -4.453125 C 5.515625 -4.453125 5.515625 -4.4375 5.40625 -4.34375 L 3.5625 -2.515625 L 1.640625 -4.421875 C 1.59375 -4.453125 1.5625 -4.453125 1.546875 -4.453125 C 1.4375 -4.453125 1.34375 -4.375 1.34375 -4.265625 C 1.34375 -4.1875 1.390625 -4.15625 1.484375 -4.0625 L 3.296875 -2.25 L 1.484375 -0.421875 C 1.359375 -0.296875 1.34375 -0.265625 1.34375 -0.21875 C 1.34375 -0.109375 1.4375 -0.015625 1.546875 -0.015625 C 1.5625 -0.015625 1.59375 -0.015625 1.640625 -0.046875 L 3.5625 -1.96875 L 5.4375 -0.109375 C 5.484375 -0.046875 5.515625 -0.015625 5.59375 -0.015625 C 5.6875 -0.015625 5.78125 -0.09375 5.78125 -0.21875 C 5.78125 -0.25 5.765625 -0.296875 5.734375 -0.328125 C 5.71875 -0.359375 4.140625 -1.9375 3.828125 -2.234375 Z M 5.65625 -4.0625 "/>
</g>
<g id="glyph-4-3">
<path d="M 6.03125 -2.046875 C 6.1875 -2.046875 6.359375 -2.046875 6.359375 -2.25 C 6.359375 -2.4375 6.1875 -2.4375 6.03125 -2.4375 L 1.09375 -2.4375 C 0.953125 -2.4375 0.765625 -2.4375 0.765625 -2.25 C 0.765625 -2.046875 0.9375 -2.046875 1.09375 -2.046875 Z M 6.03125 -2.046875 "/>
</g>
<g id="glyph-4-4">
<path d="M 7.609375 -2.046875 C 6.546875 -1.28125 6.328125 -0.109375 6.328125 -0.015625 C 6.328125 0.109375 6.4375 0.109375 6.515625 0.109375 C 6.625 0.109375 6.6875 0.109375 6.71875 -0.015625 C 6.953125 -1.0625 7.5625 -1.765625 8.546875 -2.125 C 8.59375 -2.140625 8.671875 -2.15625 8.671875 -2.234375 C 8.671875 -2.3125 8.609375 -2.34375 8.546875 -2.359375 C 7.421875 -2.78125 6.921875 -3.578125 6.71875 -4.453125 C 6.6875 -4.578125 6.65625 -4.578125 6.515625 -4.578125 C 6.4375 -4.578125 6.328125 -4.578125 6.328125 -4.453125 C 6.328125 -4.359375 6.546875 -3.1875 7.609375 -2.4375 L 0.84375 -2.4375 C 0.6875 -2.4375 0.515625 -2.4375 0.515625 -2.25 C 0.515625 -2.046875 0.671875 -2.046875 0.84375 -2.046875 Z M 7.609375 -2.046875 "/>
</g>
<g id="glyph-5-0">
<path d="M 4.734375 -1.328125 C 4.828125 -1.328125 4.984375 -1.328125 4.984375 -1.484375 C 4.984375 -1.640625 4.828125 -1.640625 4.734375 -1.640625 L 0.984375 -1.640625 C 0.890625 -1.640625 0.75 -1.640625 0.75 -1.484375 C 0.75 -1.328125 0.890625 -1.328125 0.984375 -1.328125 Z M 4.734375 -1.328125 "/>
</g>
<g id="glyph-5-1">
<path d="M 2.765625 -0.84375 C 2.921875 -0.734375 2.9375 -0.734375 2.96875 -0.734375 C 3.078125 -0.734375 3.171875 -0.828125 3.171875 -0.9375 C 3.171875 -1.0625 3.078125 -1.09375 3.03125 -1.125 C 2.734375 -1.25 2.421875 -1.375 2.125 -1.484375 C 2.71875 -1.734375 2.890625 -1.796875 3 -1.84375 C 3.09375 -1.875 3.171875 -1.90625 3.171875 -2.03125 C 3.171875 -2.15625 3.078125 -2.234375 2.96875 -2.234375 C 2.921875 -2.234375 2.890625 -2.21875 2.84375 -2.1875 L 2 -1.65625 C 2 -1.734375 2.03125 -1.9375 2.03125 -2.015625 C 2.046875 -2.125 2.09375 -2.484375 2.09375 -2.59375 C 2.09375 -2.6875 2 -2.765625 1.90625 -2.765625 C 1.796875 -2.765625 1.703125 -2.6875 1.703125 -2.59375 C 1.703125 -2.578125 1.75 -2.046875 1.765625 -2.015625 C 1.765625 -1.953125 1.796875 -1.71875 1.796875 -1.65625 L 0.953125 -2.1875 C 0.90625 -2.21875 0.875 -2.234375 0.828125 -2.234375 C 0.71875 -2.234375 0.625 -2.15625 0.625 -2.03125 C 0.625 -1.90625 0.71875 -1.875 0.765625 -1.84375 C 1.0625 -1.71875 1.375 -1.59375 1.671875 -1.484375 C 1.078125 -1.234375 0.90625 -1.171875 0.796875 -1.125 C 0.703125 -1.09375 0.625 -1.0625 0.625 -0.9375 C 0.625 -0.828125 0.71875 -0.734375 0.828125 -0.734375 C 0.875 -0.734375 0.96875 -0.796875 1.046875 -0.84375 C 1.125 -0.890625 1.328125 -1.03125 1.40625 -1.078125 C 1.59375 -1.203125 1.671875 -1.25 1.796875 -1.328125 C 1.796875 -1.234375 1.765625 -1.03125 1.765625 -0.953125 L 1.703125 -0.375 C 1.703125 -0.28125 1.796875 -0.203125 1.90625 -0.203125 C 2 -0.203125 2.09375 -0.28125 2.09375 -0.375 C 2.09375 -0.390625 2.046875 -0.921875 2.03125 -0.953125 C 2.03125 -1.015625 2 -1.25 2 -1.328125 Z M 2.765625 -0.84375 "/>
</g>
<g id="glyph-6-0">
<path d="M 3.859375 -2.40625 C 3.859375 -3.078125 3.5625 -3.5 2.71875 -3.5 C 1.9375 -3.5 1.578125 -2.921875 1.484375 -2.734375 L 1.46875 -2.734375 L 1.46875 -3.5 L 0.328125 -3.40625 L 0.328125 -3.15625 C 0.859375 -3.15625 0.921875 -3.09375 0.921875 -2.703125 L 0.921875 -0.625 C 0.921875 -0.265625 0.828125 -0.265625 0.328125 -0.265625 L 0.328125 0 C 0.671875 -0.03125 1.015625 -0.03125 1.234375 -0.03125 C 1.453125 -0.03125 1.796875 -0.03125 2.140625 0 L 2.140625 -0.265625 C 1.625 -0.265625 1.53125 -0.265625 1.53125 -0.625 L 1.53125 -2.0625 C 1.53125 -2.890625 2.171875 -3.28125 2.65625 -3.28125 C 3.140625 -3.28125 3.25 -2.9375 3.25 -2.4375 L 3.25 -0.625 C 3.25 -0.265625 3.15625 -0.265625 2.65625 -0.265625 L 2.65625 0 C 3 -0.03125 3.34375 -0.03125 3.5625 -0.03125 C 3.78125 -0.03125 4.125 -0.03125 4.453125 0 L 4.453125 -0.265625 C 3.953125 -0.265625 3.859375 -0.265625 3.859375 -0.625 Z M 3.859375 -2.40625 "/>
</g>
<g id="glyph-6-1">
<path d="M 3.328125 -2.359375 C 3.328125 -3.140625 2.578125 -3.546875 1.859375 -3.546875 C 1.203125 -3.546875 0.609375 -3.28125 0.609375 -2.765625 C 0.609375 -2.53125 0.78125 -2.375 0.984375 -2.375 C 1.203125 -2.375 1.359375 -2.546875 1.359375 -2.75 C 1.359375 -2.9375 1.234375 -3.078125 1.0625 -3.125 C 1.359375 -3.3125 1.78125 -3.3125 1.84375 -3.3125 C 2.28125 -3.3125 2.734375 -3.015625 2.734375 -2.359375 L 2.734375 -2.109375 C 2.265625 -2.09375 1.734375 -2.0625 1.1875 -1.828125 C 0.484375 -1.53125 0.34375 -1.078125 0.34375 -0.8125 C 0.34375 -0.125 1.15625 0.078125 1.703125 0.078125 C 2.28125 0.078125 2.640625 -0.25 2.8125 -0.5625 C 2.84375 -0.265625 3.0625 0.046875 3.40625 0.046875 C 3.484375 0.046875 4.15625 0.015625 4.15625 -0.71875 L 4.15625 -1.15625 L 3.90625 -1.15625 L 3.90625 -0.71875 C 3.90625 -0.390625 3.796875 -0.265625 3.625 -0.265625 C 3.328125 -0.265625 3.328125 -0.625 3.328125 -0.71875 Z M 2.734375 -1.125 C 2.734375 -0.34375 2.078125 -0.140625 1.765625 -0.140625 C 1.34375 -0.140625 1 -0.421875 1 -0.796875 C 1 -1.328125 1.5 -1.859375 2.734375 -1.90625 Z M 2.734375 -1.125 "/>
</g>
<g id="glyph-6-2">
<path d="M 1.46875 -3.15625 L 2.65625 -3.15625 L 2.65625 -3.421875 L 1.46875 -3.421875 L 1.46875 -4.875 L 1.234375 -4.875 C 1.21875 -4.15625 0.890625 -3.40625 0.15625 -3.375 L 0.15625 -3.15625 L 0.875 -3.15625 L 0.875 -0.984375 C 0.875 -0.0625 1.59375 0.078125 1.953125 0.078125 C 2.484375 0.078125 2.796875 -0.390625 2.796875 -0.984375 L 2.796875 -1.4375 L 2.5625 -1.4375 L 2.5625 -1.015625 C 2.5625 -0.453125 2.3125 -0.171875 2.015625 -0.171875 C 1.46875 -0.171875 1.46875 -0.84375 1.46875 -0.96875 Z M 1.46875 -3.15625 "/>
</g>
<g id="glyph-6-3">
<path d="M 2.65625 -3.40625 L 2.65625 -3.15625 C 3.1875 -3.15625 3.25 -3.09375 3.25 -2.703125 L 3.25 -1.328125 C 3.25 -0.640625 2.84375 -0.140625 2.25 -0.140625 C 1.5625 -0.140625 1.53125 -0.484375 1.53125 -0.875 L 1.53125 -3.5 L 0.328125 -3.40625 L 0.328125 -3.15625 C 0.921875 -3.15625 0.921875 -3.125 0.921875 -2.421875 L 0.921875 -1.234375 C 0.921875 -0.65625 0.921875 0.078125 2.203125 0.078125 C 2.9375 0.078125 3.234375 -0.484375 3.265625 -0.5625 L 3.28125 -0.5625 L 3.28125 0.078125 L 4.453125 0 L 4.453125 -0.265625 C 3.921875 -0.265625 3.859375 -0.3125 3.859375 -0.703125 L 3.859375 -3.5 Z M 2.65625 -3.40625 "/>
</g>
<g id="glyph-6-4">
<path d="M 1.453125 -1.8125 C 1.453125 -2.40625 1.703125 -3.265625 2.46875 -3.28125 C 2.421875 -3.25 2.34375 -3.1875 2.34375 -3 C 2.34375 -2.75 2.53125 -2.640625 2.6875 -2.640625 C 2.875 -2.640625 3.046875 -2.765625 3.046875 -3 C 3.046875 -3.28125 2.796875 -3.5 2.4375 -3.5 C 1.921875 -3.5 1.578125 -3.109375 1.40625 -2.671875 L 1.40625 -3.5 L 0.28125 -3.40625 L 0.28125 -3.15625 C 0.8125 -3.15625 0.875 -3.09375 0.875 -2.703125 L 0.875 -0.625 C 0.875 -0.265625 0.78125 -0.265625 0.28125 -0.265625 L 0.28125 0 C 0.59375 -0.03125 1.03125 -0.03125 1.21875 -0.03125 C 1.6875 -0.03125 1.703125 -0.03125 2.21875 0 L 2.21875 -0.265625 L 2.0625 -0.265625 C 1.46875 -0.265625 1.453125 -0.34375 1.453125 -0.640625 Z M 1.453125 -1.8125 "/>
</g>
<g id="glyph-6-5">
<path d="M 1.515625 -5.515625 L 0.328125 -5.421875 L 0.328125 -5.15625 C 0.875 -5.15625 0.9375 -5.109375 0.9375 -4.71875 L 0.9375 -0.625 C 0.9375 -0.265625 0.84375 -0.265625 0.328125 -0.265625 L 0.328125 0 C 0.640625 -0.03125 1.09375 -0.03125 1.21875 -0.03125 C 1.375 -0.03125 1.8125 -0.03125 2.125 0 L 2.125 -0.265625 C 1.609375 -0.265625 1.515625 -0.265625 1.515625 -0.625 Z M 1.515625 -5.515625 "/>
</g>
<g id="glyph-6-6">
<path d="M 2.09375 1.28125 C 1.578125 1.28125 1.484375 1.28125 1.484375 0.921875 L 1.484375 -0.390625 C 1.859375 0.015625 2.265625 0.078125 2.515625 0.078125 C 3.53125 0.078125 4.390625 -0.703125 4.390625 -1.71875 C 4.390625 -2.703125 3.59375 -3.5 2.640625 -3.5 C 2.328125 -3.5 1.859375 -3.421875 1.453125 -3.015625 L 1.453125 -3.5 L 0.28125 -3.40625 L 0.28125 -3.15625 C 0.84375 -3.15625 0.875 -3.109375 0.875 -2.765625 L 0.875 0.921875 C 0.875 1.28125 0.78125 1.28125 0.28125 1.28125 L 0.28125 1.546875 C 0.625 1.515625 0.96875 1.515625 1.1875 1.515625 C 1.40625 1.515625 1.75 1.515625 2.09375 1.546875 Z M 1.484375 -2.640625 C 1.671875 -2.953125 2.0625 -3.25 2.5625 -3.25 C 3.171875 -3.25 3.6875 -2.578125 3.6875 -1.71875 C 3.6875 -0.796875 3.125 -0.140625 2.46875 -0.140625 C 2.203125 -0.140625 1.828125 -0.265625 1.578125 -0.65625 C 1.484375 -0.796875 1.484375 -0.796875 1.484375 -0.953125 Z M 1.484375 -2.640625 "/>
</g>
<g id="glyph-6-7">
<path d="M 3.28125 -1.8125 C 3.453125 -1.8125 3.5 -1.8125 3.5 -2 C 3.5 -2.703125 3.109375 -3.546875 2 -3.546875 C 1.015625 -3.546875 0.234375 -2.71875 0.234375 -1.734375 C 0.234375 -0.71875 1.09375 0.078125 2.09375 0.078125 C 3.109375 0.078125 3.5 -0.765625 3.5 -0.953125 C 3.5 -0.984375 3.484375 -1.0625 3.375 -1.0625 C 3.28125 -1.0625 3.265625 -1.015625 3.25 -0.953125 C 2.96875 -0.1875 2.28125 -0.171875 2.140625 -0.171875 C 1.78125 -0.171875 1.421875 -0.328125 1.1875 -0.703125 C 0.9375 -1.0625 0.9375 -1.578125 0.9375 -1.8125 Z M 0.953125 -2.015625 C 1.03125 -3.125 1.703125 -3.3125 2 -3.3125 C 2.921875 -3.3125 2.953125 -2.203125 2.953125 -2.015625 Z M 0.953125 -2.015625 "/>
</g>
<g id="glyph-6-8">
<path d="M 1.515625 -3.15625 L 2.46875 -3.15625 L 2.46875 -3.421875 L 1.5 -3.421875 L 1.5 -4.3125 C 1.5 -5.015625 1.875 -5.359375 2.234375 -5.359375 C 2.359375 -5.359375 2.421875 -5.328125 2.453125 -5.328125 C 2.3125 -5.25 2.28125 -5.125 2.28125 -5.015625 C 2.28125 -4.8125 2.421875 -4.65625 2.640625 -4.65625 C 2.84375 -4.65625 3 -4.8125 3 -5.015625 C 3 -5.359375 2.65625 -5.59375 2.234375 -5.59375 C 1.640625 -5.59375 0.9375 -5.15625 0.9375 -4.3125 L 0.9375 -3.421875 L 0.28125 -3.421875 L 0.28125 -3.15625 L 0.9375 -3.15625 L 0.9375 -0.625 C 0.9375 -0.265625 0.84375 -0.265625 0.328125 -0.265625 L 0.328125 0 C 0.640625 -0.03125 1.078125 -0.03125 1.265625 -0.03125 C 1.734375 -0.03125 1.75 -0.03125 2.265625 0 L 2.265625 -0.265625 L 2.109375 -0.265625 C 1.53125 -0.265625 1.515625 -0.34375 1.515625 -0.640625 Z M 1.515625 -3.15625 "/>
</g>
<g id="glyph-6-9">
<path d="M 2.921875 -3.15625 C 2.703125 -3.078125 2.671875 -2.890625 2.671875 -2.796875 C 2.671875 -2.59375 2.8125 -2.421875 3.046875 -2.421875 C 3.25 -2.421875 3.40625 -2.578125 3.40625 -2.8125 C 3.40625 -3.296875 2.875 -3.546875 2.125 -3.546875 C 1.03125 -3.546875 0.28125 -2.65625 0.28125 -1.71875 C 0.28125 -0.703125 1.109375 0.078125 2.109375 0.078125 C 3.21875 0.078125 3.5 -0.859375 3.5 -0.953125 C 3.5 -1.046875 3.390625 -1.046875 3.375 -1.046875 C 3.3125 -1.046875 3.28125 -1.046875 3.25 -0.953125 C 3.203125 -0.796875 2.96875 -0.171875 2.1875 -0.171875 C 1.6875 -0.171875 0.984375 -0.546875 0.984375 -1.71875 C 0.984375 -2.859375 1.578125 -3.296875 2.15625 -3.296875 C 2.21875 -3.296875 2.640625 -3.296875 2.921875 -3.15625 Z M 2.921875 -3.15625 "/>
</g>
<g id="glyph-6-10">
<path d="M 1.546875 -4.890625 C 1.546875 -5.125 1.359375 -5.328125 1.109375 -5.328125 C 0.875 -5.328125 0.671875 -5.15625 0.671875 -4.890625 C 0.671875 -4.625 0.890625 -4.453125 1.109375 -4.453125 C 1.375 -4.453125 1.546875 -4.6875 1.546875 -4.890625 Z M 0.359375 -3.40625 L 0.359375 -3.15625 C 0.859375 -3.15625 0.9375 -3.109375 0.9375 -2.71875 L 0.9375 -0.625 C 0.9375 -0.265625 0.84375 -0.265625 0.328125 -0.265625 L 0.328125 0 C 0.640625 -0.03125 1.09375 -0.03125 1.203125 -0.03125 C 1.3125 -0.03125 1.78125 -0.03125 2.0625 0 L 2.0625 -0.265625 C 1.546875 -0.265625 1.515625 -0.296875 1.515625 -0.609375 L 1.515625 -3.5 Z M 0.359375 -3.40625 "/>
</g>
<g id="glyph-6-11">
<path d="M 1.375 -0.546875 C 1.125 -0.578125 0.921875 -0.78125 0.921875 -1.078125 C 0.921875 -1.265625 0.96875 -1.328125 1.03125 -1.40625 C 1.359375 -1.203125 1.671875 -1.171875 1.859375 -1.171875 C 2.65625 -1.171875 3.234375 -1.71875 3.234375 -2.328125 C 3.234375 -2.640625 3.09375 -2.890625 2.90625 -3.09375 C 3.015625 -3.1875 3.28125 -3.359375 3.671875 -3.359375 C 3.640625 -3.34375 3.59375 -3.296875 3.59375 -3.171875 C 3.59375 -3.03125 3.703125 -2.921875 3.84375 -2.921875 C 3.953125 -2.921875 4.09375 -3 4.09375 -3.1875 C 4.09375 -3.3125 3.984375 -3.59375 3.640625 -3.59375 C 3.5 -3.59375 3.125 -3.5625 2.75 -3.21875 C 2.5625 -3.359375 2.25 -3.5 1.875 -3.5 C 1.09375 -3.5 0.515625 -2.953125 0.515625 -2.328125 C 0.515625 -1.953125 0.71875 -1.6875 0.875 -1.53125 C 0.703125 -1.328125 0.640625 -1.078125 0.640625 -0.875 C 0.640625 -0.5625 0.796875 -0.3125 0.96875 -0.171875 C 0.5625 -0.0625 0.234375 0.25 0.234375 0.609375 C 0.234375 1.1875 1.0625 1.625 2.109375 1.625 C 3.09375 1.625 3.96875 1.21875 3.96875 0.59375 C 3.96875 0.171875 3.71875 -0.171875 3.453125 -0.296875 C 2.984375 -0.546875 2.59375 -0.546875 1.8125 -0.546875 Z M 1.875 -1.390625 C 1.140625 -1.390625 1.140625 -2.15625 1.140625 -2.328125 C 1.140625 -2.625 1.171875 -2.828125 1.296875 -3 C 1.421875 -3.171875 1.65625 -3.265625 1.859375 -3.265625 C 2.609375 -3.265625 2.609375 -2.515625 2.609375 -2.328125 C 2.609375 -2.046875 2.5625 -1.828125 2.4375 -1.671875 C 2.265625 -1.453125 2.015625 -1.390625 1.875 -1.390625 Z M 2.25 -0.03125 C 2.453125 -0.03125 3.5 -0.03125 3.5 0.609375 C 3.5 1.03125 2.890625 1.390625 2.109375 1.390625 C 1.3125 1.390625 0.703125 1.03125 0.703125 0.609375 C 0.703125 0.4375 0.828125 -0.03125 1.484375 -0.03125 Z M 2.25 -0.03125 "/>
</g>
<g id="glyph-6-12">
<path d="M 3.765625 -2.703125 C 4.375 -2.859375 5.140625 -3.3125 5.140625 -4 C 5.140625 -4.78125 4.140625 -5.421875 2.953125 -5.421875 L 0.359375 -5.421875 L 0.359375 -5.15625 L 0.546875 -5.15625 C 1.15625 -5.15625 1.171875 -5.078125 1.171875 -4.78125 L 1.171875 -0.640625 C 1.171875 -0.34375 1.15625 -0.265625 0.546875 -0.265625 L 0.359375 -0.265625 L 0.359375 0 C 1.046875 -0.03125 1.0625 -0.03125 1.515625 -0.03125 C 1.984375 -0.03125 2 -0.03125 2.671875 0 L 2.671875 -0.265625 L 2.5 -0.265625 C 1.890625 -0.265625 1.875 -0.34375 1.875 -0.640625 L 1.875 -2.609375 L 2.875 -2.609375 C 3.453125 -2.609375 3.71875 -2.3125 3.78125 -2.25 C 4.015625 -2 4.015625 -1.84375 4.015625 -1.296875 C 4.015625 -0.796875 4.015625 -0.453125 4.34375 -0.171875 C 4.6875 0.125 5.125 0.171875 5.359375 0.171875 C 6.015625 0.171875 6.171875 -0.484375 6.171875 -0.71875 C 6.171875 -0.765625 6.171875 -0.875 6.046875 -0.875 C 5.9375 -0.875 5.9375 -0.78125 5.921875 -0.734375 C 5.890625 -0.234375 5.609375 -0.0625 5.390625 -0.0625 C 4.953125 -0.0625 4.90625 -0.421875 4.765625 -1.421875 C 4.71875 -1.875 4.640625 -2.421875 3.765625 -2.703125 Z M 2.84375 -2.828125 L 1.875 -2.828125 L 1.875 -4.828125 C 1.875 -5.046875 1.875 -5.125 2.078125 -5.15625 C 2.140625 -5.15625 2.390625 -5.15625 2.5625 -5.15625 C 3.265625 -5.15625 4.3125 -5.15625 4.3125 -4 C 4.3125 -3.109375 3.6875 -2.828125 2.84375 -2.828125 Z M 2.84375 -2.828125 "/>
</g>
<g id="glyph-6-13">
<path d="M 6.203125 -2.40625 C 6.203125 -3.046875 5.921875 -3.5 5.0625 -3.5 C 4.328125 -3.5 3.953125 -3 3.828125 -2.765625 C 3.6875 -3.34375 3.234375 -3.5 2.71875 -3.5 C 1.953125 -3.5 1.59375 -2.953125 1.484375 -2.734375 L 1.46875 -2.734375 L 1.46875 -3.5 L 0.328125 -3.40625 L 0.328125 -3.15625 C 0.859375 -3.15625 0.921875 -3.09375 0.921875 -2.703125 L 0.921875 -0.625 C 0.921875 -0.265625 0.828125 -0.265625 0.328125 -0.265625 L 0.328125 0 C 0.671875 -0.03125 1.015625 -0.03125 1.234375 -0.03125 C 1.453125 -0.03125 1.796875 -0.03125 2.140625 0 L 2.140625 -0.265625 C 1.625 -0.265625 1.53125 -0.265625 1.53125 -0.625 L 1.53125 -2.0625 C 1.53125 -2.890625 2.15625 -3.28125 2.65625 -3.28125 C 3.171875 -3.28125 3.265625 -2.875 3.265625 -2.4375 L 3.265625 -0.625 C 3.265625 -0.265625 3.171875 -0.265625 2.65625 -0.265625 L 2.65625 0 C 3 -0.03125 3.34375 -0.03125 3.5625 -0.03125 C 3.796875 -0.03125 4.125 -0.03125 4.46875 0 L 4.46875 -0.265625 C 3.953125 -0.265625 3.859375 -0.265625 3.859375 -0.625 L 3.859375 -2.0625 C 3.859375 -2.890625 4.5 -3.28125 5 -3.28125 C 5.515625 -3.28125 5.59375 -2.875 5.59375 -2.4375 L 5.59375 -0.625 C 5.59375 -0.265625 5.5 -0.265625 5 -0.265625 L 5 0 C 5.328125 -0.03125 5.6875 -0.03125 5.890625 -0.03125 C 6.125 -0.03125 6.46875 -0.03125 6.796875 0 L 6.796875 -0.265625 C 6.296875 -0.265625 6.203125 -0.265625 6.203125 -0.625 Z M 6.203125 -2.40625 "/>
</g>
<g id="glyph-6-14">
<path d="M 2.328125 -1.453125 L 2.328125 -1.96875 L 0.09375 -1.96875 L 0.09375 -1.453125 Z M 2.328125 -1.453125 "/>
</g>
<g id="glyph-6-15">
<path d="M 3.96875 -1.6875 C 3.96875 -2.6875 3.15625 -3.546875 2.109375 -3.546875 C 1.0625 -3.546875 0.234375 -2.6875 0.234375 -1.6875 C 0.234375 -0.703125 1.09375 0.078125 2.109375 0.078125 C 3.125 0.078125 3.96875 -0.703125 3.96875 -1.6875 Z M 2.109375 -0.171875 C 1.671875 -0.171875 1.34375 -0.375 1.171875 -0.65625 C 0.96875 -0.96875 0.9375 -1.359375 0.9375 -1.765625 C 0.9375 -2.0625 0.9375 -2.546875 1.1875 -2.875 C 1.390625 -3.15625 1.734375 -3.3125 2.109375 -3.3125 C 2.515625 -3.3125 2.859375 -3.125 3.046875 -2.84375 C 3.25 -2.515625 3.265625 -2.078125 3.265625 -1.765625 C 3.265625 -1.390625 3.25 -0.953125 3.03125 -0.625 C 2.8125 -0.3125 2.453125 -0.171875 2.109375 -0.171875 Z M 2.109375 -0.171875 "/>
</g>
<g id="glyph-6-16">
<path d="M 3.859375 -2.40625 C 3.859375 -3.078125 3.5625 -3.5 2.71875 -3.5 C 2.03125 -3.5 1.65625 -3.0625 1.515625 -2.796875 L 1.515625 -5.515625 L 0.328125 -5.421875 L 0.328125 -5.15625 C 0.859375 -5.15625 0.921875 -5.109375 0.921875 -4.71875 L 0.921875 -0.625 C 0.921875 -0.265625 0.828125 -0.265625 0.328125 -0.265625 L 0.328125 0 C 0.671875 -0.03125 1.015625 -0.03125 1.234375 -0.03125 C 1.453125 -0.03125 1.796875 -0.03125 2.140625 0 L 2.140625 -0.265625 C 1.625 -0.265625 1.53125 -0.265625 1.53125 -0.625 L 1.53125 -2.0625 C 1.53125 -2.890625 2.171875 -3.28125 2.65625 -3.28125 C 3.140625 -3.28125 3.25 -2.9375 3.25 -2.4375 L 3.25 -0.625 C 3.25 -0.265625 3.15625 -0.265625 2.65625 -0.265625 L 2.65625 0 C 3 -0.03125 3.34375 -0.03125 3.5625 -0.03125 C 3.78125 -0.03125 4.125 -0.03125 4.453125 0 L 4.453125 -0.265625 C 3.953125 -0.265625 3.859375 -0.265625 3.859375 -0.625 Z M 3.859375 -2.40625 "/>
</g>
<g id="glyph-6-17">
<path d="M 2.640625 1.984375 C 2.703125 1.984375 2.796875 1.984375 2.796875 1.890625 C 2.796875 1.859375 2.796875 1.84375 2.6875 1.75 C 1.609375 0.71875 1.328125 -0.75 1.328125 -1.984375 C 1.328125 -4.265625 2.28125 -5.34375 2.6875 -5.703125 C 2.796875 -5.8125 2.796875 -5.8125 2.796875 -5.859375 C 2.796875 -5.890625 2.765625 -5.953125 2.6875 -5.953125 C 2.5625 -5.953125 2.171875 -5.546875 2.109375 -5.484375 C 1.046875 -4.359375 0.8125 -2.9375 0.8125 -1.984375 C 0.8125 -0.203125 1.5625 1.21875 2.640625 1.984375 Z M 2.640625 1.984375 "/>
</g>
<g id="glyph-6-18">
<path d="M 3.515625 -2.609375 C 3.703125 -3.046875 3.984375 -3.15625 4.265625 -3.15625 L 4.265625 -3.421875 C 4 -3.390625 3.984375 -3.390625 3.65625 -3.390625 C 3.578125 -3.390625 3.203125 -3.390625 2.953125 -3.421875 L 2.953125 -3.15625 C 3.234375 -3.140625 3.3125 -2.96875 3.3125 -2.828125 C 3.3125 -2.75 3.296875 -2.71875 3.265625 -2.640625 L 2.40625 -0.640625 L 1.46875 -2.796875 C 1.421875 -2.890625 1.421875 -2.9375 1.421875 -2.953125 C 1.421875 -3.15625 1.703125 -3.15625 1.84375 -3.15625 L 1.84375 -3.421875 C 1.5 -3.390625 1.125 -3.390625 0.96875 -3.390625 C 0.8125 -3.390625 0.421875 -3.390625 0.171875 -3.421875 L 0.171875 -3.15625 C 0.65625 -3.15625 0.703125 -3.109375 0.8125 -2.84375 L 2.015625 -0.09375 C 2.0625 0.03125 2.109375 0.078125 2.21875 0.078125 C 2.328125 0.078125 2.390625 0.015625 2.421875 -0.078125 Z M 3.515625 -2.609375 "/>
</g>
<g id="glyph-6-19">
<path d="M 1.84375 -3.3125 C 1.34375 -3.421875 0.96875 -3.828125 0.96875 -4.3125 C 0.96875 -4.84375 1.421875 -5.34375 2.125 -5.34375 C 3.5 -5.34375 3.671875 -4.0625 3.71875 -3.765625 C 3.734375 -3.671875 3.734375 -3.625 3.84375 -3.625 C 3.96875 -3.625 3.96875 -3.671875 3.96875 -3.828125 L 3.96875 -5.375 C 3.96875 -5.515625 3.96875 -5.59375 3.859375 -5.59375 C 3.796875 -5.59375 3.78125 -5.5625 3.734375 -5.484375 L 3.453125 -5.03125 C 3.0625 -5.46875 2.546875 -5.59375 2.109375 -5.59375 C 1.171875 -5.59375 0.46875 -4.875 0.46875 -4.0625 C 0.46875 -3.453125 0.8125 -3.125 0.953125 -2.96875 C 1.25 -2.6875 1.515625 -2.625 2.359375 -2.421875 C 3.046875 -2.265625 3.171875 -2.25 3.421875 -1.96875 C 3.515625 -1.875 3.703125 -1.609375 3.703125 -1.21875 C 3.703125 -0.671875 3.28125 -0.09375 2.546875 -0.09375 C 1.671875 -0.09375 0.765625 -0.515625 0.71875 -1.625 C 0.703125 -1.75 0.703125 -1.796875 0.59375 -1.796875 C 0.46875 -1.796875 0.46875 -1.734375 0.46875 -1.59375 L 0.46875 -0.046875 C 0.46875 0.09375 0.46875 0.171875 0.578125 0.171875 C 0.640625 0.171875 0.640625 0.15625 0.703125 0.078125 C 0.734375 0.03125 0.765625 -0.046875 0.984375 -0.375 C 1.484375 0.0625 2.078125 0.171875 2.546875 0.171875 C 3.546875 0.171875 4.203125 -0.625 4.203125 -1.46875 C 4.203125 -2.15625 3.75 -2.859375 2.9375 -3.0625 Z M 1.84375 -3.3125 "/>
</g>
<g id="glyph-6-20">
<path d="M 2.609375 -5.421875 L 2.609375 -5.15625 C 3.15625 -5.15625 3.21875 -5.109375 3.21875 -4.71875 L 3.21875 -3.046875 C 2.9375 -3.34375 2.5625 -3.5 2.15625 -3.5 C 1.15625 -3.5 0.28125 -2.734375 0.28125 -1.703125 C 0.28125 -0.734375 1.078125 0.078125 2.078125 0.078125 C 2.546875 0.078125 2.921875 -0.140625 3.1875 -0.421875 L 3.1875 0.078125 L 4.390625 0 L 4.390625 -0.265625 C 3.859375 -0.265625 3.796875 -0.3125 3.796875 -0.703125 L 3.796875 -5.515625 Z M 3.1875 -0.984375 C 3.1875 -0.84375 3.1875 -0.8125 3.078125 -0.65625 C 2.84375 -0.328125 2.484375 -0.140625 2.109375 -0.140625 C 1.75 -0.140625 1.421875 -0.328125 1.234375 -0.625 C 1.03125 -0.9375 0.984375 -1.328125 0.984375 -1.703125 C 0.984375 -2.15625 1.0625 -2.484375 1.234375 -2.765625 C 1.421875 -3.0625 1.78125 -3.28125 2.1875 -3.28125 C 2.578125 -3.28125 2.953125 -3.09375 3.1875 -2.671875 Z M 3.1875 -0.984375 "/>
</g>
<g id="glyph-6-21">
<path d="M 3.515625 -2.625 C 3.71875 -3.078125 4.015625 -3.15625 4.265625 -3.15625 L 4.265625 -3.421875 C 4 -3.390625 3.984375 -3.390625 3.640625 -3.390625 C 3.609375 -3.390625 3.1875 -3.390625 2.953125 -3.421875 L 2.953125 -3.15625 C 3.1875 -3.140625 3.296875 -3.015625 3.296875 -2.828125 C 3.296875 -2.78125 3.296875 -2.734375 3.25 -2.640625 L 2.40625 -0.71875 L 1.484375 -2.796875 C 1.421875 -2.90625 1.421875 -2.921875 1.421875 -2.953125 C 1.421875 -3.15625 1.671875 -3.15625 1.84375 -3.15625 L 1.84375 -3.421875 C 1.5 -3.390625 1.15625 -3.390625 0.96875 -3.390625 C 0.8125 -3.390625 0.421875 -3.390625 0.171875 -3.421875 L 0.171875 -3.15625 C 0.59375 -3.15625 0.703125 -3.140625 0.828125 -2.84375 L 2.09375 0 C 1.734375 0.84375 1.5 1.390625 0.9375 1.390625 C 0.734375 1.390625 0.609375 1.296875 0.609375 1.296875 C 0.671875 1.28125 0.84375 1.203125 0.84375 0.96875 C 0.84375 0.75 0.6875 0.625 0.515625 0.625 C 0.34375 0.625 0.171875 0.734375 0.171875 0.96875 C 0.171875 1.328125 0.515625 1.625 0.9375 1.625 C 1.640625 1.625 2.03125 0.765625 2.0625 0.6875 Z M 3.515625 -2.625 "/>
</g>
<g id="glyph-6-22">
<path d="M 2.453125 -1.984375 C 2.453125 -2.734375 2.328125 -3.640625 1.828125 -4.578125 C 1.4375 -5.3125 0.71875 -5.953125 0.578125 -5.953125 C 0.5 -5.953125 0.46875 -5.890625 0.46875 -5.859375 C 0.46875 -5.828125 0.46875 -5.8125 0.578125 -5.71875 C 1.6875 -4.65625 1.9375 -3.203125 1.9375 -1.984375 C 1.9375 0.296875 0.984375 1.375 0.59375 1.734375 C 0.484375 1.84375 0.46875 1.84375 0.46875 1.890625 C 0.46875 1.921875 0.5 1.984375 0.578125 1.984375 C 0.703125 1.984375 1.109375 1.578125 1.171875 1.515625 C 2.234375 0.390625 2.453125 -1.03125 2.453125 -1.984375 Z M 2.453125 -1.984375 "/>
</g>
<g id="glyph-7-0">
<path d="M 5.875 -6 C 5.875 -6.15625 5.875 -6.296875 5.71875 -6.296875 C 5.71875 -6.296875 5.578125 -6.296875 5.5625 -6.125 C 5.53125 -5.875 5.328125 -5.875 5.265625 -5.875 C 4.953125 -5.875 4.640625 -6.015625 4.453125 -6.09375 C 4 -6.296875 3.625 -6.296875 3.484375 -6.296875 C 1.984375 -6.296875 0.328125 -5.359375 0.328125 -3.0625 C 0.328125 -0.78125 1.953125 0.171875 3.5 0.171875 C 3.96875 0.171875 4.609375 0.078125 5.25 -0.328125 C 5.671875 -0.578125 6.125 -1.03125 6.125 -1.15625 C 6.125 -1.28125 5.984375 -1.328125 5.9375 -1.328125 C 5.875 -1.328125 5.84375 -1.3125 5.75 -1.203125 C 5.234375 -0.609375 4.4375 -0.265625 3.640625 -0.265625 C 2.25 -0.265625 1.90625 -1.65625 1.90625 -3.046875 C 1.90625 -4.8125 2.546875 -5.984375 3.5 -5.984375 C 4.171875 -5.984375 5.25 -5.328125 5.546875 -4.375 C 5.578125 -4.296875 5.609375 -4.203125 5.71875 -4.203125 C 5.875 -4.203125 5.875 -4.359375 5.875 -4.5 Z M 5.5625 -5.078125 C 5.453125 -5.234375 5.328125 -5.34375 5.109375 -5.578125 C 5.15625 -5.5625 5.234375 -5.5625 5.265625 -5.5625 C 5.375 -5.5625 5.484375 -5.59375 5.5625 -5.625 Z M 2.390625 -5.78125 C 2.1875 -5.5625 1.59375 -4.796875 1.59375 -3.046875 C 1.59375 -2.15625 1.71875 -0.921875 2.53125 -0.28125 C 1.0625 -0.765625 0.640625 -1.96875 0.640625 -3.0625 C 0.640625 -4.703125 1.546875 -5.5 2.390625 -5.78125 Z M 2.390625 -5.78125 "/>
</g>
</g>
</defs>
<path fill-rule="nonzero" fill="rgb(95.999146%, 95.999146%, 100%)" fill-opacity="1" d="M 4.632812 229.285156 L 4.632812 15.878906 C 4.632812 9.300781 9.964844 3.96875 16.542969 3.96875 L 388.097656 3.96875 C 394.675781 3.96875 400.007812 9.300781 400.007812 15.878906 L 400.007812 229.285156 C 400.007812 235.863281 394.675781 241.195312 388.097656 241.195312 L 16.542969 241.195312 C 9.964844 241.195312 4.632812 235.863281 4.632812 229.285156 Z M 4.632812 229.285156 "/>
<path fill-rule="nonzero" fill="rgb(95.999146%, 95.999146%, 100%)" fill-opacity="1" stroke-width="0.3985" stroke-linecap="butt" stroke-linejoin="miter" stroke="rgb(0%, 0%, 50%)" stroke-opacity="1" stroke-miterlimit="10" d="M -78.309093 10.92832 L -120.117159 10.92832 C -122.320679 10.92832 -124.104668 9.144332 -124.104668 6.944733 L -124.104668 -6.942932 C -124.104668 -9.146452 -122.320679 -10.930441 -120.117159 -10.930441 L -78.309093 -10.930441 C -76.109494 -10.930441 -74.325505 -9.146452 -74.325505 -6.942932 L -74.325505 6.944733 C -74.325505 9.144332 -76.109494 10.92832 -78.309093 10.92832 Z M -78.309093 10.92832 " transform="matrix(0.996275, 0, 0, -0.996275, 174.079915, 99.989178)"/>
<g fill="rgb(0%, 0%, 0%)" fill-opacity="1">
<use xlink:href="#glyph-0-0" x="56.395891" y="102.689084"/>
</g>
<g fill="rgb(0%, 0%, 0%)" fill-opacity="1">
<use xlink:href="#glyph-1-0" x="64.699846" y="98.894272"/>
</g>
<g fill="rgb(0%, 0%, 0%)" fill-opacity="1">
<use xlink:href="#glyph-2-0" x="68.835385" y="102.689084"/>
</g>
<g fill="rgb(0%, 0%, 0%)" fill-opacity="1">
<use xlink:href="#glyph-0-1" x="72.405906" y="102.689084"/>
</g>
<g fill="rgb(0%, 0%, 0%)" fill-opacity="1">
<use xlink:href="#glyph-0-2" x="80.177619" y="102.689084"/>
</g>
<g fill="rgb(0%, 0%, 0%)" fill-opacity="1">
<use xlink:href="#glyph-0-3" x="84.255535" y="102.689084"/>
</g>
<g fill="rgb(0%, 0%, 0%)" fill-opacity="1">
<use xlink:href="#glyph-2-1" x="90.503277" y="102.689084"/>
</g>
<path fill-rule="nonzero" fill="rgb(95.999146%, 97.999573%, 97.999573%)" fill-opacity="1" stroke-width="0.3985" stroke-linecap="butt" stroke-linejoin="miter" stroke="rgb(0%, 25%, 25%)" stroke-opacity="1" stroke-miterlimit="10" d="M 140.235388 10.92832 L 58.191518 10.92832 C 55.987998 10.92832 54.204009 9.144332 54.204009 6.944733 L 54.204009 -6.942932 C 54.204009 -9.146452 55.987998 -10.930441 58.191518 -10.930441 L 140.235388 -10.930441 C 142.438907 -10.930441 144.222896 -9.146452 144.222896 -6.942932 L 144.222896 6.944733 C 144.222896 9.144332 142.438907 10.92832 140.235388 10.92832 Z M 140.235388 10.92832 " transform="matrix(0.996275, 0, 0, -0.996275, 174.079915, 99.989178)"/>
<g fill="rgb(0%, 0%, 0%)" fill-opacity="1">
<use xlink:href="#glyph-0-0" x="234.037756" y="102.689084"/>
</g>
<g fill="rgb(0%, 0%, 0%)" fill-opacity="1">
<use xlink:href="#glyph-1-1" x="242.342707" y="98.894272"/>
</g>
<g fill="rgb(0%, 0%, 0%)" fill-opacity="1">
<use xlink:href="#glyph-2-0" x="246.478246" y="102.689084"/>
</g>
<g fill="rgb(0%, 0%, 0%)" fill-opacity="1">
<use xlink:href="#glyph-0-1" x="250.048767" y="102.689084"/>
</g>
<g fill="rgb(0%, 0%, 0%)" fill-opacity="1">
<use xlink:href="#glyph-0-2" x="257.820479" y="102.689084"/>
</g>
<g fill="rgb(0%, 0%, 0%)" fill-opacity="1">
<use xlink:href="#glyph-0-4" x="261.898395" y="102.689084"/>
</g>
<g fill="rgb(0%, 0%, 0%)" fill-opacity="1">
<use xlink:href="#glyph-3-0" x="269.676516" y="103.681375"/>
</g>
<g fill="rgb(0%, 0%, 0%)" fill-opacity="1">
<use xlink:href="#glyph-4-0" x="278.637016" y="102.689084"/>
</g>
<g fill="rgb(0%, 0%, 0%)" fill-opacity="1">
<use xlink:href="#glyph-0-3" x="287.814783" y="102.689084"/>
</g>
<g fill="rgb(0%, 0%, 0%)" fill-opacity="1">
<use xlink:href="#glyph-5-0" x="294.065335" y="98.894272"/>
</g>
<g fill="rgb(0%, 0%, 0%)" fill-opacity="1">
<use xlink:href="#glyph-1-0" x="299.800323" y="98.894272"/>
</g>
<g fill="rgb(0%, 0%, 0%)" fill-opacity="1">
<use xlink:href="#glyph-2-1" x="303.935435" y="102.689084"/>
</g>
<g fill="rgb(0%, 0%, 0%)" fill-opacity="1">
<use xlink:href="#glyph-5-1" x="307.506086" y="98.894272"/>
</g>
<path fill="none" stroke-width="0.79701" stroke-linecap="butt" stroke-linejoin="miter" stroke="rgb(0%, 0%, 0%)" stroke-opacity="1" stroke-miterlimit="10" d="M -74.125542 0.000900403 L 49.549956 0.000900403 " transform="matrix(0.996275, 0, 0, -0.996275, 174.079915, 99.989178)"/>
<path fill-rule="nonzero" fill="rgb(0%, 0%, 0%)" fill-opacity="1" stroke-width="0.79701" stroke-linecap="butt" stroke-linejoin="miter" stroke="rgb(0%, 0%, 0%)" stroke-opacity="1" stroke-miterlimit="10" d="M 5.951289 0.000900403 L 1.285473 1.761364 L 2.830289 0.000900403 L 1.285473 -1.763484 Z M 5.951289 0.000900403 " transform="matrix(0.996275, 0, 0, -0.996275, 220.824784, 99.989178)"/>
<g fill="rgb(0%, 0%, 0%)" fill-opacity="1">
<use xlink:href="#glyph-4-1" x="160.487731" y="93.454609"/>
</g>
<g fill="rgb(0%, 0%, 0%)" fill-opacity="1">
<use xlink:href="#glyph-2-2" x="160.487731" y="96.28403"/>
</g>
<g fill="rgb(0%, 0%, 0%)" fill-opacity="1">
<use xlink:href="#glyph-6-0" x="122.33238" y="109.20871"/>
<use xlink:href="#glyph-6-1" x="127.019606" y="109.20871"/>
<use xlink:href="#glyph-6-2" x="131.238348" y="109.20871"/>
<use xlink:href="#glyph-6-3" x="134.519327" y="109.20871"/>
<use xlink:href="#glyph-6-4" x="139.206553" y="109.20871"/>
<use xlink:href="#glyph-6-1" x="142.494679" y="109.20871"/>
<use xlink:href="#glyph-6-5" x="146.71342" y="109.20871"/>
</g>
<g fill="rgb(0%, 0%, 0%)" fill-opacity="1">
<use xlink:href="#glyph-6-6" x="151.867543" y="109.20871"/>
</g>
<g fill="rgb(0%, 0%, 0%)" fill-opacity="1">
<use xlink:href="#glyph-6-7" x="156.792982" y="109.20871"/>
<use xlink:href="#glyph-6-4" x="160.542445" y="109.20871"/>
<use xlink:href="#glyph-6-8" x="163.830571" y="109.20871"/>
</g>
<g fill="rgb(0%, 0%, 0%)" fill-opacity="1">
<use xlink:href="#glyph-6-7" x="166.400882" y="109.20871"/>
</g>
<g fill="rgb(0%, 0%, 0%)" fill-opacity="1">
<use xlink:href="#glyph-6-9" x="170.158286" y="109.20871"/>
<use xlink:href="#glyph-6-2" x="173.90775" y="109.20871"/>
</g>
<g fill="rgb(0%, 0%, 0%)" fill-opacity="1">
<use xlink:href="#glyph-6-6" x="179.999635" y="109.20871"/>
<use xlink:href="#glyph-6-1" x="184.686861" y="109.20871"/>
<use xlink:href="#glyph-6-10" x="188.905603" y="109.20871"/>
<use xlink:href="#glyph-6-4" x="191.248819" y="109.20871"/>
<use xlink:href="#glyph-6-10" x="194.536945" y="109.20871"/>
<use xlink:href="#glyph-6-0" x="196.880161" y="109.20871"/>
<use xlink:href="#glyph-6-11" x="201.567387" y="109.20871"/>
</g>
<g fill="rgb(0%, 0%, 0%)" fill-opacity="1">
<use xlink:href="#glyph-0-0" x="56.395891" y="159.169924"/>
</g>
<g fill="rgb(0%, 0%, 0%)" fill-opacity="1">
<use xlink:href="#glyph-1-0" x="64.699846" y="155.375111"/>
</g>
<g fill="rgb(0%, 0%, 0%)" fill-opacity="1">
<use xlink:href="#glyph-2-0" x="68.835385" y="159.169924"/>
</g>
<g fill="rgb(0%, 0%, 0%)" fill-opacity="1">
<use xlink:href="#glyph-0-1" x="72.405906" y="159.169924"/>
</g>
<g fill="rgb(0%, 0%, 0%)" fill-opacity="1">
<use xlink:href="#glyph-0-2" x="80.177619" y="159.169924"/>
</g>
<g fill="rgb(0%, 0%, 0%)" fill-opacity="1">
<use xlink:href="#glyph-0-3" x="84.255535" y="159.169924"/>
</g>
<g fill="rgb(0%, 0%, 0%)" fill-opacity="1">
<use xlink:href="#glyph-2-1" x="90.503277" y="159.169924"/>
</g>
<g fill="rgb(0%, 0%, 0%)" fill-opacity="1">
<use xlink:href="#glyph-4-2" x="170.509265" y="158.703667"/>
</g>
<g fill="rgb(0%, 0%, 0%)" fill-opacity="1">
<use xlink:href="#glyph-0-0" x="236.188714" y="159.169924"/>
</g>
<g fill="rgb(0%, 0%, 0%)" fill-opacity="1">
<use xlink:href="#glyph-1-1" x="244.492669" y="155.375111"/>
</g>
<g fill="rgb(0%, 0%, 0%)" fill-opacity="1">
<use xlink:href="#glyph-2-0" x="248.628208" y="159.169924"/>
</g>
<g fill="rgb(0%, 0%, 0%)" fill-opacity="1">
<use xlink:href="#glyph-0-1" x="252.198729" y="159.169924"/>
</g>
<g fill="rgb(0%, 0%, 0%)" fill-opacity="1">
<use xlink:href="#glyph-0-2" x="259.970441" y="159.169924"/>
</g>
<g fill="rgb(0%, 0%, 0%)" fill-opacity="1">
<use xlink:href="#glyph-0-4" x="264.048357" y="159.169924"/>
</g>
<g fill="rgb(0%, 0%, 0%)" fill-opacity="1">
<use xlink:href="#glyph-3-0" x="271.827474" y="160.16321"/>
</g>
<g fill="rgb(0%, 0%, 0%)" fill-opacity="1">
<use xlink:href="#glyph-4-0" x="280.787974" y="159.169924"/>
</g>
<g fill="rgb(0%, 0%, 0%)" fill-opacity="1">
<use xlink:href="#glyph-0-3" x="289.965742" y="159.169924"/>
</g>
<g fill="rgb(0%, 0%, 0%)" fill-opacity="1">
<use xlink:href="#glyph-5-0" x="296.216294" y="155.375111"/>
</g>
<g fill="rgb(0%, 0%, 0%)" fill-opacity="1">
<use xlink:href="#glyph-1-0" x="301.951282" y="155.375111"/>
</g>
<g fill="rgb(0%, 0%, 0%)" fill-opacity="1">
<use xlink:href="#glyph-2-1" x="306.086393" y="159.169924"/>
</g>
<path fill="none" stroke-width="0.79701" stroke-linecap="butt" stroke-linejoin="miter" stroke="rgb(0%, 0%, 0%)" stroke-opacity="1" stroke-miterlimit="10" d="M 99.215413 -68.033758 L 99.215413 -91.923521 " transform="matrix(0.996275, 0, 0, -0.996275, 174.079915, 99.989178)"/>
<path fill-rule="nonzero" fill="rgb(0%, 0%, 0%)" fill-opacity="1" stroke-width="0.79701" stroke-linecap="butt" stroke-linejoin="miter" stroke="rgb(0%, 0%, 0%)" stroke-opacity="1" stroke-miterlimit="10" d="M 5.952205 0.00159307 L 1.286388 1.762057 L 2.831205 0.00159307 L 1.286388 -1.762791 Z M 5.952205 0.00159307 " transform="matrix(0, 0.996275, 0.996275, 0, 272.924194, 188.948872)"/>
<g fill="rgb(0%, 0%, 0%)" fill-opacity="1">
<use xlink:href="#glyph-0-5" x="276.627529" y="184.574944"/>
</g>
<g fill="rgb(0%, 0%, 0%)" fill-opacity="1">
<use xlink:href="#glyph-2-3" x="288.872889" y="184.574944"/>
</g>
<g fill="rgb(0%, 0%, 0%)" fill-opacity="1">
<use xlink:href="#glyph-2-4" x="299.069019" y="184.574944"/>
<use xlink:href="#glyph-2-5" x="302.690458" y="184.574944"/>
<use xlink:href="#glyph-2-6" x="307.791203" y="184.574944"/>
<use xlink:href="#glyph-2-7" x="311.875372" y="184.574944"/>
<use xlink:href="#glyph-2-8" x="316.466042" y="184.574944"/>
<use xlink:href="#glyph-2-9" x="319.271005" y="184.574944"/>
<use xlink:href="#glyph-2-10" x="322.331451" y="184.574944"/>
</g>
<g fill="rgb(0%, 0%, 0%)" fill-opacity="1">
<use xlink:href="#glyph-2-11" x="329.732444" y="184.574944"/>
<use xlink:href="#glyph-2-12" x="334.833189" y="184.574944"/>
<use xlink:href="#glyph-2-13" x="337.383561" y="184.574944"/>
<use xlink:href="#glyph-2-14" x="340.954083" y="184.574944"/>
</g>
<path fill="none" stroke-width="0.79701" stroke-linecap="butt" stroke-linejoin="miter" stroke="rgb(0%, 0%, 0%)" stroke-opacity="1" stroke-miterlimit="10" d="M -99.215087 -68.033758 L -99.215087 -91.923521 " transform="matrix(0.996275, 0, 0, -0.996275, 174.079915, 99.989178)"/>
<path fill-rule="nonzero" fill="rgb(0%, 0%, 0%)" fill-opacity="1" stroke-width="0.79701" stroke-linecap="butt" stroke-linejoin="miter" stroke="rgb(0%, 0%, 0%)" stroke-opacity="1" stroke-miterlimit="10" d="M 5.952205 -0.00126654 L 1.286388 1.763118 L 2.831205 -0.00126654 L 1.286388 -1.76173 Z M 5.952205 -0.00126654 " transform="matrix(0, 0.996275, 0.996275, 0, 75.235637, 188.948872)"/>
<g fill="rgb(0%, 0%, 0%)" fill-opacity="1">
<use xlink:href="#glyph-0-0" x="25.401767" y="184.586899"/>
</g>
<g fill="rgb(0%, 0%, 0%)" fill-opacity="1">
<use xlink:href="#glyph-1-0" x="33.706718" y="180.792087"/>
</g>
<g fill="rgb(0%, 0%, 0%)" fill-opacity="1">
<use xlink:href="#glyph-2-0" x="37.842257" y="184.586899"/>
</g>
<g fill="rgb(0%, 0%, 0%)" fill-opacity="1">
<use xlink:href="#glyph-0-1" x="41.412778" y="184.586899"/>
</g>
<g fill="rgb(0%, 0%, 0%)" fill-opacity="1">
<use xlink:href="#glyph-0-2" x="49.18449" y="184.586899"/>
</g>
<g fill="rgb(0%, 0%, 0%)" fill-opacity="1">
<use xlink:href="#glyph-0-4" x="53.262406" y="184.586899"/>
</g>
<g fill="rgb(0%, 0%, 0%)" fill-opacity="1">
<use xlink:href="#glyph-3-0" x="61.040527" y="185.57919"/>
</g>
<g fill="rgb(0%, 0%, 0%)" fill-opacity="1">
<use xlink:href="#glyph-2-1" x="67.960655" y="184.586899"/>
</g>
<g fill="rgb(0%, 0%, 0%)" fill-opacity="1">
<use xlink:href="#glyph-0-0" x="137.298428" y="208.247442"/>
</g>
<g fill="rgb(0%, 0%, 0%)" fill-opacity="1">
<use xlink:href="#glyph-1-0" x="145.603378" y="204.452629"/>
</g>
<g fill="rgb(0%, 0%, 0%)" fill-opacity="1">
<use xlink:href="#glyph-2-0" x="149.738917" y="208.247442"/>
</g>
<g fill="rgb(0%, 0%, 0%)" fill-opacity="1">
<use xlink:href="#glyph-0-1" x="153.309438" y="208.247442"/>
</g>
<g fill="rgb(0%, 0%, 0%)" fill-opacity="1">
<use xlink:href="#glyph-0-2" x="161.081151" y="208.247442"/>
</g>
<g fill="rgb(0%, 0%, 0%)" fill-opacity="1">
<use xlink:href="#glyph-0-4" x="165.159067" y="208.247442"/>
</g>
<g fill="rgb(0%, 0%, 0%)" fill-opacity="1">
<use xlink:href="#glyph-3-0" x="172.937188" y="209.239732"/>
</g>
<g fill="rgb(0%, 0%, 0%)" fill-opacity="1">
<use xlink:href="#glyph-2-1" x="179.857316" y="208.247442"/>
</g>
<g fill="rgb(0%, 0%, 0%)" fill-opacity="1">
<use xlink:href="#glyph-1-2" x="190.416838" y="203.134557"/>
<use xlink:href="#glyph-1-3" x="193.284332" y="203.134557"/>
</g>
<g fill="rgb(0%, 0%, 0%)" fill-opacity="1">
<use xlink:href="#glyph-4-3" x="185.978431" y="208.247442"/>
</g>
<g fill="rgb(0%, 0%, 0%)" fill-opacity="1">
<use xlink:href="#glyph-4-3" x="189.331881" y="208.247442"/>
</g>
<g fill="rgb(0%, 0%, 0%)" fill-opacity="1">
<use xlink:href="#glyph-4-4" x="192.676397" y="208.247442"/>
</g>
<g fill="rgb(0%, 0%, 0%)" fill-opacity="1">
<use xlink:href="#glyph-7-0" x="204.412576" y="208.247442"/>
</g>
<path fill-rule="nonzero" fill="rgb(100%, 95.999146%, 95.999146%)" fill-opacity="1" stroke-width="0.3985" stroke-linecap="butt" stroke-linejoin="miter" stroke="rgb(50%, 0%, 0%)" stroke-opacity="1" stroke-miterlimit="10" d="M 99.360485 59.96252 L -99.364079 59.96252 C -101.563678 59.96252 -103.347667 58.178532 -103.347667 55.975012 L -103.347667 46.070935 C -103.347667 43.871336 -101.563678 42.087347 -99.364079 42.087347 L 99.360485 42.087347 C 101.564005 42.087347 103.347993 43.871336 103.347993 46.070935 L 103.347993 55.975012 C 103.347993 58.178532 101.564005 59.96252 99.360485 59.96252 Z M 99.360485 59.96252 " transform="matrix(0.996275, 0, 0, -0.996275, 174.079915, 99.989178)"/>
<g fill="rgb(0%, 0%, 0%)" fill-opacity="1">
<use xlink:href="#glyph-2-15" x="75.089005" y="51.855133"/>
<use xlink:href="#glyph-2-16" x="80.18975" y="51.855133"/>
<use xlink:href="#glyph-2-10" x="82.740122" y="51.855133"/>
</g>
<g fill="rgb(0%, 0%, 0%)" fill-opacity="1">
<use xlink:href="#glyph-0-0" x="91.918782" y="51.855133"/>
</g>
<g fill="rgb(0%, 0%, 0%)" fill-opacity="1">
<use xlink:href="#glyph-1-1" x="100.225031" y="48.060321"/>
</g>
<g fill="rgb(0%, 0%, 0%)" fill-opacity="1">
<use xlink:href="#glyph-2-0" x="104.36057" y="51.855133"/>
</g>
<g fill="rgb(0%, 0%, 0%)" fill-opacity="1">
<use xlink:href="#glyph-0-3" x="107.931091" y="51.855133"/>
</g>
<g fill="rgb(0%, 0%, 0%)" fill-opacity="1">
<use xlink:href="#glyph-2-1" x="114.178833" y="51.855133"/>
</g>
<g fill="rgb(0%, 0%, 0%)" fill-opacity="1">
<use xlink:href="#glyph-4-3" x="119.786079" y="51.855133"/>
</g>
<g fill="rgb(0%, 0%, 0%)" fill-opacity="1">
<use xlink:href="#glyph-2-15" x="128.972779" y="51.855133"/>
<use xlink:href="#glyph-2-16" x="134.073524" y="51.855133"/>
<use xlink:href="#glyph-2-10" x="136.623896" y="51.855133"/>
</g>
<g fill="rgb(0%, 0%, 0%)" fill-opacity="1">
<use xlink:href="#glyph-0-0" x="145.802557" y="51.855133"/>
</g>
<g fill="rgb(0%, 0%, 0%)" fill-opacity="1">
<use xlink:href="#glyph-1-1" x="154.106588" y="48.060321"/>
</g>
<g fill="rgb(0%, 0%, 0%)" fill-opacity="1">
<use xlink:href="#glyph-2-0" x="158.242127" y="51.855133"/>
</g>
<g fill="rgb(0%, 0%, 0%)" fill-opacity="1">
<use xlink:href="#glyph-0-4" x="161.812648" y="51.855133"/>
</g>
<g fill="rgb(0%, 0%, 0%)" fill-opacity="1">
<use xlink:href="#glyph-3-0" x="169.58771" y="52.847423"/>
</g>
<g fill="rgb(0%, 0%, 0%)" fill-opacity="1">
<use xlink:href="#glyph-4-0" x="178.54821" y="51.855133"/>
</g>
<g fill="rgb(0%, 0%, 0%)" fill-opacity="1">
<use xlink:href="#glyph-0-3" x="187.725977" y="51.855133"/>
</g>
<g fill="rgb(0%, 0%, 0%)" fill-opacity="1">
<use xlink:href="#glyph-5-0" x="193.97653" y="48.060321"/>
</g>
<g fill="rgb(0%, 0%, 0%)" fill-opacity="1">
<use xlink:href="#glyph-1-0" x="199.711517" y="48.060321"/>
</g>
<g fill="rgb(0%, 0%, 0%)" fill-opacity="1">
<use xlink:href="#glyph-2-1" x="203.846629" y="51.855133"/>
</g>
<g fill="rgb(0%, 0%, 0%)" fill-opacity="1">
<use xlink:href="#glyph-2-2" x="209.971989" y="51.855133"/>
</g>
<g fill="rgb(0%, 0%, 0%)" fill-opacity="1">
<use xlink:href="#glyph-2-15" x="219.658937" y="51.855133"/>
<use xlink:href="#glyph-2-6" x="224.759682" y="51.855133"/>
<use xlink:href="#glyph-2-17" x="228.843851" y="51.855133"/>
</g>
<g fill="rgb(0%, 0%, 0%)" fill-opacity="1">
<use xlink:href="#glyph-0-3" x="235.087127" y="51.855133"/>
</g>
<g fill="rgb(0%, 0%, 0%)" fill-opacity="1">
<use xlink:href="#glyph-2-3" x="243.380527" y="51.855133"/>
</g>
<g fill="rgb(0%, 0%, 0%)" fill-opacity="1">
<use xlink:href="#glyph-2-18" x="252.558294" y="51.855133"/>
</g>
<g fill="rgb(0%, 0%, 0%)" fill-opacity="1">
<use xlink:href="#glyph-4-3" x="259.194622" y="51.855133"/>
</g>
<g fill="rgb(0%, 0%, 0%)" fill-opacity="1">
<use xlink:href="#glyph-0-6" x="268.372389" y="51.855133"/>
</g>
<g fill="rgb(25%, 25%, 25%)" fill-opacity="1">
<use xlink:href="#glyph-6-12" x="146.780976" y="29.319386"/>
<use xlink:href="#glyph-6-10" x="152.987203" y="29.319386"/>
<use xlink:href="#glyph-6-7" x="155.330419" y="29.319386"/>
<use xlink:href="#glyph-6-13" x="159.079883" y="29.319386"/>
<use xlink:href="#glyph-6-1" x="166.110325" y="29.319386"/>
<use xlink:href="#glyph-6-0" x="170.329067" y="29.319386"/>
<use xlink:href="#glyph-6-0" x="175.016293" y="29.319386"/>
<use xlink:href="#glyph-6-14" x="179.70352" y="29.319386"/>
<use xlink:href="#glyph-6-12" x="182.516014" y="29.319386"/>
<use xlink:href="#glyph-6-15" x="188.722242" y="29.319386"/>
</g>
<g fill="rgb(25%, 25%, 25%)" fill-opacity="1">
<use xlink:href="#glyph-6-9" x="193.179196" y="29.319386"/>
</g>
<g fill="rgb(25%, 25%, 25%)" fill-opacity="1">
<use xlink:href="#glyph-6-16" x="196.690447" y="29.319386"/>
</g>
<g fill="rgb(25%, 25%, 25%)" fill-opacity="1">
<use xlink:href="#glyph-6-17" x="140.208548" y="229.05764"/>
<use xlink:href="#glyph-6-18" x="143.489527" y="229.05764"/>
<use xlink:href="#glyph-6-10" x="147.942511" y="229.05764"/>
<use xlink:href="#glyph-6-1" x="150.285727" y="229.05764"/>
</g>
<g fill="rgb(25%, 25%, 25%)" fill-opacity="1">
<use xlink:href="#glyph-6-19" x="157.315375" y="229.05764"/>
<use xlink:href="#glyph-6-7" x="162.002601" y="229.05764"/>
<use xlink:href="#glyph-6-4" x="165.752065" y="229.05764"/>
<use xlink:href="#glyph-6-4" x="169.04019" y="229.05764"/>
<use xlink:href="#glyph-6-7" x="172.328316" y="229.05764"/>
</g>
<g fill="rgb(25%, 25%, 25%)" fill-opacity="1">
<use xlink:href="#glyph-6-20" x="178.888685" y="229.05764"/>
<use xlink:href="#glyph-6-3" x="183.575912" y="229.05764"/>
<use xlink:href="#glyph-6-1" x="188.263138" y="229.05764"/>
<use xlink:href="#glyph-6-5" x="192.48188" y="229.05764"/>
<use xlink:href="#glyph-6-10" x="194.825096" y="229.05764"/>
<use xlink:href="#glyph-6-2" x="197.168312" y="229.05764"/>
</g>
<g fill="rgb(25%, 25%, 25%)" fill-opacity="1">
<use xlink:href="#glyph-6-21" x="200.219019" y="229.05764"/>
<use xlink:href="#glyph-6-22" x="204.672003" y="229.05764"/>
</g>
</svg>
